<?xml version="1.0" encoding="UTF-8" standalone="no"?>
<!-- Created with Inkscape (http://www.inkscape.org/) -->

<svg
   width="176.20732mm"
   height="176.1945mm"
   viewBox="0 0 176.20732 176.1945"
   version="1.1"
   id="svg1"
   xml:space="preserve"
   inkscape:version="1.4.2 (f4327f4, 2025-05-13)"
   sodipodi:docname="drawings.svg"
   xmlns:inkscape="http://www.inkscape.org/namespaces/inkscape"
   xmlns:sodipodi="http://sodipodi.sourceforge.net/DTD/sodipodi-0.dtd"
   xmlns="http://www.w3.org/2000/svg"
   xmlns:svg="http://www.w3.org/2000/svg"><sodipodi:namedview
     id="namedview1"
     pagecolor="#ffffff"
     bordercolor="#000000"
     borderopacity="0.25"
     inkscape:showpageshadow="2"
     inkscape:pageopacity="0.0"
     inkscape:pagecheckerboard="0"
     inkscape:deskcolor="#d1d1d1"
     inkscape:document-units="mm"
     inkscape:zoom="0.35945918"
     inkscape:cx="232.29342"
     inkscape:cy="315.75213"
     inkscape:window-width="1920"
     inkscape:window-height="1009"
     inkscape:window-x="1912"
     inkscape:window-y="-8"
     inkscape:window-maximized="1"
     inkscape:current-layer="layer1" /><defs
     id="defs1" /><g
     inkscape:label="Layer 1"
     inkscape:groupmode="layer"
     id="layer1"
     transform="translate(-16.899593,-27.717705)"><path
       style="fill:#000000"
       d="m 31.18124,203.50965 c -0.94588,-0.20209 -2.84829,-0.9232 -4.22758,-1.60244 -3.53813,-1.74239 -6.29113,-4.49439 -8.03987,-8.03692 -2.18592,-4.42815 -2.01086,2.36631 -2.01086,-78.04633 0,-80.412643 -0.17506,-73.618187 2.01086,-78.046333 1.74721,-3.53944 4.50043,-6.292658 8.03987,-8.039871 3.62265,-1.788286 5.02654,-2.010025 12.7604,-2.015451 l 6.54844,-0.0046 v 73.421875 73.42188 h -6.16212 c -4.71544,0 -6.53234,0.0964 -7.73907,0.41063 -4.19507,1.09239 -7.27048,4.4888 -8.08952,8.93387 -1.02443,5.55979 2.99758,11.37128 8.70842,12.583 1.98192,0.42053 142.03019,0.42456 144.03958,0.004 3.08752,-0.64597 6.25412,-3.10055 7.71233,-5.9782 3.11752,-6.15213 -0.38955,-13.79657 -7.13565,-15.55371 -1.1565,-0.30123 -3.05333,-0.39974 -7.69685,-0.39974 H 163.7375 V 101.13958 27.717711 l 6.54844,0.0046 c 7.73386,0.0054 9.13775,0.227165 12.7604,2.015451 2.0393,1.006684 2.90889,1.639048 4.65486,3.385014 1.75162,1.751623 2.37404,2.608946 3.37943,4.654857 2.20215,4.481232 2.02618,-2.321535 2.02103,78.129777 -0.005,80.31726 0.17018,73.53532 -2.01545,77.96289 -1.74721,3.53943 -4.50043,6.29265 -8.03987,8.03987 -4.43047,2.18706 2.39249,2.01349 -78.17863,1.98889 -60.34433,-0.0184 -72.24441,-0.0813 -73.68647,-0.38941 z m -6.06561,-33.19563 c 1.27447,-0.9075 4.20443,-2.12802 6.04527,-2.51825 0.95708,-0.20288 3.07959,-0.37094 4.7167,-0.37347 l 2.97656,-0.005 V 101.13958 34.861461 H 36.5285 c -4.0762,0 -6.96423,1.109963 -9.29198,3.571211 -1.50707,1.593511 -2.48344,3.401024 -2.90153,5.371499 -0.2155,1.015634 -0.2975,18.718479 -0.2975,64.227599 0,34.55404 0.0709,62.82552 0.1576,62.82552 0.0867,0 0.50092,-0.24447 0.92054,-0.54327 z m 160.84688,-62.11439 c 0,-44.07138 -0.0855,-63.120191 -0.28826,-64.216959 -0.7826,-4.2335 -4.41772,-7.941455 -8.65446,-8.827866 -0.77114,-0.161339 -2.40825,-0.293344 -3.63802,-0.293344 h -2.23593 v 66.278119 66.27813 h 2.92433 c 4.26283,0 7.87088,0.96689 10.7017,2.86787 0.43656,0.29317 0.88306,0.54173 0.9922,0.55237 0.10914,0.0106 0.19844,-28.17661 0.19844,-62.63832 z m -85.32814,62.49944 c -4.11142,-0.59614 -8.51698,-1.5692 -8.97043,-1.98131 -0.19707,-0.1791 -1.16767,-8.81199 -1.20512,-10.71872 -0.007,-0.38399 -0.32789,-0.69807 -1.03907,-1.01877 -0.56549,-0.255 -1.54775,-0.80835 -2.18281,-1.22968 -0.63506,-0.42132 -1.31433,-0.76654 -1.5095,-0.76717 -0.19516,-6.2e-4 -2.52558,1.0109 -5.17871,2.24783 -2.65312,1.23693 -4.95675,2.24896 -5.11917,2.24896 -0.16243,0 -1.35186,-1.17713 -2.64319,-2.61585 -3.74396,-4.17126 -6.74096,-8.8625 -8.55511,-13.39145 -0.90086,-2.24895 -2.43054,-7.29204 -2.26273,-7.45984 0.055,-0.055 2.10985,-1.50886 4.56628,-3.23073 l 4.46623,-3.13068 0.0745,-2.75416 0.0745,-2.75416 -4.63857,-3.25641 c -2.55121,-1.79103 -4.63856,-3.29022 -4.63856,-3.33154 0,-0.44698 1.83998,-6.07336 2.53754,-7.75942 1.99433,-4.82041 5.68392,-10.333866 9.29373,-13.887846 l 1.82002,-1.79188 5.12863,2.39057 5.12863,2.39057 0.95734,-0.63354 c 0.52654,-0.34845 1.55931,-0.93858 2.29505,-1.31141 1.53699,-0.77885 1.37683,-0.16913 1.97382,-7.5145 0.18009,-2.2158 0.41072,-4.1635 0.51252,-4.32821 0.32609,-0.52763 6.16303,-1.775655 9.86631,-2.109573 2.76267,-0.249106 4.3994,-0.253364 7.12421,-0.01853 3.16756,0.272989 9.45886,1.538316 9.9146,1.994056 0.14989,0.14988 1.05979,8.89564 1.11003,10.66935 0.0124,0.43914 0.37003,0.76988 1.39262,1.28807 0.75673,0.38346 1.80961,0.98424 2.33973,1.33505 l 0.96385,0.63785 5.12142,-2.39509 5.12142,-2.39508 1.69114,1.6598 c 4.66356,4.577143 8.51675,10.872323 10.62323,17.355803 0.55206,1.69918 1.07942,3.40936 1.17191,3.80041 0.15912,0.67276 -0.0809,0.8859 -4.46292,3.96364 l -4.63108,3.25265 v 2.69462 2.69463 l 4.61834,3.26361 c 4.23511,2.99279 4.60563,3.31849 4.46513,3.92506 -1.07941,4.66015 -3.59845,10.40178 -6.40499,14.59887 -1.92121,2.87311 -6.46978,8.16306 -7.00341,8.14492 -0.1679,-0.006 -2.55836,-1.05343 -5.31213,-2.32828 l -5.00685,-2.31789 -2.0832,1.25204 c -1.14577,0.68862 -2.18812,1.28986 -2.31635,1.33609 -0.12822,0.0462 -0.43853,2.40576 -0.68957,5.24342 -0.25105,2.83765 -0.54838,5.41169 -0.66075,5.72007 -0.11237,0.30839 -0.48106,0.62719 -0.81933,0.70845 -5.41156,1.30004 -7.13612,1.54322 -11.59522,1.63507 -2.54662,0.0524 -4.9874,0.0436 -5.42396,-0.0197 z m 8.32485,-7.2584 c 1.37721,-0.14503 2.59198,-0.35166 2.6995,-0.45918 0.10751,-0.10751 0.40288,-2.50579 0.65637,-5.32949 l 0.46089,-5.13401 1.07295,-0.40882 c 2.19896,-0.83784 5.39276,-2.61896 7.38551,-4.11875 l 2.05601,-1.5474 4.76448,2.17671 c 4.66551,2.13149 4.77564,2.16661 5.30128,1.69092 1.46381,-1.32474 5.67441,-8.61134 6.17076,-10.67874 0.14711,-0.61277 -0.18094,-0.90676 -4.10349,-3.67754 l -4.26338,-3.01153 0.21526,-1.74642 c 0.27273,-2.21264 0.27646,-6.22666 0.008,-8.62559 l -0.20725,-1.85208 4.24215,-2.99686 c 2.33318,-1.64828 4.24044,-3.13656 4.23835,-3.3073 -0.0138,-1.13037 -4.11274,-8.37411 -6.13556,-10.84305 l -0.60879,-0.74305 -4.61695,2.14958 c -2.53933,1.18226 -4.69924,2.20043 -4.79982,2.26259 -0.10057,0.0622 -0.83854,-0.42679 -1.63994,-1.08654 -1.77583,-1.46196 -4.99463,-3.32274 -7.33833,-4.24226 l -1.73974,-0.68256 -0.45775,-5.190776 c -0.25177,-2.85493 -0.51228,-5.2453 -0.57892,-5.31194 -0.7034,-0.7034 -12.77254,-0.7091 -13.47528,-0.006 -0.0701,0.0701 -0.33351,2.46337 -0.58528,5.3183 l -0.45775,5.190776 -1.73974,0.68256 c -2.27736,0.89349 -5.41504,2.69323 -7.29373,4.18359 l -1.50362,1.19283 -4.79812,-2.23081 -4.79812,-2.2308 -0.60951,0.74396 c -2.26185,2.76077 -6.3707,10.21661 -6.06516,11.00572 0.0685,0.17686 1.9916,1.6249 4.27361,3.21787 l 4.1491,2.89631 -0.21392,1.7339 c -0.27522,2.23066 -0.27417,6.53655 0.002,8.77939 l 0.21605,1.75382 -4.05251,2.84892 c -2.22889,1.5669 -4.16048,2.94542 -4.29244,3.06339 -0.30363,0.27142 1.11678,3.72646 2.54498,6.19046 1.15599,1.99437 3.81624,5.68855 4.09645,5.68855 0.0942,0 2.28052,-0.96547 4.85856,-2.14549 l 4.68736,-2.1455 1.94816,1.45887 c 2.21906,1.66173 4.65963,3.02494 6.99123,3.90504 l 1.60348,0.60527 0.45648,5.17639 c 0.25107,2.84702 0.55136,5.27126 0.66731,5.38721 0.57505,0.57505 6.88092,0.84249 10.60867,0.44992 z M 101.825,141.09176 c -5.2488,-1.19071 -9.62294,-5.41518 -10.9727,-10.59727 -0.86309,-3.31362 -0.36843,-7.44841 1.26447,-10.56949 2.68092,-5.12423 9.12456,-8.42914 14.73672,-7.55839 7.5427,1.17029 12.6986,7.05204 12.6986,14.4863 0,6.24183 -3.79705,11.60862 -9.7423,13.76988 -2.25218,0.81873 -5.58113,1.01425 -7.98479,0.46897 z m 6.02087,-7.41968 c 3.45885,-1.4452 5.35227,-5.54412 4.18474,-9.05922 -0.58125,-1.74999 -2.30148,-3.67823 -3.97782,-4.45884 -5.53608,-2.57794 -11.83315,2.75916 -10.19837,8.64365 1.17066,4.21386 5.96936,6.55494 9.99145,4.87441 z M 57.375,60.658336 V 57.086461 H 105 152.625 v 3.571875 3.571875 H 105 57.375 Z"
       id="path1"
       sodipodi:nodetypes="ssssssscccsssscssscccsssscssssssccccssssssscsscccsssscscssssssssscccsssscccssssssscsscccsssscccssscscsssscccccsscsscsssscsscscscscsscsssscsscccssscsccssssscsscssccssssssssssssccccccccc" /></g></svg>
