<?xml version="1.0" encoding="UTF-8" standalone="no"?>
<!-- Created with Inkscape (http://www.inkscape.org/) -->

<svg
   width="176.20732mm"
   height="176.1945mm"
   viewBox="0 0 176.20732 176.1945"
   version="1.1"
   id="svg1"
   xml:space="preserve"
   inkscape:version="1.4.2 (f4327f4, 2025-05-13)"
   sodipodi:docname="nodrawings.svg"
   xmlns:inkscape="http://www.inkscape.org/namespaces/inkscape"
   xmlns:sodipodi="http://sodipodi.sourceforge.net/DTD/sodipodi-0.dtd"
   xmlns="http://www.w3.org/2000/svg"
   xmlns:svg="http://www.w3.org/2000/svg"><sodipodi:namedview
     id="namedview1"
     pagecolor="#ffffff"
     bordercolor="#000000"
     borderopacity="0.25"
     inkscape:showpageshadow="2"
     inkscape:pageopacity="0.0"
     inkscape:pagecheckerboard="0"
     inkscape:deskcolor="#d1d1d1"
     inkscape:document-units="mm"
     inkscape:zoom="0.50835204"
     inkscape:cx="451.4588"
     inkscape:cy="378.67459"
     inkscape:window-width="1920"
     inkscape:window-height="1009"
     inkscape:window-x="1912"
     inkscape:window-y="-8"
     inkscape:window-maximized="1"
     inkscape:current-layer="layer1" /><defs
     id="defs1" /><g
     inkscape:label="Layer 1"
     inkscape:groupmode="layer"
     id="layer1"
     transform="translate(-16.899593,-27.717705)"><path
       style="fill:#e6e6e6;stroke-width:0.984387"
       d="m 33.709495,203.45432 c -0.931112,-0.19903 -2.803818,-0.90877 -4.161573,-1.57742 -3.482888,-1.71518 -6.192903,-4.42421 -7.914339,-7.91144 -2.15179,-4.359 -1.979463,2.32937 -1.979463,-76.82781 0,-79.157127 -0.172337,-72.468757 1.979463,-76.827761 1.71993,-3.48418 4.430163,-6.194409 7.914339,-7.914343 3.566088,-1.760365 4.948059,-1.97864 12.561163,-1.983981 l 6.446196,-0.0047 v 72.275495 72.27559 h -6.065906 c -4.641817,0 -6.430346,0.0947 -7.618237,0.40422 -4.129568,1.07533 -7.156961,4.41871 -7.963213,8.79439 -1.008434,5.47297 2.950777,11.19373 8.572451,12.38652 1.950975,0.41394 139.812574,0.41794 141.790614,0.005 3.0393,-0.63589 6.15645,-3.05215 7.59191,-5.88485 3.06885,-6.05609 -0.38347,-13.58118 -7.02426,-15.31088 -1.13843,-0.29652 -3.00564,-0.39349 -7.57666,-0.39349 h -6.0659 V 102.68253 30.407042 l 6.44619,0.0047 c 7.61311,0.0053 8.99508,0.223618 12.56115,1.983982 2.00745,0.990966 2.86349,1.613457 4.58219,3.332162 1.72428,1.724273 2.33696,2.568212 3.32666,4.582178 2.16777,4.411264 1.99455,-2.285289 1.98948,76.909896 -0.005,79.06331 0.16745,72.38726 -1.98397,76.74569 -1.71995,3.48417 -4.43018,6.1944 -7.91436,7.91434 -4.36127,2.15291 2.35514,1.98205 -76.95797,1.95785 -59.402134,-0.0176 -71.116412,-0.0801 -72.535955,-0.38335 z M 27.73859,170.77699 c 1.254572,-0.89332 4.138784,-2.09481 5.950883,-2.47893 0.942136,-0.19969 3.031505,-0.36515 4.643054,-0.36762 l 2.930086,-0.005 V 102.68253 37.439251 h -2.289348 c -4.012558,0 -6.855494,1.092635 -9.146899,3.515454 -1.48354,1.56863 -2.444666,3.347921 -2.856226,5.287629 -0.212145,0.999778 -0.292855,18.426217 -0.292855,63.224766 0,34.01455 0.06979,61.84467 0.155131,61.84467 0.08535,0 0.493099,-0.24064 0.906164,-0.53478 z m 158.33548,-61.14464 c 0,-43.383266 -0.0843,-62.134658 -0.28376,-63.214303 -0.77038,-4.167399 -4.34874,-7.817459 -8.51932,-8.690031 -0.75912,-0.158817 -2.37066,-0.288765 -3.58123,-0.288765 h -2.20103 v 65.243279 65.24339 h 2.87867 c 4.19629,0 7.74799,0.95178 10.53463,2.82306 0.42972,0.28863 0.86926,0.53327 0.9767,0.54377 0.1075,0.0109 0.1953,-27.73674 0.1953,-61.6604 z m -83.99587,61.52368 c -4.047207,-0.58683 -8.383992,-1.5447 -8.830354,-1.95037 -0.193994,-0.17623 -1.149436,-8.67442 -1.186309,-10.55137 -0.0072,-0.37799 -0.322772,-0.68717 -1.022842,-1.00285 -0.556667,-0.25104 -1.523584,-0.79575 -2.148725,-1.21049 -0.625153,-0.41474 -1.293815,-0.75458 -1.485939,-0.7552 -0.192112,-6.2e-4 -2.486145,0.99513 -5.097847,2.21274 -2.611698,1.21761 -4.879358,2.21384 -5.039243,2.21384 -0.159894,0 -1.330754,-1.15875 -2.60192,-2.575 -3.685504,-4.10616 -6.635712,-8.72416 -8.421535,-13.18243 -0.886796,-2.21384 -2.392591,-7.1782 -2.227403,-7.34338 0.05414,-0.0542 2.07691,-1.4853 4.494986,-3.18028 l 4.396497,-3.08179 0.07334,-2.71117 0.07334,-2.71116 -4.566145,-3.20555 c -2.511378,-1.76309 -4.566136,-3.23886 -4.566136,-3.27955 0,-0.43997 1.811251,-5.97852 2.497919,-7.63826 1.963192,-4.74513 5.595174,-10.17252 9.148622,-13.671008 l 1.791603,-1.763893 5.048558,2.353232 5.048546,2.353259 0.942399,-0.623644 c 0.51831,-0.343025 1.534962,-0.923938 2.259212,-1.290951 1.51299,-0.76668 1.355326,-0.166564 1.943003,-7.397171 0.177271,-2.181204 0.404301,-4.098493 0.504519,-4.260626 0.320999,-0.5194 6.066779,-1.747938 9.712234,-2.076633 2.71954,-0.245217 4.33073,-0.249409 7.01298,-0.01757 3.1181,0.26872 9.31119,1.514288 9.75978,1.962915 0.14742,0.147464 1.04326,8.756745 1.09271,10.502774 0.0124,0.432277 0.36426,0.757857 1.37089,1.267953 0.74492,0.377479 1.78134,0.968882 2.30321,1.314213 l 0.94876,0.62788 5.04146,-2.357693 5.04148,-2.357687 1.66474,1.63389 c 4.59075,4.50567 8.38376,10.70257 10.45737,17.08482 0.54343,1.67264 1.06257,3.35612 1.15358,3.74107 0.1567,0.66227 -0.0796,0.87208 -4.39324,3.90175 l -4.55877,3.20188 v 2.65254 2.65255 l 4.54625,3.21265 c 4.16898,2.94607 4.53371,3.26668 4.39541,3.86379 -1.06256,4.58739 -3.54226,10.2394 -6.30498,14.37099 -1.89123,2.82826 -6.36877,8.03563 -6.89407,8.01777 -0.16525,-0.006 -2.51841,-1.03698 -5.22918,-2.29193 l -4.92868,-2.2817 -2.05069,1.23247 c -1.12786,0.67789 -2.15393,1.26974 -2.28015,1.31524 -0.12624,0.0455 -0.43169,2.3682 -0.67883,5.16154 -0.24712,2.79336 -0.5398,5.32721 -0.65043,5.63076 -0.11064,0.30359 -0.47354,0.61742 -0.80654,0.6974 -5.32706,1.27975 -7.02467,1.51912 -11.41416,1.60953 -2.50686,0.0515 -4.90954,0.0431 -5.3393,-0.0198 z m 8.19488,-7.14506 c 1.35571,-0.14289 2.55151,-0.34618 2.65735,-0.45202 0.10582,-0.10582 0.39659,-2.46665 0.64611,-5.24629 l 0.4537,-5.05383 1.0562,-0.40247 c 2.16462,-0.82475 5.30855,-2.57806 7.27019,-4.05445 l 2.0239,-1.52324 4.69009,2.14271 c 4.59268,2.09826 4.70109,2.13282 5.21852,1.66454 1.44094,-1.30406 5.58581,-8.47693 6.07441,-10.51208 0.14478,-0.60318 -0.17818,-0.89259 -4.03941,-3.6201 l -4.19683,-2.96452 0.212,-1.71915 c 0.26846,-2.17808 0.27214,-6.12943 0.01,-8.49091 l -0.20411,-1.82315 4.17593,-2.95008 c 2.29676,-1.62254 4.17424,-3.08758 4.17219,-3.25566 -0.0124,-1.11272 -4.04853,-8.24336 -6.03977,-10.67375 l -0.59928,-0.73144 -4.54486,2.11601 c -2.49969,1.1638 -4.62586,2.16608 -4.72489,2.22726 -0.0989,0.0612 -0.82543,-0.42012 -1.61432,-1.06956 -1.74813,-1.43915 -4.91666,-3.27088 -7.22377,-4.17603 l -1.71256,-0.6719 -0.4506,-5.109728 c -0.24785,-2.810374 -0.50429,-5.163409 -0.56989,-5.229003 -0.69243,-0.692415 -12.57311,-0.698033 -13.264869,-0.0065 -0.06914,0.06891 -0.328311,2.424905 -0.576166,5.235257 l -0.450597,5.109734 -1.712583,0.6719 c -2.241789,0.87954 -5.330476,2.65118 -7.179836,4.11827 l -1.480148,1.1742 -4.723204,-2.19597 -4.723203,-2.19598 -0.599991,0.73236 c -2.226536,2.71765 -6.271231,10.05709 -5.970463,10.83386 0.06745,0.17403 1.960505,1.59954 4.206884,3.16763 l 4.084318,2.85109 -0.210585,1.70684 c -0.270922,2.19582 -0.269889,6.43447 0.0021,8.6423 l 0.212669,1.72643 -3.989234,2.80445 c -2.194091,1.54245 -4.095521,2.89943 -4.22542,3.01556 -0.298888,0.26718 1.099343,3.66829 2.505244,6.09383 1.137939,1.96324 3.756655,5.59975 4.032489,5.59975 0.09271,0 2.244912,-0.95039 4.782699,-2.11199 l 4.614178,-2.11201 1.917737,1.43609 c 2.184416,1.63582 4.586873,2.97774 6.882065,3.84411 l 1.578435,0.59581 0.449342,5.09558 c 0.24718,2.80257 0.54278,5.18897 0.656911,5.3031 0.566068,0.56605 6.773468,0.82934 10.443028,0.4429 z m -7.02282,-22.00005 c -5.166865,-1.17213 -9.472702,-5.33064 -10.801387,-10.43181 -0.849613,-3.26188 -0.362674,-7.3321 1.244732,-10.40447 2.639067,-5.04421 8.982095,-8.29753 14.506625,-7.44037 7.42493,1.15201 12.50032,6.94194 12.50032,14.26013 0,6.14436 -3.73776,11.42735 -9.59016,13.55487 -2.21702,0.80595 -5.49401,0.99844 -7.86013,0.46165 z m 5.92686,-7.30385 c 3.40484,-1.42261 5.26869,-5.45754 4.1194,-8.91775 -0.57219,-1.72268 -2.26556,-3.62082 -3.91572,-4.38923 -5.44963,-2.53769 -11.648399,2.71608 -10.039124,8.5087 1.152354,4.14807 5.876144,6.45258 9.835444,4.79828 z M 59.494278,62.833346 v -3.516105 h 46.881382 46.8814 v 3.516105 3.516106 h -46.8814 -46.881382 z"
       id="path1"
       sodipodi:nodetypes="ssssssscccsssscssscccsssscssssssccccssssssscsscccsssscscssssssssscccsssscccssssssscsscccsssscccssscscsssscccccsscsscsssscsscscscscsscsssscsscccssscsccssssscsscssccssssssssssssccccccccc" /><path
       style="fill:#000000;stroke-width:3.38322"
       d="m 59.50942,161.97865 c -2.144881,-2.14491 -2.197155,-2.52921 -2.197155,-16.15322 0,-13.76639 0.03042,-13.98705 2.282885,-16.2389 1.776452,-1.77649 2.818987,-2.15151 4.699475,-1.69071 4.577912,1.12185 5.078996,2.39648 5.396071,13.72631 l 0.294003,10.50751 36.182731,-0.0223 36.18278,-0.0223 6e-5,-9.97118 c 1.4e-4,-11.53613 1.10333,-14.0484 6.16921,-14.0484 5.37678,0 5.88271,1.41269 6.20038,17.31491 0.28419,14.23586 0.27947,14.2778 -1.9734,16.53056 l -2.25848,2.25846 H 106.09722 61.706472 Z m 43.12806,-23.82689 -2.35855,-1.85523 v -24.10377 c 0,-13.2571 -0.16871,-24.103796 -0.37499,-24.103796 -0.20638,0 -3.80662,3.423906 -8.000843,7.608676 -8.016446,7.99845 -9.989281,8.88676 -13.803486,6.21523 -1.384914,-0.97003 -1.989423,-2.30782 -1.989423,-4.40241 0,-2.6804 1.392866,-4.39549 12.755724,-15.706248 C 103.66284,67.075047 104.657,66.296056 107.3749,67.301503 c 1.09024,0.4033 7.9959,6.738234 15.34593,14.077625 11.72164,11.704682 13.36366,13.700412 13.36366,16.242342 0,1.97991 -0.63019,3.33937 -1.98943,4.2914 -3.8627,2.7055 -5.87972,1.80212 -14.23837,-6.37721 l -7.94097,-7.770666 v 24.265736 24.2658 l -2.35857,1.85523 c -1.29721,1.02041 -2.85412,1.85526 -3.45981,1.85526 -0.6057,0 -2.16267,-0.83485 -3.45986,-1.85526 z"
       id="path2" /></g></svg>
