<?xml version="1.0" encoding="UTF-8" standalone="no"?>
<!-- Created with Inkscape (http://www.inkscape.org/) -->

<svg
   width="62.149605mm"
   height="68.259903mm"
   viewBox="0 0 62.149605 68.259903"
   version="1.1"
   id="svg1"
   xml:space="preserve"
   inkscape:version="1.4.2 (f4327f4, 2025-05-13)"
   sodipodi:docname="bell.svg"
   xmlns:inkscape="http://www.inkscape.org/namespaces/inkscape"
   xmlns:sodipodi="http://sodipodi.sourceforge.net/DTD/sodipodi-0.dtd"
   xmlns="http://www.w3.org/2000/svg"
   xmlns:svg="http://www.w3.org/2000/svg"><sodipodi:namedview
     id="namedview1"
     pagecolor="#ffffff"
     bordercolor="#000000"
     borderopacity="0.25"
     inkscape:showpageshadow="2"
     inkscape:pageopacity="0.0"
     inkscape:pagecheckerboard="0"
     inkscape:deskcolor="#d1d1d1"
     inkscape:document-units="mm"
     inkscape:zoom="0.76167929"
     inkscape:cx="173.95773"
     inkscape:cy="163.45462"
     inkscape:window-width="1920"
     inkscape:window-height="1057"
     inkscape:window-x="1912"
     inkscape:window-y="-8"
     inkscape:window-maximized="1"
     inkscape:current-layer="layer1" /><defs
     id="defs1" /><g
     inkscape:label="Layer 1"
     inkscape:groupmode="layer"
     id="layer1"
     transform="translate(-59.109904,-105.37783)"><path
       style="fill:#000000;stroke-width:1.08864"
       d="m 88.100375,173.37106 c -2.068706,-0.65701 -3.963701,-2.30316 -4.818775,-4.18598 -1.241604,-2.73394 -1.127633,-3.21915 0.705852,-3.00511 0.99682,0.11638 1.549313,0.41618 1.549313,0.84071 0,0.36291 0.677272,1.3371 1.505048,2.16488 1.169263,1.16926 1.870459,1.50504 3.142893,1.50504 1.272433,0 1.97363,-0.33578 3.142894,-1.50504 0.827775,-0.82778 1.505046,-1.80197 1.505046,-2.16488 0,-0.42453 0.552495,-0.72433 1.549314,-0.84071 1.838505,-0.21463 1.948122,0.26944 0.68902,3.04271 -1.43593,3.16274 -5.767304,5.16575 -8.970605,4.14838 z M 59.287956,160.94218 c 0.39267,-3.92669 3.135246,-8.98073 6.100868,-11.24273 l 1.467781,-1.11953 0.183871,-9.41773 c 0.167117,-8.55955 0.278005,-9.65975 1.216898,-12.07369 2.222295,-5.71365 6.519871,-10.54769 11.48602,-12.91983 2.384084,-1.13878 2.650766,-1.41208 3.117021,-3.19432 1.971991,-7.53787 12.696704,-7.43302 14.684733,0.14357 0.424554,1.61802 0.748487,1.93674 3.120742,3.07049 4.09566,1.9574 7.99967,5.8917 10.11223,10.19067 2.30433,4.68923 2.64629,6.7889 2.64629,16.24846 v 7.88495 l 1.51198,1.15325 c 3.0082,2.29445 5.75,7.32579 6.14507,11.27644 l 0.17805,1.78053 H 90.184706 59.109904 Z m 58.325604,-2.31409 c -0.60357,-2.02318 -2.46123,-4.72097 -4.4658,-6.48547 -1.13371,-0.99794 -2.23245,-1.81443 -2.44164,-1.81443 -0.20918,0 -0.38033,-4.26499 -0.38033,-9.47777 0,-10.79633 -0.3969,-12.87024 -3.30011,-17.24411 -2.5986,-3.91496 -6.44077,-6.74303 -11.418377,-8.40462 -0.571036,-0.19062 -0.774657,-0.73929 -0.774657,-2.0874 0,-2.51552 -2.231681,-4.83889 -4.64794,-4.83889 -2.41626,0 -4.647941,2.32337 -4.647941,4.83889 0,1.34811 -0.203619,1.89678 -0.774656,2.0874 -4.909186,1.63876 -8.820777,4.49118 -11.317929,8.2533 -2.9914,4.50673 -3.400549,6.5933 -3.400549,17.34203 0,5.24215 -0.171153,9.53117 -0.380339,9.53117 -0.209187,0 -1.307921,0.81649 -2.441631,1.81443 -2.004575,1.7645 -3.86224,4.46229 -4.465801,6.48547 l -0.297126,0.99599 h 27.725972 27.725974 z m -13.92769,-27.89738 c -0.85212,-1.47605 -3.03174,-4.26261 -4.843584,-6.19237 -3.236656,-3.4473 -3.264167,-3.49608 -1.57314,-2.78953 3.914324,1.63551 6.758644,4.99193 7.757014,9.15361 0.29157,1.21538 0.45787,2.27778 0.36957,2.36088 -0.0883,0.0831 -0.85774,-1.05656 -1.70986,-2.53259 z"
       id="path1" /></g></svg>
