<?xml version="1.0" encoding="UTF-8" standalone="no"?>
<!-- Generator: Adobe Illustrator 28.2.0, SVG Export Plug-In . SVG Version: 6.00 Build 0)  -->

<svg
   version="1.1"
   id="Layer_1"
   x="0px"
   y="0px"
   width="20.652618"
   height="20.652618"
   viewBox="0 0 20.652619 20.652619"
   xml:space="preserve"
   sodipodi:docname="eportal.svg"
   inkscape:version="1.4.2 (f4327f4, 2025-05-13)"
   inkscape:export-filename="..\PortalSite\images\logo.png"
   inkscape:export-xdpi="96"
   inkscape:export-ydpi="96"
   xmlns:inkscape="http://www.inkscape.org/namespaces/inkscape"
   xmlns:sodipodi="http://sodipodi.sourceforge.net/DTD/sodipodi-0.dtd"
   xmlns="http://www.w3.org/2000/svg"
   xmlns:svg="http://www.w3.org/2000/svg"><defs
   id="defs18"><rect
     x="59.114437"
     y="51.166279"
     width="65.075554"
     height="13.41252"
     id="rect1" /></defs><sodipodi:namedview
   id="namedview18"
   pagecolor="#ffffff"
   bordercolor="#000000"
   borderopacity="0.25"
   inkscape:showpageshadow="2"
   inkscape:pageopacity="0.0"
   inkscape:pagecheckerboard="0"
   inkscape:deskcolor="#d1d1d1"
   inkscape:zoom="8.0521784"
   inkscape:cx="55.202453"
   inkscape:cy="7.1409247"
   inkscape:window-width="2400"
   inkscape:window-height="1321"
   inkscape:window-x="4791"
   inkscape:window-y="-9"
   inkscape:window-maximized="1"
   inkscape:current-layer="Layer_1"
   showguides="true"><sodipodi:guide
     position="38.536892,4.8963815"
     orientation="0,-1"
     id="guide1"
     inkscape:locked="false" /></sodipodi:namedview>
<style
   type="text/css"
   id="style1">
	.st0{fill:#E0D7C5;}
	.st1{fill:#BF1A20;}
	.st2{opacity:0.9725;fill:#BF1A20;}
</style>
<g
   id="g18"
   inkscape:export-filename="..\xampp\htdocs\PortalSite\xampp\htdocs\PortalSite\xampp\htdocs\PortalSite\xampp\htdocs\img\eportal.png"
   inkscape:export-xdpi="318.70795"
   inkscape:export-ydpi="318.70795"
   style="display:inline"
   transform="matrix(0.09248895,0,0,0.09248895,-0.64005018,5.0197913)">
	
	<circle
   style="display:inline;fill:#c8c4b7;stroke-width:5.84128"
   id="path19"
   cx="118.5694"
   cy="57.374611"
   r="111.64911" /><g
   id="g2"
   style="display:none">
		<path
   d="m 80,159.2 c -10.692,0 -21.064,-2.094 -30.828,-6.224 -9.431,-3.989 -17.901,-9.7 -25.175,-16.973 C 16.723,128.729 11.013,120.259 7.024,110.828 2.894,101.064 0.8,90.692 0.8,80 0.8,69.308 2.894,58.936 7.024,49.172 11.013,39.741 16.724,31.271 23.997,23.997 31.27,16.723 39.741,11.013 49.172,7.024 58.936,2.894 69.308,0.8 80,0.8 c 10.692,0 21.064,2.094 30.828,6.224 9.431,3.989 17.901,9.7 25.175,16.973 7.274,7.274 12.984,15.744 16.973,25.175 4.13,9.764 6.224,20.136 6.224,30.828 0,10.692 -2.094,21.064 -6.224,30.828 -3.989,9.431 -9.7,17.901 -16.973,25.175 -7.274,7.274 -15.744,12.984 -25.175,16.973 C 101.064,157.106 90.692,159.2 80,159.2 Z M 80,0.867 C 36.366,0.867 0.867,36.366 0.867,80 c 0,43.634 35.499,79.133 79.133,79.133 43.634,0 79.133,-35.499 79.133,-79.133 C 159.133,36.366 123.634,0.867 80,0.867 Z"
   id="path2" />
	</g>
	<path
   d="M 80,2.689 C 37.302,2.689 2.689,37.302 2.689,80 c 0,42.698 34.613,77.311 77.311,77.311 42.698,0 77.311,-34.613 77.311,-77.311 C 157.311,37.302 122.698,2.689 80,2.689 Z M 80,154.09 C 39.081,154.09 5.91,120.919 5.91,80 5.91,39.081 39.081,5.91 80,5.91 c 40.919,0 74.09,33.171 74.09,74.09 0,40.919 -33.171,74.09 -74.09,74.09 z"
   id="path3"
   style="display:none" />
	<path
   class="st1"
   d="M 80,7.521 C 39.971,7.521 7.521,39.971 7.521,80 c 0,40.029 32.45,72.479 72.479,72.479 40.029,0 72.479,-32.45 72.479,-72.479 C 152.479,39.971 120.029,7.521 80,7.521 Z m 0,143.348 C 40.86,150.869 9.131,119.14 9.131,80 9.131,40.86 40.86,9.131 80,9.131 c 39.14,0 70.869,31.729 70.869,70.869 0,39.14 -31.729,70.869 -70.869,70.869 z"
   id="path4"
   style="display:none" />
	<path
   d="m 198.95716,69.668918 c -0.48801,-3.25999 -1.79201,-5.377995 -2.60799,-6.681991 -5.052,-7.985986 -16.94997,-24.771968 -19.06798,-27.869946 -0.652,-0.814009 -1.466,-2.118005 -2.118,-3.911987 -0.81401,-1.955994 -1.14001,-3.911987 -1.304,-4.399998 -0.16201,-0.814009 -0.16201,-0.814009 -0.326,-1.466007 0,-0.325999 -0.48998,-2.607992 -1.62999,-4.563986 -0.978,-1.792006 -2.11801,-2.93399 -2.93399,-3.911987 -6.84598,-6.519979 -17.60197,-11.0819881 -18.41598,-16.78598109 -0.652,-5.05199631 6.84597,-6.51997891 11.73399,-16.94996991 1.95599,-4.237986 2.60799,-8.311985 2.93399,-11.245975 0,-0.325999 -0.326,-0.489987 -0.48801,-0.162012 -4.726,5.215983 -9.452,7.985986 -12.71199,9.615981 -9.12599,4.563985 -19.55796,5.215983 -29.49994,6.845978 -4.726,0.814009 -9.61598,1.467983 -14.34198,2.607991 -3.748,0.81401 -7.65998,1.955994 -11.245973,3.2599896 -7.98599,2.7700033 -15.80996,6.68199031 -22.00197,12.3859833 -7.17,6.5199791 -14.34197,16.4599831 -17.43798,22.0019661 -0.16398,0.325999 0.16399,0.651998 0.48999,0.489986 2.93399,-1.792006 7.822,-5.051996 11.89797,-7.00799 0.16399,-0.163987 0.326,0.162012 0.16399,0.325999 -5.37799,3.585989 -11.08199,8.637985 -15.97197,15.319975 -5.378,7.497976 -8.31199,14.831964 -9.94198,20.37197 -0.16201,0.651998 0.48999,1.140009 0.978,0.651998 1.466,-1.140008 2.93399,-2.281992 4.72599,-3.422001 0.16201,-0.162011 0.326,0 0.16201,0.163988 -3.58598,7.823974 -6.51997,16.459983 -7.65998,27.217948 -0.978,9.777995 0.16201,18.25397 1.466,24.77394 0.652,2.93399 3.58599,4.88998 6.68199,4.074 4.726,-1.14001 10.43,-1.956 17.11199,-1.79201 22.32796,0.978 31.61794,14.01598 51.501903,17.11198 7.49797,1.14001 17.76398,1.14001 30.80394,-3.748 2.60799,-0.978 2.77,-4.726 0.16201,-5.86798 -7.65999,-3.25999 -19.06798,-9.61598 -26.72797,-22.327955 -2.28199,-3.91199 -11.40798,-18.905966 -6.84597,-36.507933 1.30399,-4.889984 3.25999,-8.963983 5.21598,-11.897973 0.652,-0.977997 2.28199,-0.651998 2.28199,0.651997 0.16399,1.303996 0.326,2.770004 0.652,4.237987 0.48801,2.93399 1.46601,7.659987 4.88998,11.897973 3.09601,3.748 6.682,5.215983 10.75599,6.845978 6.03,2.444004 8.80198,1.792006 19.23197,4.889984 1.95599,0.489986 4.23799,1.303996 6.68199,3.25999 3.096,2.444004 4.726,5.541982 4.726,5.541982 0.48998,0.814009 0.65199,1.140008 1.14001,2.118005 0.65199,1.14001 1.62999,2.60799 3.422,3.91199 1.792,1.30399 3.422,1.95599 4.56398,2.28199 0.978,0.326 1.79201,0.48999 1.956,0.48999 2.28199,0.48801 4.23798,0.32599 5.21598,0.32599 4.56398,-0.65199 7.49797,-5.86798 8.31198,-7.333983 1.46601,-2.607992 1.956,-4.889985 2.77001,-8.637984 0.65002,-2.777907 0.97602,-4.571889 0.65002,-7.17988 z m -32.75796,-34.87596 -5.37799,-4.073999 c -1.304,-0.977997 -2.11801,-2.607991 -2.11801,-4.399998 v -2.281992 c 0,-1.792007 2.28199,-2.444005 3.25999,-0.977997 l 6.51998,9.615981 c 1.13804,1.466007 -0.81796,3.258014 -2.28397,2.118005 z m 30.47794,36.995941 c -0.16399,0.48801 -0.16399,1.140008 -0.326,1.792006 -0.326,1.140009 -0.65199,2.118005 -0.97799,3.096002 -0.48999,1.140009 -1.63,1.629995 -1.956,0.651998 0,-0.325999 -0.16201,-0.48801 -0.16201,-0.814009 -0.326,-1.629995 -0.81401,-2.933991 -1.46798,-4.237987 -0.48801,-0.977997 0.48998,-2.607991 1.62999,-3.259989 2.11801,-0.81401 3.58599,0.489986 3.25999,2.771979 z"
   id="path5"
   style="display:inline;stroke-width:1.97575" />
	<path
   d="m 36.003,97.452 c -1.16,-0.59 -2.56,-0.889 -4.162,-0.889 h -4.929 v 14.864 h 4.929 c 1.604,0 3.006,-0.306 4.167,-0.911 1.181,-0.615 2.09,-1.5 2.701,-2.629 0.601,-1.111 0.906,-2.424 0.906,-3.902 0,-1.491 -0.305,-2.811 -0.906,-3.922 -0.612,-1.13 -1.522,-2.009 -2.706,-2.611 z m -0.581,10.025 c -0.835,0.812 -2.086,1.224 -3.717,1.224 H 29.814 V 99.25 h 1.891 c 1.643,0 2.896,0.414 3.724,1.231 0.838,0.826 1.245,1.973 1.245,3.505 -10e-4,1.53 -0.41,2.672 -1.252,3.491 z m 91.959,-0.88 -0.083,0.465 c -0.105,0.587 -0.382,1.042 -0.846,1.392 -0.482,0.363 -1.075,0.54 -1.813,0.54 -0.808,0 -1.469,-0.25 -2.021,-0.765 -0.435,-0.405 -0.708,-0.999 -0.815,-1.77 h 8.408 L 130.298,106 c 0.058,-0.307 0.088,-0.67 0.088,-1.079 0,-0.989 -0.23,-1.907 -0.684,-2.728 -0.458,-0.829 -1.127,-1.499 -1.986,-1.99 -0.856,-0.489 -1.864,-0.737 -2.998,-0.737 -1.118,0 -2.129,0.247 -3.003,0.734 -0.884,0.492 -1.585,1.21 -2.083,2.135 -0.49,0.911 -0.739,1.984 -0.739,3.19 0,1.207 0.249,2.278 0.74,3.183 0.498,0.917 1.199,1.631 2.082,2.123 0.874,0.487 1.884,0.734 3.003,0.734 0.973,0 1.864,-0.181 2.649,-0.538 0.797,-0.362 1.456,-0.878 1.959,-1.534 0.502,-0.655 0.83,-1.406 0.975,-2.233 l 0.117,-0.662 h -3.037 z m -4.738,-3.801 c 0.56,-0.511 1.239,-0.759 2.075,-0.759 0.519,0 1.005,0.111 1.442,0.331 0.42,0.21 0.743,0.524 0.987,0.96 0.177,0.316 0.282,0.7 0.314,1.147 h -5.648 c 0.116,-0.727 0.39,-1.278 0.83,-1.679 z m -24.864,-2.599 c -0.892,-0.485 -1.911,-0.731 -3.027,-0.731 -1.117,0 -2.135,0.246 -3.026,0.731 -0.902,0.49 -1.623,1.206 -2.142,2.129 -0.514,0.913 -0.774,1.989 -0.774,3.199 0,1.211 0.261,2.285 0.775,3.191 0.519,0.915 1.239,1.627 2.14,2.117 0.892,0.485 1.91,0.731 3.027,0.731 1.116,0 2.135,-0.246 3.027,-0.731 0.903,-0.49 1.62,-1.204 2.133,-2.12 0.506,-0.906 0.763,-1.979 0.763,-3.189 0,-1.208 -0.256,-2.283 -0.762,-3.196 -0.513,-0.923 -1.231,-1.64 -2.134,-2.131 z m -0.451,7.224 c -0.28,0.499 -0.632,0.857 -1.078,1.093 -0.46,0.244 -0.95,0.363 -1.499,0.363 -0.548,0 -1.038,-0.119 -1.499,-0.364 -0.445,-0.236 -0.798,-0.593 -1.078,-1.091 -0.281,-0.503 -0.425,-1.142 -0.425,-1.897 0,-0.768 0.143,-1.413 0.425,-1.915 0.28,-0.499 0.632,-0.856 1.078,-1.092 0.461,-0.245 0.951,-0.364 1.499,-0.364 0.547,0 1.038,0.119 1.499,0.364 0.445,0.235 0.797,0.593 1.077,1.091 0.282,0.504 0.425,1.148 0.425,1.916 0.001,0.754 -0.142,1.392 -0.424,1.896 z M 49.415,100.88 c -0.187,-0.191 -0.392,-0.367 -0.615,-0.528 -0.816,-0.588 -1.815,-0.886 -2.97,-0.886 -1.047,0 -1.997,0.249 -2.822,0.742 -0.829,0.495 -1.488,1.215 -1.958,2.139 -0.461,0.907 -0.695,1.976 -0.695,3.178 0,1.203 0.234,2.269 0.696,3.17 0.47,0.918 1.128,1.633 1.957,2.127 0.826,0.493 1.775,0.742 2.822,0.742 1.156,0 2.155,-0.298 2.97,-0.886 0.223,-0.161 0.428,-0.337 0.615,-0.528 v 1.277 h 2.902 V 99.602 h -2.902 z m -0.402,6.436 c -0.265,0.501 -0.619,0.878 -1.083,1.15 -0.468,0.276 -0.989,0.41 -1.594,0.41 -0.937,0 -1.66,-0.283 -2.21,-0.865 -0.558,-0.592 -0.83,-1.406 -0.83,-2.487 0,-1.081 0.271,-1.894 0.83,-2.486 0.55,-0.582 1.273,-0.865 2.21,-0.865 0.606,0 1.129,0.132 1.598,0.402 0.461,0.265 0.814,0.641 1.077,1.145 0.268,0.513 0.403,1.12 0.403,1.804 10e-4,0.683 -0.134,1.286 -0.401,1.792 z m 68.512,-1.294 c 0.428,0.517 0.645,1.202 0.645,2.036 0,1.041 -0.399,1.902 -1.187,2.557 -0.757,0.63 -1.76,0.949 -2.982,0.949 -1.393,0 -2.557,-0.347 -3.459,-1.03 -0.926,-0.703 -1.478,-1.688 -1.641,-2.929 l -0.084,-0.638 h 2.869 l 0.051,0.509 c 0.05,0.497 0.259,0.887 0.639,1.194 0.401,0.322 0.932,0.48 1.624,0.48 0.47,0 0.814,-0.106 1.053,-0.322 0.225,-0.204 0.331,-0.461 0.331,-0.809 0,-0.349 -0.117,-0.507 -0.205,-0.595 -0.188,-0.188 -0.42,-0.33 -0.706,-0.432 -0.342,-0.122 -0.825,-0.253 -1.434,-0.39 -0.814,-0.187 -1.479,-0.378 -1.978,-0.569 -0.564,-0.217 -1.048,-0.564 -1.44,-1.032 -0.416,-0.499 -0.627,-1.161 -0.627,-1.97 0,-1.067 0.402,-1.944 1.196,-2.606 0.764,-0.637 1.797,-0.959 3.07,-0.959 1.341,0 2.445,0.364 3.28,1.081 0.837,0.718 1.35,1.691 1.526,2.889 l 0.095,0.646 h -2.848 l -0.061,-0.496 c -0.062,-0.503 -0.261,-0.902 -0.61,-1.22 -0.343,-0.313 -0.808,-0.466 -1.422,-0.466 -0.495,0 -0.873,0.109 -1.123,0.323 -0.231,0.197 -0.338,0.454 -0.338,0.807 0,0.314 0.112,0.462 0.196,0.546 0.181,0.181 0.403,0.316 0.682,0.411 0.338,0.117 0.814,0.246 1.412,0.383 0.813,0.186 1.485,0.381 1.996,0.579 0.577,0.223 1.074,0.584 1.48,1.073 z M 60.306,99.427 h 0.565 v 3.058 h -1.11 c -0.876,0 -1.562,0.211 -2.1,0.645 -0.494,0.398 -0.744,1.105 -0.744,2.103 v 6.195 H 54.015 V 99.602 h 2.902 v 1.025 c 0.209,-0.188 0.436,-0.357 0.682,-0.505 0.76,-0.461 1.671,-0.695 2.707,-0.695 z m 47.851,0 h 0.564 v 3.058 h -1.11 c -0.875,0 -1.562,0.211 -2.1,0.645 -0.494,0.398 -0.745,1.105 -0.745,2.103 v 6.195 h -2.901 V 99.602 h 2.901 v 1.025 c 0.209,-0.188 0.437,-0.357 0.682,-0.505 0.762,-0.461 1.673,-0.695 2.709,-0.695 z M 84.699,96.563 h 2.921 v 14.864 h -2.921 v -6.351 h -5.846 v 6.351 H 75.951 V 96.563 h 2.902 v 5.943 h 5.846 z m -18.702,8.92 5.427,5.944 h -3.762 l -3.266,-3.841 v 3.841 H 61.494 V 95.881 h 2.902 v 7.428 l 3.211,-3.706 h 3.689 z"
   id="path6"
   style="display:none" />
	<g
   id="g17"
   style="display:none">
		<path
   class="st0"
   d="m 31.705,98.892 h -2.248 v 10.167 h 2.248 c 1.728,0 3.063,-0.446 3.967,-1.325 0.915,-0.89 1.36,-2.116 1.36,-3.748 0,-1.633 -0.442,-2.863 -1.351,-3.76 -0.899,-0.885 -2.236,-1.334 -3.976,-1.334 z m 3.467,8.329 c -0.766,0.745 -1.933,1.122 -3.468,1.122 h -1.533 v -8.735 h 1.533 c 1.545,0 2.714,0.379 3.473,1.128 0.766,0.755 1.138,1.818 1.138,3.25 0,1.428 -0.374,2.486 -1.143,3.235 z"
   id="path7" />
		<path
   class="st0"
   d="M 36.165,97.133 C 34.955,96.517 33.5,96.205 31.84,96.205 h -5.287 v 15.58 h 5.287 c 1.663,0 3.121,-0.32 4.332,-0.951 1.246,-0.649 2.204,-1.583 2.85,-2.776 0.63,-1.164 0.949,-2.534 0.949,-4.072 0,-1.551 -0.319,-2.928 -0.949,-4.092 -0.646,-1.197 -1.607,-2.125 -2.857,-2.761 z m 2.229,10.584 c -0.576,1.065 -1.435,1.9 -2.551,2.482 -1.109,0.578 -2.455,0.87 -4.002,0.87 H 27.27 V 96.921 h 4.571 c 1.546,0 2.891,0.286 4,0.85 1.117,0.569 1.976,1.397 2.553,2.463 0.572,1.058 0.863,2.32 0.863,3.751 -10e-4,1.418 -0.291,2.674 -0.863,3.732 z"
   id="path8" />
		<path
   class="st0"
   d="m 130.618,106.239 0.033,-0.172 c 0.062,-0.329 0.094,-0.714 0.094,-1.146 0,-1.05 -0.245,-2.026 -0.729,-2.901 -0.491,-0.888 -1.205,-1.604 -2.122,-2.128 -0.91,-0.52 -1.979,-0.784 -3.176,-0.784 -1.18,0 -2.249,0.262 -3.177,0.779 -0.945,0.526 -1.693,1.293 -2.224,2.278 -0.519,0.964 -0.782,2.094 -0.782,3.36 0,1.268 0.264,2.397 0.784,3.353 0.531,0.978 1.279,1.74 2.222,2.265 0.927,0.517 1.996,0.779 3.177,0.779 1.025,0 1.966,-0.192 2.797,-0.57 0.851,-0.386 1.556,-0.939 2.095,-1.642 0.538,-0.702 0.889,-1.506 1.044,-2.389 l 0.19,-1.082 z m -9.225,-0.138 0.056,0.407 c 0.118,0.854 0.429,1.521 0.925,1.983 0.622,0.579 1.363,0.86 2.265,0.86 0.819,0 1.483,-0.2 2.028,-0.612 0.54,-0.407 0.862,-0.935 0.983,-1.615 l 0.03,-0.17 h 2.309 l -0.043,0.243 c -0.135,0.769 -0.44,1.468 -0.907,2.077 -0.467,0.609 -1.08,1.089 -1.823,1.426 -0.737,0.335 -1.579,0.505 -2.501,0.505 -1.057,0 -2.009,-0.232 -2.828,-0.689 -0.823,-0.458 -1.476,-1.124 -1.942,-1.981 -0.462,-0.851 -0.697,-1.864 -0.697,-3.012 0,-1.146 0.234,-2.162 0.696,-3.02 0.465,-0.863 1.118,-1.533 1.942,-1.992 0.82,-0.457 1.771,-0.688 2.828,-0.688 1.071,0 2.02,0.232 2.821,0.689 0.802,0.458 1.424,1.081 1.851,1.853 0.425,0.768 0.64,1.627 0.64,2.555 0,0.387 -0.028,0.727 -0.082,1.012 l -0.032,0.168 h -8.519 z m 5.586,0.716 -0.032,0.182 c -0.09,0.501 -0.315,0.872 -0.709,1.169 -0.417,0.314 -0.94,0.467 -1.597,0.467 -0.713,0 -1.294,-0.219 -1.777,-0.669 -0.295,-0.275 -0.505,-0.66 -0.627,-1.15 h 4.742 z"
   id="path9" />
		<path
   class="st0"
   d="m 127.459,103.151 c -0.28,-0.5 -0.653,-0.861 -1.139,-1.105 -0.488,-0.245 -1.027,-0.368 -1.602,-0.368 -0.929,0 -1.687,0.279 -2.316,0.853 -0.504,0.46 -0.812,1.076 -0.941,1.886 l -0.066,0.414 h 6.452 l -0.027,-0.383 c -0.037,-0.499 -0.158,-0.935 -0.361,-1.297 z m -5.201,0.964 c 0.126,-0.44 0.333,-0.788 0.626,-1.055 0.491,-0.448 1.091,-0.666 1.834,-0.666 0.463,0 0.894,0.099 1.282,0.293 0.354,0.177 0.627,0.444 0.836,0.815 0.099,0.177 0.172,0.382 0.219,0.614 h -4.797 z"
   id="path10" />
		<path
   class="st0"
   d="m 96.419,102.201 c -0.514,-0.273 -1.06,-0.405 -1.667,-0.405 -0.607,0 -1.152,0.133 -1.666,0.405 -0.508,0.269 -0.908,0.673 -1.222,1.233 -0.312,0.558 -0.47,1.261 -0.47,2.09 0,0.817 0.158,1.514 0.47,2.072 0.315,0.561 0.714,0.964 1.222,1.232 0.514,0.273 1.059,0.405 1.667,0.405 0.608,0 1.153,-0.132 1.666,-0.405 0.508,-0.269 0.908,-0.673 1.222,-1.234 0.312,-0.558 0.471,-1.255 0.471,-2.071 0,-0.829 -0.158,-1.533 -0.471,-2.091 -0.316,-0.56 -0.715,-0.963 -1.222,-1.231 z m 0.597,5.045 c -0.245,0.438 -0.55,0.749 -0.933,0.951 -0.407,0.216 -0.843,0.321 -1.331,0.321 -0.488,0 -0.923,-0.105 -1.331,-0.322 -0.383,-0.203 -0.688,-0.514 -0.933,-0.95 -0.252,-0.45 -0.379,-1.029 -0.379,-1.722 0,-0.706 0.128,-1.291 0.379,-1.74 0.245,-0.437 0.55,-0.748 0.933,-0.951 0.409,-0.217 0.844,-0.322 1.331,-0.322 0.487,0 0.923,0.105 1.332,0.322 0.382,0.202 0.687,0.513 0.932,0.95 0.252,0.45 0.38,1.036 0.38,1.741 -0.001,0.693 -0.128,1.272 -0.38,1.722 z"
   id="path11" />
		<path
   class="st0"
   d="m 97.95,99.882 c -0.945,-0.514 -2.021,-0.774 -3.198,-0.774 -1.178,0 -2.253,0.261 -3.197,0.774 -0.962,0.523 -1.73,1.286 -2.283,2.268 -0.544,0.967 -0.82,2.102 -0.82,3.374 0,1.274 0.276,2.407 0.821,3.368 0.552,0.974 1.32,1.733 2.28,2.255 0.945,0.514 2.021,0.774 3.198,0.774 1.177,0 2.253,-0.261 3.198,-0.774 0.963,-0.523 1.728,-1.283 2.275,-2.26 0.536,-0.96 0.808,-2.092 0.808,-3.363 0,-1.27 -0.272,-2.404 -0.807,-3.37 -0.545,-0.983 -1.311,-1.747 -2.275,-2.272 z m 1.649,8.656 c -0.479,0.856 -1.149,1.523 -1.991,1.98 -0.838,0.456 -1.799,0.687 -2.856,0.687 -1.057,0 -2.017,-0.231 -2.856,-0.687 -0.842,-0.458 -1.514,-1.123 -2,-1.979 -0.483,-0.852 -0.728,-1.866 -0.728,-3.015 0,-1.148 0.245,-2.165 0.728,-3.023 0.485,-0.862 1.158,-1.532 2.001,-1.99 0.838,-0.456 1.798,-0.687 2.855,-0.687 1.056,0 2.017,0.231 2.856,0.687 0.843,0.458 1.513,1.128 1.991,1.99 0.476,0.858 0.718,1.875 0.718,3.023 0,1.148 -0.242,2.162 -0.718,3.014 z"
   id="path12" />
		<path
   class="st0"
   d="m 46.336,101.815 c -1.04,0 -1.848,0.32 -2.47,0.978 -0.624,0.661 -0.927,1.555 -0.927,2.732 0,1.177 0.303,2.071 0.928,2.732 0.621,0.658 1.429,0.978 2.47,0.978 0.67,0 1.251,-0.15 1.775,-0.459 0.523,-0.307 0.921,-0.73 1.218,-1.292 0.294,-0.558 0.443,-1.217 0.443,-1.959 0,-0.742 -0.149,-1.404 -0.444,-1.97 -0.297,-0.568 -0.694,-0.99 -1.216,-1.29 -0.526,-0.303 -1.107,-0.45 -1.777,-0.45 z m 2.358,2.071 c 0.241,0.462 0.363,1.013 0.363,1.638 0,0.624 -0.121,1.171 -0.361,1.625 -0.233,0.441 -0.543,0.771 -0.948,1.009 v 0 c -0.411,0.242 -0.873,0.36 -1.412,0.36 -0.833,0 -1.471,-0.246 -1.949,-0.753 -0.493,-0.522 -0.732,-1.255 -0.732,-2.241 0,-0.985 0.239,-1.718 0.732,-2.24 0.479,-0.507 1.117,-0.753 1.95,-0.753 0.541,0 1.005,0.116 1.42,0.355 0.399,0.23 0.706,0.557 0.937,1 z"
   id="path13" />
		<path
   class="st0"
   d="m 49.057,100.096 c -0.016,-0.012 -0.032,-0.023 -0.048,-0.034 -0.878,-0.633 -1.947,-0.954 -3.18,-0.954 -1.113,0 -2.124,0.267 -3.005,0.792 -0.888,0.53 -1.593,1.298 -2.094,2.284 -0.487,0.958 -0.734,2.081 -0.734,3.34 0,1.26 0.247,2.381 0.735,3.333 0.501,0.978 1.205,1.742 2.092,2.271 0.881,0.526 1.892,0.793 3.006,0.793 1.232,0 2.302,-0.321 3.179,-0.953 0.016,-0.012 0.032,-0.023 0.048,-0.035 v 0.852 h 3.618 V 99.244 h -3.618 v 0.852 z m 0.716,1.662 V 99.96 h 2.186 v 11.109 h -2.186 v -1.796 l -0.614,0.626 c -0.173,0.176 -0.364,0.341 -0.569,0.488 -0.753,0.543 -1.682,0.818 -2.761,0.818 -0.982,0 -1.87,-0.233 -2.639,-0.692 -0.77,-0.459 -1.383,-1.126 -1.822,-1.983 -0.435,-0.85 -0.656,-1.861 -0.656,-3.007 0,-1.145 0.221,-2.159 0.656,-3.016 0.439,-0.864 1.052,-1.534 1.822,-1.994 0.769,-0.459 1.657,-0.691 2.639,-0.691 1.079,0 2.008,0.275 2.761,0.819 0.205,0.147 0.396,0.311 0.568,0.487 z"
   id="path14" />
		<path
   class="st0"
   d="m 116.175,104.615 c -0.152,-0.059 -0.318,-0.117 -0.496,-0.175 h 2.897 l -0.155,-1.056 c -0.188,-1.287 -0.742,-2.332 -1.646,-3.109 -0.902,-0.775 -2.084,-1.167 -3.513,-1.167 -1.36,0 -2.47,0.351 -3.299,1.042 -0.375,0.313 -0.667,0.672 -0.883,1.069 V 99.07 h -0.922 c -1.102,0 -2.076,0.251 -2.894,0.747 -0.047,0.028 -0.093,0.057 -0.139,0.087 v -0.659 h -3.617 v 12.541 h 3.617 v -6.553 c 0,-0.883 0.206,-1.497 0.612,-1.824 0.472,-0.38 1.086,-0.565 1.876,-0.565 h 1.035 c -0.003,0.063 -0.009,0.124 -0.009,0.188 0,0.895 0.239,1.635 0.711,2.199 0.431,0.516 0.965,0.898 1.586,1.137 0.211,0.081 0.451,0.162 0.719,0.243 h -3.243 l 0.137,1.042 c 0.175,1.34 0.774,2.405 1.78,3.168 0.965,0.732 2.202,1.103 3.675,1.103 1.308,0 2.388,-0.347 3.211,-1.031 0.873,-0.727 1.316,-1.68 1.316,-2.833 0,-0.919 -0.245,-1.681 -0.728,-2.264 -0.448,-0.54 -0.995,-0.936 -1.628,-1.181 z m -7.812,-2.488 h -0.752 c -0.96,0 -1.72,0.237 -2.325,0.724 -0.583,0.47 -0.878,1.271 -0.878,2.381 v 5.837 h -2.186 V 99.96 h 2.186 v 1.47 l 0.597,-0.537 c 0.193,-0.173 0.404,-0.33 0.628,-0.465 0.705,-0.427 1.554,-0.643 2.524,-0.643 h 0.206 z m 8.391,8.213 c -0.691,0.575 -1.617,0.866 -2.753,0.866 -1.313,0 -2.404,-0.322 -3.242,-0.957 -0.847,-0.642 -1.353,-1.547 -1.502,-2.69 l -0.031,-0.233 h 2.137 l 0.019,0.186 c 0.059,0.589 0.318,1.072 0.771,1.437 0.467,0.376 1.072,0.558 1.848,0.558 0.563,0 0.986,-0.136 1.293,-0.414 0.302,-0.274 0.449,-0.625 0.449,-1.074 0,-0.362 -0.101,-0.639 -0.31,-0.848 -0.226,-0.226 -0.501,-0.395 -0.839,-0.516 -0.358,-0.128 -0.855,-0.263 -1.474,-0.402 -0.8,-0.183 -1.449,-0.37 -1.929,-0.554 -0.506,-0.194 -0.941,-0.506 -1.293,-0.927 -0.361,-0.432 -0.544,-1.018 -0.544,-1.74 0,-0.956 0.359,-1.74 1.067,-2.331 0.698,-0.581 1.653,-0.876 2.841,-0.876 1.253,0 2.278,0.335 3.047,0.995 0.769,0.66 1.242,1.559 1.404,2.669 l 0.035,0.236 h -2.117 l -0.022,-0.182 c -0.073,-0.592 -0.31,-1.063 -0.724,-1.441 -0.412,-0.377 -0.956,-0.56 -1.663,-0.56 -0.583,0 -1.039,0.138 -1.356,0.409 -0.312,0.267 -0.464,0.62 -0.464,1.08 0,0.335 0.098,0.597 0.3,0.799 0.221,0.221 0.488,0.383 0.818,0.496 0.35,0.121 0.838,0.253 1.449,0.393 0.794,0.182 1.449,0.372 1.947,0.564 0.518,0.2 0.966,0.526 1.332,0.967 0.374,0.451 0.563,1.059 0.563,1.807 0.002,0.931 -0.355,1.699 -1.057,2.283 z m -4.732,-3.624 c 0.287,0.079 0.601,0.157 0.939,0.235 0.593,0.133 1.061,0.26 1.392,0.378 0.236,0.084 0.424,0.198 0.573,0.348 0.03,0.03 0.101,0.101 0.101,0.342 0,0.246 -0.064,0.408 -0.214,0.544 -0.17,0.154 -0.436,0.229 -0.812,0.229 -0.606,0 -1.064,-0.131 -1.399,-0.4 -0.306,-0.247 -0.468,-0.549 -0.508,-0.951 z m 2.95,-2.485 c -0.262,-0.071 -0.543,-0.141 -0.842,-0.209 -0.587,-0.134 -1.049,-0.26 -1.376,-0.372 -0.225,-0.077 -0.403,-0.184 -0.545,-0.326 -0.029,-0.029 -0.091,-0.091 -0.091,-0.293 0,-0.312 0.108,-0.445 0.213,-0.536 0.181,-0.155 0.489,-0.237 0.891,-0.237 0.52,0 0.906,0.122 1.18,0.373 0.286,0.261 0.444,0.579 0.496,0.999 z"
   id="path15" />
		<path
   class="st0"
   d="m 84.341,102.147 h -5.13 v -5.943 h -3.618 v 15.58 h 3.618 v -6.351 h 5.13 v 6.351 h 3.637 v -15.58 h -3.637 z m 0.716,-5.226 h 2.205 v 14.149 h -2.205 v -6.351 h -6.562 v 6.351 H 76.309 V 96.921 h 2.186 v 5.943 h 6.562 z"
   id="path16" />
		<path
   class="st0"
   d="m 72.101,99.244 h -4.657 l -2.689,3.105 v -6.826 h -3.618 v 3.546 h -0.831 c -1.102,0 -2.076,0.251 -2.894,0.747 -0.047,0.028 -0.093,0.057 -0.139,0.087 v -0.659 h -3.618 v 12.541 h 3.618 v -6.553 c 0,-0.883 0.206,-1.497 0.611,-1.824 0.472,-0.381 1.086,-0.565 1.876,-0.565 h 1.376 v 8.942 h 3.618 v -3.225 l 2.743,3.225 h 4.739 l -5.756,-6.304 z m -11.589,2.883 H 59.76 c -0.96,0 -1.721,0.237 -2.325,0.724 -0.582,0.47 -0.878,1.271 -0.878,2.381 v 5.837 H 54.371 V 99.96 h 2.186 v 1.472 l 0.598,-0.539 c 0.191,-0.173 0.402,-0.329 0.627,-0.465 v 0 c 0.705,-0.427 1.554,-0.643 2.523,-0.643 h 0.207 z m 10.101,8.942 h -2.785 l -3.789,-4.456 v 4.456 h -2.186 v -14.83 h 2.186 v 8.03 l 3.732,-4.308 h 2.721 l -4.978,5.524 z"
   id="path17" />
	</g>
	<path
   class="st2"
   d="m 128.519,116.343 c 0.84,0 1.518,0.269 2.034,0.807 0.516,0.538 0.774,1.314 0.774,2.329 v 4.186 h -1.194 v -4.081 c 0,-0.717 -0.184,-1.268 -0.551,-1.653 -0.367,-0.385 -0.866,-0.577 -1.496,-0.577 -0.656,0 -1.181,0.212 -1.575,0.636 -0.394,0.424 -0.59,1.043 -0.59,1.857 v 3.818 h -1.194 v -7.204 h 1.194 v 1.706 c 0.184,-0.586 0.51,-1.037 0.978,-1.352 0.468,-0.315 1.008,-0.472 1.62,-0.472 z m -8.961,1.076 c -0.429,0 -0.824,0.096 -1.187,0.289 -0.363,0.192 -0.656,0.488 -0.879,0.886 -0.223,0.398 -0.335,0.89 -0.335,1.476 0,0.577 0.112,1.065 0.335,1.463 0.223,0.398 0.516,0.693 0.879,0.886 0.363,0.192 0.759,0.289 1.187,0.289 0.428,0 0.824,-0.096 1.187,-0.289 0.363,-0.192 0.656,-0.488 0.879,-0.886 0.223,-0.398 0.335,-0.886 0.335,-1.463 0,-0.586 -0.112,-1.078 -0.335,-1.476 -0.223,-0.398 -0.516,-0.693 -0.879,-0.886 -0.363,-0.193 -0.759,-0.289 -1.187,-0.289 z m 0,-1.05 c 0.691,0 1.31,0.149 1.857,0.446 0.547,0.297 0.975,0.726 1.286,1.286 0.311,0.56 0.466,1.216 0.466,1.968 0,0.752 -0.155,1.406 -0.466,1.962 -0.311,0.555 -0.739,0.982 -1.286,1.279 -0.547,0.297 -1.166,0.446 -1.857,0.446 -0.691,0 -1.31,-0.149 -1.857,-0.446 -0.547,-0.297 -0.978,-0.724 -1.292,-1.279 -0.315,-0.555 -0.472,-1.209 -0.472,-1.962 0,-0.752 0.157,-1.408 0.472,-1.968 0.315,-0.56 0.746,-0.988 1.292,-1.286 0.547,-0.297 1.166,-0.446 1.857,-0.446 z m -6.377,0.092 h 1.194 v 7.204 h -1.194 z m -0.21,-2.113 c 0,-0.219 0.074,-0.396 0.223,-0.531 0.149,-0.135 0.346,-0.203 0.59,-0.203 0.245,0 0.442,0.068 0.59,0.203 0.149,0.136 0.223,0.313 0.223,0.531 0,0.219 -0.074,0.396 -0.223,0.531 -0.149,0.136 -0.346,0.203 -0.59,0.203 -0.245,0 -0.442,-0.068 -0.59,-0.203 -0.148,-0.135 -0.223,-0.312 -0.223,-0.531 z m -1.982,8.267 h 0.735 v 1.05 h -0.892 c -0.735,0 -1.284,-0.175 -1.647,-0.525 -0.363,-0.35 -0.545,-0.936 -0.545,-1.758 v -3.884 h -1.076 v -1.037 h 1.076 v -1.798 h 1.207 v 1.798 h 1.863 v 1.037 h -1.863 v 3.91 c 0,0.464 0.085,0.781 0.256,0.951 0.171,0.17 0.466,0.256 0.886,0.256 z m -8.253,-5.183 c -0.735,0 -1.323,0.234 -1.765,0.702 -0.442,0.468 -0.663,1.113 -0.663,1.935 0,0.822 0.221,1.467 0.663,1.935 0.442,0.468 1.03,0.702 1.765,0.702 0.472,0 0.894,-0.109 1.266,-0.328 0.372,-0.219 0.663,-0.527 0.873,-0.925 0.21,-0.398 0.315,-0.859 0.315,-1.384 0,-0.525 -0.105,-0.988 -0.315,-1.391 -0.21,-0.402 -0.501,-0.711 -0.873,-0.925 -0.372,-0.214 -0.794,-0.321 -1.266,-0.321 z m -0.341,-1.063 c 0.7,0 1.292,0.175 1.778,0.525 0.485,0.35 0.824,0.818 1.017,1.404 v -1.837 h 1.194 v 7.204 h -1.194 v -1.837 c -0.192,0.586 -0.531,1.054 -1.017,1.404 -0.485,0.35 -1.078,0.525 -1.778,0.525 -0.639,0 -1.207,-0.149 -1.706,-0.446 -0.499,-0.297 -0.89,-0.724 -1.174,-1.279 -0.284,-0.555 -0.426,-1.209 -0.426,-1.962 0,-0.752 0.142,-1.408 0.426,-1.968 0.284,-0.56 0.676,-0.988 1.174,-1.286 0.499,-0.298 1.067,-0.447 1.706,-0.447 z m -4.383,1.063 -3.726,5.222 h 3.858 v 1.01 h -5.17 v -0.958 l 3.674,-5.235 h -3.569 v -1.01 h 4.934 v 0.971 z m -7.531,-0.971 h 1.194 v 7.204 h -1.194 z m -0.21,-2.113 c 0,-0.219 0.074,-0.396 0.223,-0.531 0.149,-0.136 0.346,-0.203 0.59,-0.203 0.245,0 0.442,0.068 0.59,0.203 0.148,0.135 0.223,0.313 0.223,0.531 0,0.219 -0.074,0.396 -0.223,0.531 -0.149,0.135 -0.346,0.203 -0.59,0.203 -0.245,0 -0.442,-0.068 -0.59,-0.203 -0.149,-0.135 -0.223,-0.312 -0.223,-0.531 z m -2.9,-0.393 h 1.194 v 9.71 h -1.194 z m -3.11,2.506 h 1.194 v 7.204 h -1.194 z m -0.21,-2.113 c 0,-0.219 0.074,-0.396 0.223,-0.531 0.149,-0.135 0.346,-0.203 0.59,-0.203 0.245,0 0.442,0.068 0.59,0.203 0.149,0.136 0.223,0.313 0.223,0.531 0,0.219 -0.074,0.396 -0.223,0.531 -0.149,0.136 -0.346,0.203 -0.59,0.203 -0.245,0 -0.442,-0.068 -0.59,-0.203 -0.148,-0.135 -0.223,-0.312 -0.223,-0.531 z m -4.999,3.084 c -0.464,0 -0.884,0.107 -1.26,0.321 -0.376,0.214 -0.669,0.523 -0.879,0.925 -0.21,0.402 -0.315,0.866 -0.315,1.391 0,0.525 0.105,0.986 0.315,1.384 0.21,0.398 0.503,0.706 0.879,0.925 0.376,0.219 0.796,0.328 1.26,0.328 0.744,0 1.336,-0.234 1.778,-0.702 0.442,-0.468 0.663,-1.113 0.663,-1.935 0,-0.822 -0.221,-1.467 -0.663,-1.935 -0.442,-0.468 -1.034,-0.702 -1.778,-0.702 z m 0.341,-1.063 c 0.639,0 1.207,0.149 1.706,0.446 0.499,0.297 0.89,0.726 1.174,1.286 0.284,0.56 0.426,1.216 0.426,1.968 0,0.752 -0.142,1.406 -0.426,1.962 -0.284,0.555 -0.676,0.982 -1.174,1.279 -0.499,0.297 -1.067,0.446 -1.706,0.446 -0.7,0 -1.292,-0.177 -1.778,-0.531 -0.485,-0.354 -0.82,-0.82 -1.004,-1.397 v 1.837 h -1.194 v -9.71 h 1.194 v 4.343 c 0.184,-0.577 0.518,-1.043 1.004,-1.397 0.486,-0.355 1.078,-0.532 1.778,-0.532 z m -9.526,1.063 c -0.735,0 -1.323,0.234 -1.765,0.702 -0.442,0.468 -0.663,1.113 -0.663,1.935 0,0.822 0.221,1.467 0.663,1.935 0.442,0.468 1.03,0.702 1.765,0.702 0.472,0 0.894,-0.109 1.266,-0.328 0.372,-0.219 0.663,-0.527 0.873,-0.925 0.21,-0.398 0.315,-0.859 0.315,-1.384 0,-0.525 -0.105,-0.988 -0.315,-1.391 -0.21,-0.402 -0.501,-0.711 -0.873,-0.925 -0.372,-0.214 -0.794,-0.321 -1.266,-0.321 z m -0.341,-1.063 c 0.7,0 1.292,0.175 1.778,0.525 0.485,0.35 0.824,0.818 1.017,1.404 v -1.837 h 1.194 v 7.204 h -1.194 v -1.837 c -0.192,0.586 -0.531,1.054 -1.017,1.404 -0.485,0.35 -1.078,0.525 -1.778,0.525 -0.639,0 -1.207,-0.149 -1.706,-0.446 -0.499,-0.297 -0.89,-0.724 -1.174,-1.279 -0.284,-0.555 -0.426,-1.209 -0.426,-1.962 0,-0.752 0.142,-1.408 0.426,-1.968 0.284,-0.56 0.676,-0.988 1.174,-1.286 0.499,-0.298 1.067,-0.447 1.706,-0.447 z m -5.144,6.246 h 0.735 v 1.05 h -0.892 c -0.735,0 -1.284,-0.175 -1.647,-0.525 -0.363,-0.35 -0.545,-0.936 -0.545,-1.758 v -3.884 h -1.076 v -1.037 h 1.076 v -1.798 h 1.207 v 1.798 h 1.863 v 1.037 H 63.24 v 3.91 c 0,0.464 0.085,0.781 0.256,0.951 0.171,0.17 0.466,0.256 0.886,0.256 z m -4.303,-1.352 c 0,0.437 -0.105,0.844 -0.315,1.22 -0.21,0.376 -0.529,0.682 -0.958,0.919 -0.429,0.236 -0.958,0.354 -1.588,0.354 -0.612,0 -1.157,-0.112 -1.634,-0.335 -0.477,-0.223 -0.857,-0.529 -1.142,-0.918 -0.284,-0.389 -0.448,-0.833 -0.492,-1.332 h 1.273 c 0.026,0.262 0.116,0.518 0.269,0.768 0.153,0.249 0.372,0.455 0.656,0.617 0.284,0.162 0.628,0.243 1.03,0.243 0.525,0 0.927,-0.14 1.207,-0.42 0.28,-0.28 0.42,-0.639 0.42,-1.076 0,-0.376 -0.098,-0.682 -0.295,-0.918 -0.197,-0.236 -0.44,-0.422 -0.728,-0.558 -0.289,-0.136 -0.682,-0.282 -1.181,-0.44 -0.586,-0.192 -1.056,-0.374 -1.411,-0.545 -0.354,-0.171 -0.656,-0.426 -0.905,-0.768 -0.249,-0.341 -0.374,-0.792 -0.374,-1.352 0,-0.481 0.116,-0.905 0.348,-1.273 0.232,-0.367 0.564,-0.652 0.997,-0.853 0.433,-0.201 0.943,-0.302 1.529,-0.302 0.91,0 1.631,0.221 2.165,0.663 0.534,0.442 0.844,1.004 0.932,1.686 h -1.286 c -0.07,-0.367 -0.258,-0.691 -0.564,-0.971 -0.306,-0.28 -0.722,-0.42 -1.247,-0.42 -0.481,0 -0.866,0.125 -1.155,0.374 -0.289,0.249 -0.433,0.601 -0.433,1.056 0,0.359 0.094,0.65 0.282,0.873 0.188,0.223 0.422,0.398 0.702,0.525 0.28,0.127 0.665,0.269 1.155,0.426 0.595,0.192 1.074,0.376 1.437,0.551 0.363,0.175 0.671,0.44 0.925,0.794 0.254,0.356 0.381,0.826 0.381,1.412 z m -12.203,-7.308 h 1.194 v 9.71 h -1.194 z m -3.11,2.506 h 1.194 v 7.204 h -1.194 z m -0.21,-2.113 c 0,-0.219 0.074,-0.396 0.223,-0.531 0.149,-0.136 0.346,-0.203 0.59,-0.203 0.245,0 0.442,0.068 0.59,0.203 0.149,0.136 0.223,0.313 0.223,0.531 0,0.219 -0.074,0.396 -0.223,0.531 -0.149,0.136 -0.346,0.203 -0.59,0.203 -0.245,0 -0.442,-0.068 -0.59,-0.203 -0.149,-0.135 -0.223,-0.312 -0.223,-0.531 z m -4.96,3.071 c -0.429,0 -0.824,0.096 -1.187,0.289 -0.363,0.192 -0.656,0.488 -0.879,0.886 -0.223,0.398 -0.335,0.89 -0.335,1.476 0,0.577 0.112,1.065 0.335,1.463 0.223,0.398 0.516,0.693 0.879,0.886 0.363,0.192 0.759,0.289 1.187,0.289 0.429,0 0.824,-0.096 1.187,-0.289 0.363,-0.192 0.656,-0.488 0.879,-0.886 0.223,-0.398 0.335,-0.886 0.335,-1.463 0,-0.586 -0.112,-1.078 -0.335,-1.476 -0.223,-0.398 -0.516,-0.693 -0.879,-0.886 -0.362,-0.193 -0.758,-0.289 -1.187,-0.289 z m 0,-1.05 c 0.691,0 1.31,0.149 1.857,0.446 0.547,0.297 0.975,0.726 1.286,1.286 0.311,0.56 0.466,1.216 0.466,1.968 0,0.752 -0.155,1.406 -0.466,1.962 -0.311,0.555 -0.739,0.982 -1.286,1.279 -0.547,0.297 -1.166,0.446 -1.857,0.446 -0.691,0 -1.31,-0.149 -1.857,-0.446 -0.547,-0.297 -0.978,-0.724 -1.292,-1.279 -0.315,-0.555 -0.472,-1.209 -0.472,-1.962 0,-0.752 0.157,-1.408 0.472,-1.968 0.315,-0.56 0.746,-0.988 1.292,-1.286 0.547,-0.297 1.166,-0.446 1.857,-0.446 z m -4.868,4.894 c 0,0.437 -0.105,0.844 -0.315,1.22 -0.21,0.376 -0.529,0.682 -0.958,0.919 -0.429,0.236 -0.958,0.354 -1.588,0.354 -0.612,0 -1.157,-0.112 -1.634,-0.335 -0.477,-0.223 -0.857,-0.529 -1.142,-0.918 -0.284,-0.389 -0.448,-0.833 -0.492,-1.332 h 1.273 c 0.026,0.262 0.116,0.518 0.269,0.768 0.153,0.249 0.372,0.455 0.656,0.617 0.284,0.162 0.628,0.243 1.03,0.243 0.525,0 0.927,-0.14 1.207,-0.42 0.28,-0.28 0.42,-0.639 0.42,-1.076 0,-0.376 -0.098,-0.682 -0.295,-0.918 -0.197,-0.236 -0.44,-0.422 -0.728,-0.558 -0.289,-0.136 -0.682,-0.282 -1.181,-0.44 -0.586,-0.192 -1.056,-0.374 -1.411,-0.545 -0.354,-0.171 -0.656,-0.426 -0.905,-0.768 -0.249,-0.341 -0.374,-0.792 -0.374,-1.352 0,-0.481 0.116,-0.905 0.348,-1.273 0.232,-0.367 0.564,-0.652 0.997,-0.853 0.433,-0.201 0.943,-0.302 1.529,-0.302 0.91,0 1.631,0.221 2.165,0.663 0.534,0.442 0.844,1.004 0.932,1.686 h -1.286 c -0.07,-0.367 -0.258,-0.691 -0.564,-0.971 -0.306,-0.28 -0.722,-0.42 -1.247,-0.42 -0.481,0 -0.866,0.125 -1.155,0.374 -0.289,0.249 -0.433,0.601 -0.433,1.056 0,0.359 0.094,0.65 0.282,0.873 0.188,0.223 0.422,0.398 0.702,0.525 0.28,0.127 0.665,0.269 1.155,0.426 0.595,0.192 1.074,0.376 1.437,0.551 0.363,0.175 0.671,0.44 0.925,0.794 0.254,0.356 0.381,0.826 0.381,1.412 z"
   id="path18"
   style="display:none" />
</g>
<text
   xml:space="preserve"
   style="font-size:14.6667px;font-family:'Tw Cen MT Condensed Extra Bold';-inkscape-font-specification:'Tw Cen MT Condensed Extra Bold, ';text-align:start;writing-mode:lr-tb;direction:ltr;text-anchor:start;fill:#1a1a1a;stroke-width:1.00157"
   x="109.84315"
   y="16.731216"
   id="text2"><tspan
     sodipodi:role="line"
     id="tspan1"
     x="109.84315"
     y="16.731216" /></text></svg>
