<?xml version="1.0" encoding="UTF-8" standalone="no"?>
<!-- Generator: Adobe Illustrator 28.2.0, SVG Export Plug-In . SVG Version: 6.00 Build 0)  -->

<svg
   version="1.1"
   id="Layer_1"
   x="0px"
   y="0px"
   width="112.5852"
   height="111.64132"
   viewBox="0 0 112.5852 111.64132"
   xml:space="preserve"
   sodipodi:docname="logo.svg"
   inkscape:version="1.4.2 (f4327f4, 2025-05-13)"
   inkscape:export-filename="..\PortalSite\images\logo.png"
   inkscape:export-xdpi="96"
   inkscape:export-ydpi="96"
   xmlns:inkscape="http://www.inkscape.org/namespaces/inkscape"
   xmlns:sodipodi="http://sodipodi.sourceforge.net/DTD/sodipodi-0.dtd"
   xmlns="http://www.w3.org/2000/svg"
   xmlns:svg="http://www.w3.org/2000/svg"><defs
   id="defs18" /><sodipodi:namedview
   id="namedview18"
   pagecolor="#ffffff"
   bordercolor="#000000"
   borderopacity="0.25"
   inkscape:showpageshadow="2"
   inkscape:pageopacity="0.0"
   inkscape:pagecheckerboard="0"
   inkscape:deskcolor="#d1d1d1"
   inkscape:zoom="2.0130446"
   inkscape:cx="-128.41246"
   inkscape:cy="36.511859"
   inkscape:window-width="1902"
   inkscape:window-height="1041"
   inkscape:window-x="3842"
   inkscape:window-y="0"
   inkscape:window-maximized="0"
   inkscape:current-layer="g18" />
<style
   type="text/css"
   id="style1">
	.st0{fill:#E0D7C5;}
	.st1{fill:#BF1A20;}
	.st2{opacity:0.9725;fill:#BF1A20;}
</style>
<g
   id="g18"
   inkscape:export-filename="..\PortalSite\images\logo.png"
   inkscape:export-xdpi="96"
   inkscape:export-ydpi="96"
   style="display:inline"
   transform="translate(-197.43684,-38.832039)">
	
	
	
	
	<path
   d="m 309.93036,109.14878 c -0.34969,-2.33603 -1.2841,-3.85374 -1.86882,-4.78816 -3.62014,-5.722567 -12.14595,-17.751008 -13.66366,-19.970946 -0.46721,-0.5833 -1.05051,-1.517713 -1.51772,-2.803238 -0.5833,-1.401619 -0.8169,-2.803239 -0.93441,-3.152936 -0.11609,-0.5833 -0.11609,-0.5833 -0.2336,-1.050506 0,-0.233603 -0.35112,-1.868826 -1.16802,-3.270445 -0.70081,-1.28411 -1.51771,-2.102429 -2.10243,-2.803238 -4.90566,-4.672064 -12.61315,-7.941093 -13.19645,-12.028441 -0.46721,-3.620142 4.90566,-4.672064 8.40829,-12.145951 1.40162,-3.036841 1.86883,-5.956174 2.10243,-8.058602 0,-0.233603 -0.2336,-0.351113 -0.34969,-0.116094 -3.38654,3.737651 -6.77308,5.72257 -9.10911,6.890586 -6.53948,3.270445 -14.01478,3.737652 -21.13896,4.905668 -3.38654,0.5833 -6.89059,1.051922 -10.27713,1.868825 -2.68573,0.5833 -5.48897,1.401619 -8.0586,2.336032 -5.72257,1.98492 -11.32905,4.788158 -15.76609,8.875506 -5.13786,4.672064 -10.27713,11.794838 -12.49565,15.766092 -0.11751,0.233603 0.11751,0.467207 0.35111,0.351113 2.10243,-1.28411 5.60506,-3.620142 8.52581,-5.021761 0.11751,-0.117509 0.2336,0.116094 0.11751,0.233603 -3.85375,2.569635 -7.94109,6.189777 -11.44514,10.977935 -3.85375,5.372873 -5.95618,10.628237 -7.12419,14.598078 -0.1161,0.4672 0.35111,0.8169 0.70081,0.4672 1.0505,-0.8169 2.10243,-1.635218 3.38654,-2.452121 0.11609,-0.116094 0.2336,0 0.11609,0.117509 -2.56963,5.606482 -4.67206,11.794842 -5.48897,19.503742 -0.70081,7.00668 0.1161,13.08037 1.05051,17.75243 0.46721,2.10243 2.56963,3.50405 4.78816,2.91933 3.38654,-0.8169 7.47388,-1.40162 12.26204,-1.28411 15.9997,0.70081 22.65668,10.04353 36.90506,12.26205 5.37287,0.8169 12.72925,0.8169 22.07337,-2.68573 1.86883,-0.70081 1.98492,-3.38654 0.1161,-4.20486 -5.48897,-2.33603 -13.66366,-6.89058 -19.15263,-15.99969 -1.63522,-2.80324 -8.1747,-13.54758 -4.90567,-26.16073 0.93442,-3.504051 2.33604,-6.423383 3.73765,-8.525812 0.46721,-0.700809 1.63523,-0.467206 1.63523,0.467207 0.11751,0.934412 0.2336,1.984919 0.4672,3.036841 0.3497,2.102429 1.05051,5.488964 3.50405,8.525814 2.21852,2.68572 4.78816,3.73765 7.70749,4.90566 4.32095,1.75132 6.30728,1.28411 13.78117,3.50405 1.40162,0.35111 3.03684,0.93441 4.78816,2.33603 2.21852,1.75132 3.38654,3.97126 3.38654,3.97126 0.35111,0.5833 0.4672,0.8169 0.8169,1.51771 0.46721,0.81691 1.16802,1.86883 2.45213,2.80324 1.28411,0.93441 2.45212,1.40162 3.27044,1.63522 0.70081,0.23361 1.28411,0.35112 1.40162,0.35112 1.63522,0.34969 3.03684,0.2336 3.73765,0.2336 3.27045,-0.46721 5.37287,-4.20486 5.95617,-5.25537 1.05051,-1.86882 1.40162,-3.50404 1.98492,-6.18977 0.46579,-1.99059 0.6994,-3.27611 0.46579,-5.14494 z m -23.47358,-24.991293 -3.85374,-2.919332 c -0.93441,-0.70081 -1.51771,-1.868826 -1.51771,-3.152936 v -1.635222 c 0,-1.28411 1.63522,-1.751316 2.33603,-0.70081 l 4.67206,6.890587 c 0.81549,1.050506 -0.58613,2.334616 -1.63664,1.517713 z m 21.83978,26.510423 c -0.11751,0.3497 -0.11751,0.8169 -0.2336,1.28411 -0.23361,0.8169 -0.46721,1.51771 -0.70081,2.21852 -0.35112,0.81691 -1.16802,1.16802 -1.40162,0.46721 0,-0.2336 -0.1161,-0.3497 -0.1161,-0.5833 -0.2336,-1.16802 -0.5833,-2.10243 -1.05192,-3.03684 -0.3497,-0.70081 0.35111,-1.86883 1.16802,-2.33603 1.51771,-0.5833 2.56963,0.35111 2.33603,1.98633 z"
   id="path5"
   style="stroke-width:1.41578" />
	
	
	
</g>
</svg>
