<?xml version="1.0" encoding="UTF-8" standalone="no"?>
<!-- Generator: Adobe Illustrator 28.2.0, SVG Export Plug-In . SVG Version: 6.00 Build 0)  -->

<svg
   version="1.1"
   id="Layer_1"
   x="0px"
   y="0px"
   width="160px"
   height="160px"
   viewBox="0 0 160 160"
   style="enable-background:new 0 0 160 160;"
   xml:space="preserve"
   sodipodi:docname="logo.svg"
   inkscape:version="1.4.2 (f4327f4, 2025-05-13)"
   inkscape:export-filename="..\PortalSite\images\logo.png"
   inkscape:export-xdpi="96"
   inkscape:export-ydpi="96"
   xmlns:inkscape="http://www.inkscape.org/namespaces/inkscape"
   xmlns:sodipodi="http://sodipodi.sourceforge.net/DTD/sodipodi-0.dtd"
   xmlns="http://www.w3.org/2000/svg"
   xmlns:svg="http://www.w3.org/2000/svg"><defs
   id="defs18" /><sodipodi:namedview
   id="namedview18"
   pagecolor="#ffffff"
   bordercolor="#000000"
   borderopacity="0.25"
   inkscape:showpageshadow="2"
   inkscape:pageopacity="0.0"
   inkscape:pagecheckerboard="0"
   inkscape:deskcolor="#d1d1d1"
   inkscape:zoom="4.0260892"
   inkscape:cx="80.599307"
   inkscape:cy="92.273167"
   inkscape:window-width="1902"
   inkscape:window-height="1153"
   inkscape:window-x="4947"
   inkscape:window-y="150"
   inkscape:window-maximized="0"
   inkscape:current-layer="g18" />
<style
   type="text/css"
   id="style1">
	.st0{fill:#E0D7C5;}
	.st1{fill:#BF1A20;}
	.st2{opacity:0.9725;fill:#BF1A20;}
</style>
<g
   id="g18"
   inkscape:export-filename="..\PortalSite\images\logo.png"
   inkscape:export-xdpi="96"
   inkscape:export-ydpi="96"
   style="display:inline">
	<path
   class="st0"
   d="M 80,2.689 C 37.302,2.689 2.689,37.302 2.689,80 c 0,42.698 34.613,77.311 77.311,77.311 42.698,0 77.311,-34.613 77.311,-77.311 C 157.311,37.302 122.698,2.689 80,2.689 Z m 0,148.18 C 40.86,150.869 9.131,119.14 9.131,80 9.131,40.86 40.86,9.131 80,9.131 c 39.14,0 70.869,31.729 70.869,70.869 0,39.14 -31.729,70.869 -70.869,70.869 z"
   id="path1" />
	
	<path
   d="M 80,2.689 C 37.302,2.689 2.689,37.302 2.689,80 c 0,42.698 34.613,77.311 77.311,77.311 42.698,0 77.311,-34.613 77.311,-77.311 C 157.311,37.302 122.698,2.689 80,2.689 Z M 80,154.09 C 39.081,154.09 5.91,120.919 5.91,80 5.91,39.081 39.081,5.91 80,5.91 c 40.919,0 74.09,33.171 74.09,74.09 0,40.919 -33.171,74.09 -74.09,74.09 z"
   id="path3" />
	
	<path
   d="m 140.53521,89.775143 c -0.34969,-2.336032 -1.2841,-3.853745 -1.86882,-4.788158 -3.62014,-5.722571 -12.14595,-17.751012 -13.66366,-19.97095 -0.46721,-0.5833 -1.05051,-1.517713 -1.51772,-2.803238 -0.5833,-1.401619 -0.8169,-2.803239 -0.93441,-3.152936 -0.11609,-0.5833 -0.11609,-0.5833 -0.2336,-1.050506 0,-0.233603 -0.35112,-1.868826 -1.16802,-3.270445 -0.70081,-1.28411 -1.51771,-2.102429 -2.10243,-2.803238 -4.90566,-4.672064 -12.61315,-7.941093 -13.19645,-12.028441 -0.46721,-3.620142 4.90566,-4.672064 8.40829,-12.145951 1.40162,-3.036841 1.86883,-5.956174 2.10243,-8.058602 0,-0.233603 -0.2336,-0.351113 -0.34969,-0.116094 -3.38654,3.737651 -6.77308,5.72257 -9.10911,6.890586 -6.53948,3.270445 -14.014779,3.737652 -21.138968,4.905668 -3.386539,0.5833 -6.890587,1.051922 -10.277125,1.868825 -2.685729,0.5833 -5.488968,1.401619 -8.058603,2.336032 -5.72257,1.98492 -11.329047,4.788158 -15.766092,8.875506 -5.137855,4.672064 -10.277125,11.794838 -12.495648,15.766092 -0.117509,0.233603 0.11751,0.467207 0.351113,0.351113 2.102429,-1.28411 5.605061,-3.620142 8.525809,-5.021761 0.11751,-0.117509 0.233603,0.116094 0.11751,0.233603 -3.853745,2.569635 -7.941093,6.189777 -11.445141,10.977935 -3.853745,5.372873 -5.956174,10.628237 -7.12419,14.598076 -0.116094,0.467206 0.351113,0.816903 0.70081,0.467206 1.050506,-0.816903 2.102428,-1.635222 3.386538,-2.452125 0.116094,-0.116094 0.233603,0 0.116094,0.117509 -2.569635,5.606477 -4.672064,11.794841 -5.488968,19.503741 -0.700809,7.00668 0.116094,13.08037 1.050507,17.75243 0.467206,2.10243 2.569635,3.50405 4.788158,2.91933 3.386538,-0.8169 7.473886,-1.40162 12.262044,-1.28411 15.999695,0.70081 22.656679,10.04353 36.905058,12.26205 5.372873,0.8169 12.729251,0.8169 22.073374,-2.68573 1.86883,-0.70081 1.98492,-3.38654 0.1161,-4.20486 -5.48897,-2.33603 -13.663665,-6.89058 -19.152633,-15.99969 -1.635222,-2.80324 -8.174696,-13.54758 -4.905667,-26.160732 0.934413,-3.504048 2.336032,-6.42338 3.737651,-8.525809 0.467207,-0.700809 1.635223,-0.467206 1.635223,0.467207 0.117509,0.934412 0.233603,1.984919 0.467206,3.036841 0.349697,2.102429 1.050507,5.488967 3.504048,8.525809 2.218523,2.685729 4.788158,3.737651 7.70749,4.905667 4.320952,1.751317 6.307282,1.284107 13.781172,3.504047 1.40162,0.35111 3.03684,0.93441 4.78816,2.33603 2.21852,1.75132 3.38654,3.97126 3.38654,3.97126 0.35111,0.5833 0.4672,0.8169 0.8169,1.51771 0.46721,0.81691 1.16802,1.86883 2.45213,2.80324 1.28411,0.93441 2.45212,1.40162 3.27044,1.63522 0.70081,0.23361 1.28411,0.35112 1.40162,0.35112 1.63522,0.34969 3.03684,0.2336 3.73765,0.2336 3.27045,-0.46721 5.37287,-4.20486 5.95617,-5.25537 1.05051,-1.86882 1.40162,-3.50404 1.98492,-6.18977 0.46579,-1.99059 0.6994,-3.27611 0.46579,-5.144937 z m -23.47358,-24.991295 -3.85374,-2.919332 c -0.93441,-0.70081 -1.51771,-1.868826 -1.51771,-3.152936 v -1.635222 c 0,-1.28411 1.63522,-1.751316 2.33603,-0.70081 l 4.67206,6.890587 c 0.81549,1.050506 -0.58613,2.334616 -1.63664,1.517713 z m 21.83978,26.510422 c -0.11751,0.3497 -0.11751,0.8169 -0.2336,1.28411 -0.23361,0.8169 -0.46721,1.51771 -0.70081,2.21852 -0.35112,0.81691 -1.16802,1.16802 -1.40162,0.46721 0,-0.2336 -0.1161,-0.3497 -0.1161,-0.5833 -0.2336,-1.16802 -0.5833,-2.10243 -1.05192,-3.03684 -0.3497,-0.70081 0.35111,-1.868827 1.16802,-2.336034 1.51771,-0.5833 2.56963,0.351113 2.33603,1.986334 z"
   id="path5"
   style="stroke-width:1.41578" />
	
	
	
</g>
</svg>
