<?xml version="1.0" encoding="UTF-8" standalone="no"?>
<!-- Created with Inkscape (http://www.inkscape.org/) -->

<svg
   width="82.913757mm"
   height="90.008301mm"
   viewBox="0 0 82.913757 90.008301"
   version="1.1"
   id="svg1"
   xml:space="preserve"
   inkscape:version="1.4.2 (f4327f4, 2025-05-13)"
   sodipodi:docname="print.svg"
   xmlns:inkscape="http://www.inkscape.org/namespaces/inkscape"
   xmlns:sodipodi="http://sodipodi.sourceforge.net/DTD/sodipodi-0.dtd"
   xmlns="http://www.w3.org/2000/svg"
   xmlns:svg="http://www.w3.org/2000/svg"><sodipodi:namedview
     id="namedview1"
     pagecolor="#ffffff"
     bordercolor="#000000"
     borderopacity="0.25"
     inkscape:showpageshadow="2"
     inkscape:pageopacity="0.0"
     inkscape:pagecheckerboard="0"
     inkscape:deskcolor="#d1d1d1"
     inkscape:document-units="mm"
     inkscape:zoom="0.76167929"
     inkscape:cx="213.34438"
     inkscape:cy="204.15416"
     inkscape:window-width="1920"
     inkscape:window-height="1057"
     inkscape:window-x="1912"
     inkscape:window-y="-8"
     inkscape:window-maximized="1"
     inkscape:current-layer="layer1" /><defs
     id="defs1" /><g
     inkscape:label="Layer 1"
     inkscape:groupmode="layer"
     id="layer1"
     transform="translate(-48.727826,-94.503628)"><path
       style="fill:#000000;stroke-width:1.94655"
       d="m 89.023238,184.2764 c 0.495709,-0.12964 1.306876,-0.12964 1.802585,0 0.495709,0.12964 0.09013,0.23553 -0.901292,0.23553 -0.991437,0 -1.397021,-0.10609 -0.901293,-0.23553 z m -24.167312,-5.54672 c -2.689017,-1.16966 -3.283367,-2.62317 -3.406041,-8.32957 l -0.10924,-5.08213 -4.123485,-0.26917 c -4.429846,-0.28918 -5.903199,-0.96109 -7.535293,-3.4364 -0.87893,-1.33302 -0.952663,-2.77812 -0.954018,-18.69801 -0.0014,-16.20704 0.05951,-17.35335 1.003881,-18.90218 1.45625,-2.38834 3.486412,-3.24391 7.697312,-3.24391 h 3.607415 l 0.289544,-1.67384 c 0.159247,-0.9206 0.227692,-5.76738 0.152104,-10.7706 -0.128531,-8.506368 -0.06823,-9.191613 0.929209,-10.558014 2.395897,-3.282177 2.225971,-3.262225 27.774745,-3.262225 25.540351,0 25.371911,-0.01966 27.774741,3.254478 0.98923,1.348006 1.07358,2.226329 1.16203,12.103091 l 0.0954,10.6496 4.02483,0.25957 c 4.61124,0.29742 5.82295,0.8384 7.32645,3.27113 1.03404,1.67312 1.07607,2.39967 1.07607,18.59834 0,14.3242 -0.12283,17.11587 -0.81691,18.5787 -1.24751,2.62894 -2.99771,3.50566 -7.62927,3.82177 l -4.06847,0.27767 -0.0999,4.98872 c -0.11368,5.68825 -0.78835,7.25665 -3.63236,8.44496 -2.53381,1.05869 -48.099967,1.03887 -50.538822,-0.022 z m 49.789784,-3.88374 c 0.97723,-0.97723 1.03006,-1.71674 1.03006,-14.42069 V 147.03459 H 90.18204 64.688297 v 13.39066 c 0,12.70395 0.05283,13.44346 1.03005,14.42069 0.999866,0.99987 1.716742,1.03006 24.463693,1.03006 22.74693,0 23.46381,-0.0302 24.46367,-1.03006 z m -42.574092,-3.38227 c -0.170323,-0.44395 -0.09908,-1.01775 0.158255,-1.27513 0.650654,-0.65067 35.216637,-0.68775 35.865907,-0.0385 0.27855,0.27855 0.36706,0.86966 0.19672,1.31361 -0.27296,0.71131 -2.42338,0.80716 -18.110441,0.80716 -15.687043,0 -17.837456,-0.0958 -18.110421,-0.80716 z m 0.470813,-7.77435 c -0.916573,-0.36984 -0.797697,-2.06476 0.170907,-2.43644 1.063498,-0.40809 33.873942,-0.40809 34.937462,0 1.05375,0.40436 1.05375,2.06056 0,2.46492 -0.97213,0.37304 -34.180039,0.34611 -35.10835,-0.0284 z m 0,-9.27045 c -0.916573,-0.36984 -0.797697,-2.06477 0.170907,-2.43644 1.063498,-0.40809 33.873942,-0.40809 34.937462,0 1.05375,0.40436 1.05375,2.06056 0,2.46492 -0.97213,0.37304 -34.180039,0.34611 -35.10835,-0.0284 z m -11.309331,-2.10956 -0.107528,-8.88846 28.94894,0.13315 28.948938,0.13295 v 8.8831 8.88309 l 2.73775,0.001 c 2.83596,0.001 4.53575,-0.60867 5.61504,-2.01439 0.46104,-0.60051 0.63173,-5.02237 0.64376,-16.6776 l 0.0156,-15.86042 -1.26415,-1.26417 -1.26415,-1.26415 H 90.18204 54.856001 l -1.264152,1.26415 -1.264153,1.26417 v 15.89075 c 0,11.93888 0.160104,16.09142 0.643781,16.69769 1.167753,1.46371 2.667197,1.96016 5.536519,1.83303 l 2.832639,-0.12556 z m 53.96831,-15.71157 c -1.70286,-0.86884 -2.36527,-3.03229 -1.49018,-4.86692 0.54529,-1.14313 1.08614,-1.46762 2.6625,-1.5974 2.51708,-0.20723 3.93726,0.98145 3.93726,3.29546 0,1.20731 -0.38493,1.98816 -1.35701,2.75281 -1.56828,1.23361 -2.04634,1.28661 -3.75257,0.41605 z m 0.47436,-25.64048 c 0,-9.66326 -0.39616,-11.78395 -2.34069,-12.530121 -0.45853,-0.175969 -10.98657,-0.319936 -23.395619,-0.319936 -21.438616,0 -22.622469,0.04905 -23.777788,0.983554 -1.192047,0.964303 -1.218985,1.181183 -1.375225,11.073033 l -0.159365,10.08948 h 25.524338 25.524349 z"
       id="path1" /></g></svg>
