<?xml version="1.0" encoding="UTF-8" standalone="no"?>
<!-- Created with Inkscape (http://www.inkscape.org/) -->

<svg
   width="65.356155mm"
   height="111.5679mm"
   viewBox="0 0 65.356155 111.5679"
   version="1.1"
   id="svg1"
   xml:space="preserve"
   inkscape:version="1.4.2 (f4327f4, 2025-05-13)"
   sodipodi:docname="filters.svg"
   xmlns:inkscape="http://www.inkscape.org/namespaces/inkscape"
   xmlns:sodipodi="http://sodipodi.sourceforge.net/DTD/sodipodi-0.dtd"
   xmlns="http://www.w3.org/2000/svg"
   xmlns:svg="http://www.w3.org/2000/svg"><sodipodi:namedview
     id="namedview1"
     pagecolor="#ffffff"
     bordercolor="#000000"
     borderopacity="0.25"
     inkscape:showpageshadow="2"
     inkscape:pageopacity="0.0"
     inkscape:pagecheckerboard="0"
     inkscape:deskcolor="#d1d1d1"
     inkscape:document-units="mm"
     inkscape:zoom="0.53606888"
     inkscape:cx="222.91911"
     inkscape:cy="428.11663"
     inkscape:window-width="2400"
     inkscape:window-height="1261"
     inkscape:window-x="4791"
     inkscape:window-y="-9"
     inkscape:window-maximized="1"
     inkscape:current-layer="layer1" /><defs
     id="defs1" /><g
     inkscape:label="Layer 1"
     inkscape:groupmode="layer"
     id="layer1"
     transform="translate(-80.256549,-88.640369)"><path
       style="fill:#000000"
       d="m 95.179707,199.9056 c -3.04964,-0.85027 -5.75622,-3.11448 -7.06766,-5.9125 l -0.70909,-1.5129 -0.0832,-7.94636 -0.0832,-7.94635 -1.62251,-0.30834 c -2.20827,-0.41967 -3.56027,-1.41924 -4.55775,-3.36968 l -0.79707,-1.55857 v -38.91243 c 0,-43.183683 -0.1477,-39.655483 1.75057,-41.817493 1.86609,-2.12536 -0.43585,-1.97812 30.925473,-1.97812 31.42145,0 29.0193,-0.15728 30.99046,2.02911 1.79824,1.99459 1.68558,-0.80595 1.68558,41.898833 v 38.78018 l -0.7997,1.56878 c -0.91942,1.80361 -2.58135,3.1058 -4.31831,3.38355 l -1.07148,0.17134 -0.0821,8.13506 c -0.0784,7.77398 -0.10836,8.19164 -0.67378,9.40961 -0.92973,2.00272 -3.19919,4.19193 -5.4291,5.23713 l -1.91303,0.89666 -17.4625,0.0462 c -13.52849,0.0358 -17.737143,-0.0304 -18.681573,-0.2937 z m 36.276373,-4.13889 c 1.44816,-0.65477 2.78407,-1.8931 3.46277,-3.20983 0.43644,-0.84674 0.50598,-1.56509 0.50598,-5.22704 v -4.24539 l -22.02656,0.0677 -22.026563,0.0677 v 4.38585 c 0,4.32642 0.01,4.40052 0.71719,5.4687 0.85296,1.28784 2.21462,2.37695 3.58175,2.86483 0.78904,0.28158 4.439863,0.35546 17.793763,0.36007 16.33635,0.006 16.83398,-0.009 17.99167,-0.53252 z m 3.96875,-17.04485 V 176.4729 H 113.33212 91.239407 v 2.24896 2.24896 h 22.092713 22.09271 z m 5.68854,-4.59865 c 1.25884,-0.57806 1.82296,-1.16811 2.37116,-2.48014 0.35987,-0.86129 0.40697,-5.40499 0.40697,-39.26355 0,-38.273963 -2.3e-4,-38.290013 -0.55188,-39.429573 -0.30353,-0.62701 -0.92861,-1.40874 -1.38906,-1.73718 l -0.83719,-0.59716 H 112.93525 84.757117 l -0.83718,0.59716 c -0.46046,0.32844 -1.08554,1.11017 -1.38907,1.73718 -0.55165,1.13956 -0.55187,1.15561 -0.55187,39.429573 0,33.85856 0.0471,38.40226 0.40696,39.26355 0.5482,1.31203 1.11232,1.90208 2.37116,2.48014 1.00512,0.46155 2.42201,0.48599 28.178133,0.48599 25.75612,0 27.17301,-0.0244 28.17812,-0.48599 z M 85.418577,132.41978 V 94.187487 h 27.516673 27.51666 v 38.232293 38.23229 H 112.93525 85.418577 Z m 25.609623,34.72388 0.0773,-2.05319 -12.115873,0.0688 -12.11586,0.0688 -0.0798,1.69193 c -0.0439,0.93055 -0.0174,1.8545 0.0589,2.05322 0.11489,0.29939 2.19113,0.3495 12.1183,0.29245 l 11.979673,-0.0688 z m 3.22996,-34.59159 V 95.774987 h -0.92604 -0.92604 v 36.600693 c 0,20.13038 0.0794,36.68007 0.17639,36.77709 0.097,0.097 0.51373,0.17638 0.92604,0.17638 h 0.74965 z m 24.73855,34.66042 v -1.98438 l -11.57552,-0.0689 -11.57553,-0.0689 v 2.12223 2.12223 l 11.57553,-0.0689 11.57552,-0.0689 z m 0.007,-2.92103 c 0.0994,-0.16077 -4.12072,-0.25397 -11.50031,-0.25397 -7.74142,0 -11.65729,0.0906 -11.65729,0.26966 0,0.35859 22.93589,0.34305 23.1576,-0.0157 z m -28.05284,-0.25397 c -0.10508,-0.17003 -4.40726,-0.26459 -12.038543,-0.26459 -7.63128,0 -11.93346,0.0946 -12.03854,0.26459 -0.10811,0.17493 3.97121,0.26458 12.03854,0.26458 8.067343,0 12.146653,-0.0897 12.038543,-0.26458 z m 0.0788,-2.58237 0.0788,-1.65632 -12.117383,0.0688 -12.11738,0.0688 -0.082,1.28929 c -0.0451,0.70912 -0.0186,1.45447 0.0589,1.65635 0.11779,0.30695 2.10244,0.35578 12.12051,0.2982 l 11.979663,-0.0688 z m 27.967,0.0688 v -1.5875 l -11.57552,-0.0689 -11.57553,-0.0689 v 1.72536 1.72535 l 11.57553,-0.0689 11.57552,-0.0689 z m 0,-2.51355 c 0.10807,-0.17486 -3.78962,-0.26458 -11.49376,-0.26458 -7.59514,0 -11.65729,0.0922 -11.65729,0.26458 0,0.17233 4.00765,0.26459 11.49377,0.26459 7.3771,0 11.55232,-0.0948 11.65728,-0.26459 z m -33.78238,-0.19813 c -3.30062,-0.042 -8.777503,-0.042 -12.170843,-1e-4 -3.39333,0.0419 -0.69283,0.0762 6.00113,0.0763 6.693963,6e-5 9.470333,-0.0342 6.169713,-0.0762 z m 5.86883,-2.58266 v -1.72246 l -12.104683,0.0688 -12.10469,0.0688 -0.082,1.2893 c -0.0451,0.70911 -0.019,1.45325 0.0578,1.65364 0.1159,0.30203 2.20043,0.36435 12.18666,0.36435 h 12.046843 z m 27.99232,0.0688 -0.0788,-1.65364 -11.57552,-0.0689 -11.57553,-0.0689 v 1.72257 1.72257 h 11.6543 11.65429 z m -0.0788,-2.57968 c 0.10807,-0.17486 -3.78962,-0.26459 -11.49376,-0.26459 -7.59514,0 -11.65729,0.0922 -11.65729,0.26459 0,0.17233 4.00765,0.26458 11.49377,0.26458 7.3771,0 11.55232,-0.0948 11.65728,-0.26458 z m -33.93282,-0.1982 c -3.38336,-0.0419 -8.919763,-0.0419 -12.303123,0 -3.38336,0.0419 -0.61516,0.0762 6.15156,0.0762 6.766723,0 9.534923,-0.0343 6.151563,-0.0762 z m 6.01927,-2.5826 v -1.72246 l -12.104683,0.0688 -12.10469,0.0688 -0.082,1.2893 c -0.0451,0.70912 -0.019,1.45326 0.0578,1.65365 0.1159,0.30202 2.20043,0.36434 12.18666,0.36434 h 12.046843 z m 27.91355,0.003 v -1.5875 l -11.57552,-0.0689 -11.57553,-0.0689 v 1.72535 1.72536 l 11.57553,-0.0689 11.57552,-0.0689 z m -0.1323,-2.51354 c 0,-0.17233 -4.01284,-0.26458 -11.50937,-0.26458 -7.49653,0 -11.50938,0.0922 -11.50938,0.26458 0,0.17233 4.01285,0.26458 11.50938,0.26458 7.49653,0 11.50937,-0.0923 11.50937,-0.26458 z m -33.80052,-0.19819 c -3.38336,-0.0419 -8.919763,-0.0419 -12.303123,0 -3.38336,0.0419 -0.61516,0.0761 6.15156,0.0761 6.766723,0 9.534923,-0.0343 6.151563,-0.0761 z m 6.01927,-2.5826 v -1.72246 l -12.104683,0.0688 -12.10469,0.0688 -0.082,1.28929 c -0.0451,0.70912 -0.019,1.45326 0.0578,1.65365 0.1159,0.30203 2.20043,0.36435 12.18666,0.36435 h 12.046843 z m 28.04584,0.13496 v -1.5875 h -11.64164 -11.64167 v 1.5875 1.5875 h 11.64167 11.64167 z m -0.26459,-2.64584 c 0,-0.17233 -4.01284,-0.26458 -11.50937,-0.26458 -7.49653,0 -11.50938,0.0923 -11.50938,0.26458 0,0.17234 4.01285,0.26459 11.50938,0.26459 7.49653,0 11.50937,-0.0922 11.50937,-0.26459 z m -33.80052,-0.19819 c -3.38336,-0.0419 -8.919763,-0.0419 -12.303123,0 -3.38336,0.0419 -0.61516,0.0761 6.15156,0.0761 6.766723,0 9.534923,-0.0343 6.151563,-0.0761 z m 6.01927,-2.5826 v -1.72246 l -12.104683,0.0688 -12.10469,0.0688 -0.082,1.2893 c -0.0451,0.70911 -0.019,1.45325 0.0578,1.65364 0.1159,0.30203 2.20043,0.36435 12.18666,0.36435 h 12.046843 z m 28.04584,0.13496 v -1.5875 h -11.64164 -11.64167 v 1.5875 1.5875 h 11.64167 11.64167 z m -0.26459,-2.64583 c 0,-0.17234 -4.01284,-0.26459 -11.50937,-0.26459 -7.49653,0 -11.50938,0.0923 -11.50938,0.26459 0,0.17233 4.01285,0.26458 11.50938,0.26458 7.49653,0 11.50937,-0.0923 11.50937,-0.26458 z m -33.80052,-0.1982 c -3.38336,-0.0419 -8.919763,-0.0419 -12.303123,0 -3.38336,0.0419 -0.61516,0.0762 6.15156,0.0762 6.766723,0 9.534923,-0.0343 6.151563,-0.0762 z m 5.96575,-2.51378 -0.0788,-1.65365 H 98.912257 86.873717 l -0.082,1.2893 c -0.0451,0.70912 -0.019,1.45326 0.0578,1.65365 0.1159,0.30203 2.20234,0.36434 12.19928,0.36434 h 12.059473 z m 28.09936,0.0661 v -1.5875 h -11.64164 -11.64167 v 1.5875 1.5875 h 11.64167 11.64167 z m -28.17813,-2.64583 c 0.10811,-0.17493 -3.97121,-0.26458 -12.038543,-0.26458 -8.06733,0 -12.14665,0.0896 -12.03854,0.26458 0.10508,0.17003 4.40726,0.26458 12.03854,0.26458 7.631283,0 11.933463,-0.0945 12.038543,-0.26458 z m 27.91354,0 c 0,-0.17233 -4.01284,-0.26458 -11.50937,-0.26458 -7.49653,0 -11.50938,0.0922 -11.50938,0.26458 0,0.17233 4.01285,0.26458 11.50938,0.26458 7.49653,0 11.50937,-0.0923 11.50937,-0.26458 z m -27.83477,-2.71198 -0.0788,-1.65364 H 98.912257 86.873717 l -0.0788,1.65364 -0.0788,1.65365 h 12.19608 12.196093 z m 28.09936,0.0661 v -1.5875 h -11.64164 -11.64167 v 1.5875 1.5875 h 11.64167 11.64167 z M 110.9508,127.2606 c 0.1081,-0.17491 -3.9219,-0.26458 -11.890633,-0.26458 -7.85972,0 -12.05416,0.0921 -12.05416,0.26458 0,0.17247 4.13993,0.26459 11.89064,0.26459 7.641683,0 11.949063,-0.0946 12.054153,-0.26459 z m 27.91354,0 c 0,-0.17233 -4.01284,-0.26458 -11.50937,-0.26458 -7.49653,0 -11.50938,0.0923 -11.50938,0.26458 0,0.17234 4.01285,0.26459 11.50938,0.26459 7.49653,0 11.50937,-0.0923 11.50937,-0.26459 z m -27.83477,-2.71198 -0.0788,-1.65364 H 98.912257 86.873717 l -0.0788,1.65364 -0.0788,1.65365 h 12.19608 12.196093 z m 28.09936,0.0662 v -1.5875 h -11.64164 -11.64167 v 1.5875 1.5875 h 11.64167 11.64167 z m -28.17813,-2.64583 c 0.1081,-0.17491 -3.9219,-0.26459 -11.890633,-0.26459 -7.85972,0 -12.05416,0.0921 -12.05416,0.26459 0,0.17246 4.13993,0.26458 11.89064,0.26458 7.641683,0 11.949063,-0.0945 12.054153,-0.26458 z m 27.91354,0 c 0,-0.17234 -4.01284,-0.26459 -11.50937,-0.26459 -7.49653,0 -11.50938,0.0922 -11.50938,0.26459 0,0.17233 4.01285,0.26458 11.50938,0.26458 7.49653,0 11.50937,-0.0922 11.50937,-0.26458 z m 0.21107,-2.63923 0.0788,-1.59411 h -11.65429 -11.6543 v 1.65365 1.65365 l 11.57552,-0.0595 11.57553,-0.0595 z m -27.99232,-0.007 v -1.5875 H 98.912287 86.741457 v 1.5875 1.5875 h 12.17083 12.170833 z m -0.13229,-2.64583 c 0.1081,-0.17491 -3.9219,-0.26458 -11.890633,-0.26458 -7.85972,0 -12.05416,0.0921 -12.05416,0.26458 0,0.17246 4.13993,0.26458 11.89064,0.26458 7.641683,0 11.949063,-0.0945 12.054153,-0.26458 z m 27.91354,0 c 0,-0.17233 -4.01284,-0.26458 -11.50937,-0.26458 -7.49653,0 -11.50938,0.0923 -11.50938,0.26458 0,0.17233 4.01285,0.26458 11.50938,0.26458 7.49653,0 11.50937,-0.0923 11.50937,-0.26458 z m 0.21107,-2.57969 0.0788,-1.65364 h -11.65429 -11.6543 v 1.72257 1.72257 l 11.57553,-0.0689 11.57552,-0.0689 z m -27.99232,-0.0661 v -1.5875 H 98.912287 86.741457 v 1.5875 1.5875 h 12.17083 12.170833 z m -0.13229,-2.64584 c 0.1081,-0.17491 -3.9219,-0.26458 -11.890633,-0.26458 -7.85972,0 -12.05416,0.0921 -12.05416,0.26458 0,0.17247 4.13993,0.26459 11.89064,0.26459 7.641683,0 11.949063,-0.0946 12.054153,-0.26459 z m 28.04584,0 c -0.10496,-0.16982 -4.28018,-0.26458 -11.65728,-0.26458 -7.48612,0 -11.49377,0.0923 -11.49377,0.26458 0,0.17239 4.06215,0.26459 11.65729,0.26459 7.70414,0 11.60183,-0.0897 11.49376,-0.26459 z m 0,-2.51354 v -1.5875 l -11.57552,-0.0689 -11.57553,-0.0689 v 1.72535 1.72536 l 11.57553,-0.0689 11.57552,-0.0689 z m -27.91355,-0.13229 v -1.5875 H 98.912287 86.741457 v 1.5875 1.5875 h 12.17083 12.170833 z m 0,-2.64583 c 0,-0.17251 -4.18923,-0.26459 -12.038543,-0.26459 -7.8493,0 -12.03854,0.0921 -12.03854,0.26459 0,0.17251 4.18924,0.26458 12.03854,0.26458 7.849313,0 12.038543,-0.0921 12.038543,-0.26458 z m 24.07709,0.0742 c -10.45816,-0.18485 -19.31489,-0.18857 -19.31475,-0.008 9e-5,0.10914 5.26868,0.17192 11.70798,0.13952 6.43929,-0.0324 9.86234,-0.0915 7.60677,-0.13141 z m 3.83646,-2.58779 v -1.5875 l -11.57552,-0.0689 -11.57553,-0.0689 v 1.72536 1.72535 l 11.57553,-0.0689 11.57552,-0.0689 z m -27.91355,-0.1323 v -1.5875 H 98.912287 86.741457 v 1.5875 1.5875 h 12.17083 12.170833 z m 0,-2.64583 c 0,-0.17251 -4.18923,-0.26458 -12.038543,-0.26458 -7.8493,0 -12.03854,0.0921 -12.03854,0.26458 0,0.17251 4.18924,0.26458 12.03854,0.26458 7.849313,0 12.038543,-0.0921 12.038543,-0.26458 z m 22.29115,0.0664 c -3.23784,-0.0421 -8.53612,-0.0421 -11.77396,0 -3.23784,0.0421 -0.5887,0.0765 5.88698,0.0765 6.47568,0 9.12482,-0.0344 5.88698,-0.0765 z m 5.69967,-3.042973 0.0773,-2.05052 h -11.6528 -11.6528 v 2.11944 2.119453 l 11.57553,-0.0689 11.57552,-0.0689 z m -27.99079,-0.066 v -1.98437 H 98.912287 86.741457 v 1.98437 1.98438 h 12.17083 12.170833 z"
       id="path1" /></g></svg>
