<?xml version="1.0" encoding="UTF-8" standalone="no"?>
<!-- Created with Inkscape (http://www.inkscape.org/) -->

<svg
   width="86.795395mm"
   height="79.799454mm"
   viewBox="0 0 86.795398 79.799453"
   version="1.1"
   id="svg1"
   xml:space="preserve"
   inkscape:version="1.4.2 (f4327f4, 2025-05-13)"
   sodipodi:docname="nofilter.svg"
   xmlns:inkscape="http://www.inkscape.org/namespaces/inkscape"
   xmlns:sodipodi="http://sodipodi.sourceforge.net/DTD/sodipodi-0.dtd"
   xmlns="http://www.w3.org/2000/svg"
   xmlns:svg="http://www.w3.org/2000/svg"><sodipodi:namedview
     id="namedview1"
     pagecolor="#ffffff"
     bordercolor="#000000"
     borderopacity="0.25"
     inkscape:showpageshadow="2"
     inkscape:pageopacity="0.0"
     inkscape:pagecheckerboard="0"
     inkscape:deskcolor="#d1d1d1"
     inkscape:document-units="mm"
     inkscape:zoom="0.89174382"
     inkscape:cx="247.26832"
     inkscape:cy="162.04205"
     inkscape:window-width="1920"
     inkscape:window-height="1171"
     inkscape:window-x="2391"
     inkscape:window-y="-9"
     inkscape:window-maximized="1"
     inkscape:current-layer="layer1" /><defs
     id="defs1"><rect
       x="555.06384"
       y="57.885227"
       width="126.07878"
       height="43.61216"
       id="rect2" /><rect
       x="549.51318"
       y="51.541641"
       width="134.00827"
       height="26.167295"
       id="rect1" /></defs><g
     inkscape:label="Layer 1"
     inkscape:groupmode="layer"
     id="layer1"
     transform="translate(174.95844,13.856353)"><path
       style="fill:#b3b3b3;fill-opacity:1;stroke-width:1.60165"
       d="m -153.16758,56.859582 c -1.49284,-0.964801 -4.1178,-3.110134 -5.83324,-4.767407 -3.1442,-3.037585 -7.26337,-8.688642 -7.26337,-9.96455 0,-0.668434 10.42663,-11.421707 10.70276,-11.038053 2.66011,3.695972 4.38218,5.818683 6.64556,8.191691 2.92742,3.069189 9.14179,8.314497 9.85059,8.314497 0.22919,0 0.35316,0.190273 0.27546,0.422811 -0.31535,0.943933 -10.29099,10.595193 -10.95129,10.595189 -0.39172,0 -1.93364,-0.78938 -3.42648,-1.754178 z m 4.70697,-1.005933 c 1.12678,-1.199395 1.24783,-1.02426 -2.54788,-3.686526 -3.3061,-2.318855 -7.31383,-6.427119 -9.52364,-9.76254 -0.8879,-1.340171 -1.72432,-2.436672 -1.8587,-2.436672 -0.1344,0 -0.68088,0.508048 -1.21446,1.129001 -0.92264,1.073737 -0.93611,1.182635 -0.27525,2.224787 2.61947,4.130753 7.02237,8.777987 10.92559,11.531908 1.6098,1.135794 3.05445,2.065077 3.21034,2.065077 0.15589,-3e-6 0.73369,-0.479266 1.28399,-1.06504 z m -1.86549,-0.130635 c -0.30984,-0.501335 0.81495,-1.483469 1.45472,-1.270212 0.27818,0.09271 0.12796,0.466875 -0.36745,0.915207 -0.46947,0.424877 -0.94761,0.580987 -1.08727,0.355005 z m -2.11885,-1.271309 c -0.30984,-0.501333 0.81496,-1.48347 1.45473,-1.270213 0.27817,0.09272 0.12794,0.466878 -0.36745,0.915211 -0.46948,0.424876 -0.94761,0.580987 -1.08728,0.355004 z m -1.68975,-1.262686 c -0.1342,-0.217102 0.114,-0.718695 0.55152,-1.114636 0.4375,-0.395944 0.90525,-0.542263 1.03943,-0.325157 0.1342,0.217102 -0.11399,0.718693 -0.55151,1.114636 -0.43751,0.395944 -0.90525,0.542261 -1.03944,0.325157 z m -1.95903,-1.727434 c 0,-0.541895 1.24605,-1.489718 1.55383,-1.181937 0.30777,0.307778 -0.64005,1.553818 -1.18194,1.553818 -0.20455,0 -0.37189,-0.167329 -0.37189,-0.371881 z m -1.69507,-1.695076 c 0,-0.541896 1.24604,-1.489719 1.55382,-1.181941 0.30778,0.307781 -0.64005,1.553822 -1.18194,1.553822 -0.20455,0 -0.37189,-0.167358 -0.37188,-0.371881 z m -1.46814,-1.298846 c -0.39406,-0.637602 0.98635,-1.946961 1.5054,-1.427912 0.25955,0.259548 0.11166,0.673392 -0.40894,1.144541 -0.53741,0.486357 -0.91129,0.582981 -1.09645,0.283368 z m -1.49825,-2.091313 c 0,-0.541898 1.24604,-1.489722 1.55382,-1.18194 0.30779,0.30778 -0.64004,1.553821 -1.18194,1.553821 -0.20454,0 -0.37188,-0.167358 -0.37188,-0.371881 z m -1.43112,-1.662725 c -0.1342,-0.217102 0.114,-0.718692 0.55151,-1.114633 0.43751,-0.395947 0.90526,-0.542264 1.03944,-0.325156 0.13419,0.217101 -0.114,0.718691 -0.55152,1.114632 -0.4375,0.395947 -0.90526,0.542264 -1.03943,0.325157 z m -1.1115,-2.1512 c 0,-0.552344 1.09454,-1.35872 1.41257,-1.040684 0.31804,0.318036 -0.48833,1.412564 -1.04068,1.412564 -0.20451,0 -0.37189,-0.167358 -0.37189,-0.37188 z m 33.68968,8.258519 c -11.4171,-2.783999 -28.31668,-20.587906 -28.94762,-30.496651 -0.20841,-3.273056 -0.17589,-3.312986 6.69973,-8.223885 2.91341,-2.080904 8.15755,-5.8514633 11.65365,-8.3790226 3.4961,-2.527558 8.6449,-6.22119 11.44178,-8.208077 2.79688,-1.98687 5.91029,-4.239173 6.91871,-5.005113 1.24064,-0.9423204 2.29979,-1.3926104 3.27564,-1.3926104 7.37275,1e-5 21.821904,14.3695404 21.792916,21.672829 -0.0067,1.689752 -0.475521,2.493448 -5.526486,9.474225 -3.03554,4.195317 -6.79849,9.407579 -8.36212,11.582801 -1.56362,2.175222 -4.33155,5.989145 -6.15094,8.475388 -1.81939,2.486238 -4.10774,5.705912 -5.08523,7.154829 -1.65713,2.456324 -3.62669,3.985812 -5.01957,3.897994 -0.31439,-0.01986 -1.5251,-0.268539 -2.69046,-0.552712 z m 16.68696,-20.552467 c 6.08315,-8.364644 11.16858,-15.490689 11.30096,-15.835665 0.24326,-0.633929 -1.29347,-1.34146 -1.98515,-0.913981 -0.18466,0.114106 -2.47687,3.01304 -5.09382,6.442037 -5.06011,6.630289 -8.58052,11.225868 -14.76927,19.27997 l -3.83722,4.993805 1.39139,0.604551 c 0.76526,0.332504 1.51321,0.612018 1.66211,0.621141 0.14891,0.0091 5.24785,-6.827212 11.331,-15.191858 z m -4.82428,-2.589869 c 6.24165,-7.807949 11.55359,-14.45528 11.80432,-14.771845 0.34148,-0.431159 0.2535,-0.72355 -0.35073,-1.165364 -0.44362,-0.324393 -0.929,-0.5898 -1.0786,-0.5898 -0.14961,0 -3.59336,3.940778 -7.6528,8.757288 -4.05943,4.816507 -9.71681,11.496669 -12.57197,14.844806 -2.85515,3.348137 -5.19117,6.179877 -5.19117,6.292758 10e-6,0.112885 0.61658,0.580198 1.37018,1.038488 1.07537,0.653969 1.4726,0.721012 1.84624,0.311598 0.26186,-0.286929 5.58289,-6.909977 11.82453,-14.717929 z m -8.25128,1.059422 c 4.95812,-5.593755 10.35697,-11.696031 11.99746,-13.560615 1.64048,-1.864589 3.3663,-3.823933 3.83515,-4.354109 l 0.85244,-0.9639513 -0.85309,-0.853089 -0.85309,-0.853098 -2.51482,2.6827523 c -1.38315,1.47552 -4.80319,5.147407 -7.60007,8.159753 -2.79687,3.012352 -7.74811,8.318399 -11.00276,11.791227 l -5.91753,6.314229 1.19674,1.0294 c 0.65821,0.566168 1.34256,0.972826 1.52077,0.903682 0.17823,-0.06913 4.38068,-4.702426 9.3388,-10.296181 z m -6.31564,-1.801017 c 11.97091,-12.13467 19.21891,-19.6174763 19.3475,-19.9742783 0.0639,-0.177426 -0.24752,-0.651791 -0.69213,-1.054157 -0.77994,-0.70583 -1.16431,-0.383582 -10.92238,9.1571073 -5.56269,5.438776 -11.92463,11.631492 -14.13763,13.761588 l -4.02364,3.872902 1.02519,1.091253 c 0.56384,0.600193 1.14655,1.091256 1.29491,1.091256 0.14835,3e-6 3.79704,-3.575555 8.10817,-7.945679 z m -10.70044,1.958616 c 0.84652,-0.729078 2.87401,-2.59233 4.50552,-4.140561 2.96908,-2.817527 19.22493,-17.9271913 21.60406,-20.0807773 l 1.26311,-1.1433793 -0.87684,-0.876838 -0.87683,-0.876829 -12.83862,11.3615416 c -7.06123,6.248853 -13.68964,12.124332 -14.7298,13.056625 l -1.89117,1.695074 0.91958,1.165365 c 0.50578,0.640954 1.0236,1.165366 1.15072,1.165368 0.12713,0 0.92373,-0.596517 1.77026,-1.325595 z m 0.0559,-8.254272 c 2.91342,-2.466773 8.15756,-6.891557 11.65366,-9.832847 3.4961,-2.9412983 7.78677,-6.5763966 9.53482,-8.0780146 1.74804,-1.501609 3.2129,-2.75073504 3.25523,-2.77582204 0.0423,-0.02509 -0.25669,-0.487936 -0.66446,-1.02853796 l -0.74141,-0.982921 -11.2011,9.0238813 c -6.16059,4.9631293 -12.96502,10.4339573 -15.12095,12.1573893 -2.15592,1.723435 -3.91986,3.311032 -3.91986,3.527996 0,0.523964 1.29568,2.484814 1.63787,2.478715 0.14801,-0.0026 2.65279,-2.023064 5.5662,-4.489839 z m -3.96848,-4.597689 c 2.12918,-1.641803 8.85123,-6.7846183 14.93787,-11.4284696 6.28331,-4.79390204 11.06382,-8.73196 11.06014,-9.11105 -0.0219,-2.24811 -0.65365,-1.90395 -13.18917,7.184408 -20.86544,15.1276216 -19.05171,13.5422716 -18.16407,15.8769216 0.49579,1.304061 0.23336,1.427648 5.35523,-2.52181 z"
       id="path90" /><g
       id="path1"
       style="fill:#b3b3b3;fill-opacity:1"
       transform="matrix(1.0337238,-0.07096726,0.06801203,1.0786407,-83.809419,-185.49489)"><path
         style="baseline-shift:baseline;display:inline;overflow:visible;vector-effect:none;fill:#b3b3b3;fill-opacity:1;stroke-linejoin:round;enable-background:accumulate;stop-color:#000000;stop-opacity:1"
         d="m -97.550688,153.53526 77.416531,77.41653"
         id="path2" /><path
         style="baseline-shift:baseline;display:inline;overflow:visible;vector-effect:none;fill:#b3b3b3;fill-opacity:1;stroke-linejoin:round;enable-background:accumulate;stop-color:#000000;stop-opacity:1"
         d="m -96.773437,152.75781 -1.554688,1.55469 77.416016,77.41797 1.55664,-1.55664 z"
         id="path3" /></g></g></svg>
