<?xml version="1.0" encoding="UTF-8" standalone="no"?>
<!-- Created with Inkscape (http://www.inkscape.org/) -->

<svg
   width="108.55259mm"
   height="79.799454mm"
   viewBox="0 0 108.55259 79.799453"
   version="1.1"
   id="svg1"
   xml:space="preserve"
   inkscape:version="1.4.2 (f4327f4, 2025-05-13)"
   sodipodi:docname="nooil.svg"
   xmlns:inkscape="http://www.inkscape.org/namespaces/inkscape"
   xmlns:sodipodi="http://sodipodi.sourceforge.net/DTD/sodipodi-0.dtd"
   xmlns="http://www.w3.org/2000/svg"
   xmlns:svg="http://www.w3.org/2000/svg"><sodipodi:namedview
     id="namedview1"
     pagecolor="#ffffff"
     bordercolor="#000000"
     borderopacity="0.25"
     inkscape:showpageshadow="2"
     inkscape:pageopacity="0.0"
     inkscape:pagecheckerboard="0"
     inkscape:deskcolor="#d1d1d1"
     inkscape:document-units="mm"
     inkscape:zoom="0.89174382"
     inkscape:cx="296.60985"
     inkscape:cy="163.16345"
     inkscape:window-width="1920"
     inkscape:window-height="1171"
     inkscape:window-x="2391"
     inkscape:window-y="-9"
     inkscape:window-maximized="1"
     inkscape:current-layer="layer1" /><defs
     id="defs1"><rect
       x="555.06384"
       y="57.885227"
       width="126.07878"
       height="43.61216"
       id="rect2" /><rect
       x="549.51318"
       y="51.541641"
       width="134.00827"
       height="26.167295"
       id="rect1" /></defs><g
     inkscape:label="Layer 1"
     inkscape:groupmode="layer"
     id="layer1"
     transform="translate(187.64739,14.076123)"><g
       id="g63"
       transform="translate(-244.58326,-38.507073)"
       style="fill:#b3b3b3;fill-opacity:1"><rect
         style="fill:#b3b3b3;fill-opacity:1;stroke-width:0.264999"
         id="rect34"
         width="22.104395"
         height="5.7857141"
         x="89.416458"
         y="50.60239"
         transform="rotate(-0.16552)" /><rect
         style="fill:#b3b3b3;fill-opacity:1;stroke-width:0.264999"
         id="rect35"
         width="6.9725275"
         height="4.5989013"
         x="97.056564"
         y="55.794712"
         transform="rotate(-0.16552)" /><rect
         style="fill:#b3b3b3;fill-opacity:1;stroke-width:0.283296"
         id="rect36"
         width="35.381866"
         height="5.3406596"
         x="81.702164"
         y="60.17107"
         ry="2.6703298"
         transform="rotate(-0.16552)" /><rect
         style="fill:#b3b3b3;fill-opacity:1;stroke-width:0.248691"
         id="rect37"
         width="11.562177"
         height="4.4793386"
         x="124.47111"
         y="-38.181755"
         ry="2.2396693"
         transform="matrix(0.71417191,0.69997034,-0.69247309,0.7214437,0,0)" /><rect
         style="fill:#b3b3b3;fill-opacity:1;stroke-width:0.252576"
         id="rect38"
         width="11.827572"
         height="4.5166864"
         x="122.90683"
         y="-37.309647"
         ry="2.2583432"
         transform="matrix(0.71107204,0.70311916,-0.70859763,0.70561278,0,0)" /><rect
         style="fill:#b3b3b3;fill-opacity:1;stroke-width:0.241909"
         id="rect39"
         width="45.692303"
         height="5.5631866"
         x="80.366989"
         y="81.237"
         ry="0"
         transform="rotate(-0.16552)" /><rect
         style="fill:#b3b3b3;fill-opacity:1;stroke-width:0.196876"
         id="rect40"
         width="26.703291"
         height="6.304945"
         x="60.28236"
         y="-86.709068"
         ry="0"
         transform="rotate(89.834487)" /><rect
         style="fill:#b3b3b3;fill-opacity:1;stroke-width:0.264999"
         id="rect41"
         width="6.0842266"
         height="22.553596"
         x="-37.843693"
         y="80.096321"
         transform="rotate(-68.32351)" /><rect
         style="fill:#b3b3b3;fill-opacity:1;stroke-width:0.236649"
         id="rect42"
         width="5.2189021"
         height="20.968266"
         x="-37.803013"
         y="75.683647"
         transform="matrix(0.23992448,-0.97079156,0.96861294,0.24857386,0,0)" /><rect
         style="fill:#b3b3b3;fill-opacity:1;stroke-width:0.198881"
         id="rect43"
         width="5.1702728"
         height="14.948676"
         x="-83.540268"
         y="-40.100204"
         transform="matrix(-0.93964039,-0.34216362,0.32825497,-0.94458916,0,0)" /><rect
         style="fill:#b3b3b3;fill-opacity:1;stroke-width:0.278386"
         id="rect44"
         width="6.7272792"
         height="42.676918"
         x="-105.00714"
         y="94.896477"
         transform="matrix(-0.27076816,-0.96264459,0.94858327,-0.3165277,0,0)"
         ry="2.0511808" /><rect
         style="fill:#b3b3b3;fill-opacity:1;stroke-width:0.284336"
         id="rect60"
         width="6.5053549"
         height="39.433769"
         x="-152.36563"
         y="12.502096"
         ry="2.4732068"
         transform="matrix(-0.77359369,-0.63368195,0.67999048,-0.73322094,0,0)" /><rect
         style="fill:#b3b3b3;fill-opacity:1;stroke-width:0.264999"
         id="rect61"
         width="5.2187977"
         height="6.6087289"
         x="-85.772026"
         y="-62.241169"
         ry="0"
         transform="scale(-1)" /><rect
         style="fill:#b3b3b3;fill-opacity:1;stroke-width:0.222054"
         id="rect62"
         width="6.1199307"
         height="9.3346262"
         x="-78.960045"
         y="-150.38303"
         ry="0"
         transform="matrix(-0.76795789,0.64050033,-0.68480337,-0.72872789,0,0)" /><rect
         style="fill:#b3b3b3;fill-opacity:1;stroke-width:0.264999"
         id="rect63"
         width="0.052450225"
         height="0.31470135"
         x="-163.45082"
         y="-58.963017"
         transform="scale(-1)" /><path
         id="path63"
         style="fill:#b3b3b3;fill-opacity:1;stroke-width:0.300667"
         d="m 165.48846,76.019074 c 0,2.30745 -1.85973,4.178 -4.15384,4.178 -2.29412,0 -4.15385,-1.87055 -4.15385,-4.178 0,-2.30745 2.05116,-9.75671 4.34527,-9.75671 2.29411,0 3.96242,7.44926 3.96242,9.75671 z"
         sodipodi:nodetypes="sssss" /></g><g
       id="path1-1"
       style="fill:#b3b3b3;fill-opacity:1"
       transform="matrix(1.0337238,-0.07096726,0.06801203,1.0786407,-96.498372,-185.71466)"><path
         style="baseline-shift:baseline;display:inline;overflow:visible;vector-effect:none;fill:#b3b3b3;fill-opacity:1;stroke-linejoin:round;enable-background:accumulate;stop-color:#000000;stop-opacity:1"
         d="m -97.550688,153.53526 77.416531,77.41653"
         id="path2-5" /><path
         style="baseline-shift:baseline;display:inline;overflow:visible;vector-effect:none;fill:#b3b3b3;fill-opacity:1;stroke-linejoin:round;enable-background:accumulate;stop-color:#000000;stop-opacity:1"
         d="m -96.773437,152.75781 -1.554688,1.55469 77.416016,77.41797 1.55664,-1.55664 z"
         id="path3-2" /></g></g></svg>
