<?xml version="1.0" encoding="UTF-8" standalone="no"?>
<!-- Created with Inkscape (http://www.inkscape.org/) -->

<svg
   width="117.56067mm"
   height="99.173927mm"
   viewBox="0 0 117.56067 99.173929"
   version="1.1"
   id="svg1"
   xml:space="preserve"
   inkscape:version="1.4.2 (f4327f4, 2025-05-13)"
   sodipodi:docname="warrenty.svg"
   xmlns:inkscape="http://www.inkscape.org/namespaces/inkscape"
   xmlns:sodipodi="http://sodipodi.sourceforge.net/DTD/sodipodi-0.dtd"
   xmlns="http://www.w3.org/2000/svg"
   xmlns:svg="http://www.w3.org/2000/svg"><sodipodi:namedview
     id="namedview1"
     pagecolor="#ffffff"
     bordercolor="#000000"
     borderopacity="0.25"
     inkscape:showpageshadow="2"
     inkscape:pageopacity="0.0"
     inkscape:pagecheckerboard="0"
     inkscape:deskcolor="#d1d1d1"
     inkscape:document-units="mm"
     inkscape:zoom="0.37905794"
     inkscape:cx="104.20571"
     inkscape:cy="328.44583"
     inkscape:window-width="1920"
     inkscape:window-height="1111"
     inkscape:window-x="2391"
     inkscape:window-y="-9"
     inkscape:window-maximized="1"
     inkscape:current-layer="layer1" /><defs
     id="defs1" /><g
     inkscape:label="Layer 1"
     inkscape:groupmode="layer"
     id="layer1"
     transform="translate(-26.111374,-40.085398)"><g
       id="g2"
       transform="translate(1.0180037,-134.19447)"><path
         style="fill:#b3b3b3;stroke-width:2.60105"
         d="m 44.474024,272.53696 c -0.600557,-0.46111 -1.452194,-1.5148 -1.892526,-2.34156 -1.110311,-2.08465 -1.145061,-90.23832 -0.03642,-92.67127 0.420225,-0.92233 1.518702,-2.0208 2.441061,-2.44105 2.350441,-1.07095 71.758061,-1.07095 74.108541,0 2.89801,1.32041 3.20514,3.17299 3.20514,19.33304 v 15.21501 l -1.75553,2.3016 c -0.96551,1.26588 -2.04942,2.30159 -2.40867,2.30159 -0.39533,0 -0.65318,-7.06277 -0.65318,-17.89308 V 178.44815 H 82.040391 46.598355 v 45.42089 45.42088 h 35.442036 35.442049 v -11.05706 c 0,-10.86751 0.0309,-11.09754 1.80216,-13.41979 0.99122,-1.29953 2.07512,-2.36276 2.40868,-2.36276 0.90693,0 0.76081,25.74802 -0.15762,27.76363 -0.42023,0.92233 -1.51871,2.0208 -2.44107,2.44106 -2.49703,1.13772 -73.130449,1.02598 -74.620515,-0.1181 z m 42.039537,-9.08046 c 0,-0.4309 1.81045,-7.81365 3.49674,-14.25914 0.51902,-1.98386 5.00737,-7.13279 20.396599,-23.39862 l 19.73111,-20.85506 2.69323,0.193 c 3.27164,0.23434 6.21567,1.67561 7.68091,3.76029 1.49725,2.13015 2.6084,6.52513 1.94627,7.69828 -0.29982,0.53126 -9.27489,10.22398 -19.94453,21.53931 l -19.39937,20.57339 -7.254709,2.21059 c -3.99009,1.2158 -7.72529,2.39116 -8.30048,2.61186 -0.57516,0.22084 -1.04577,0.18755 -1.04577,-0.0739 z m 9.15078,-9.45284 c -1.69544,-1.76968 -1.938,-1.84532 -2.37432,-0.74047 -0.26728,0.6768 -0.50772,1.89833 -0.53433,2.71456 -0.045,1.38286 0.11678,1.43334 2.37432,0.74047 l 2.42269,-0.74354 z m 22.877719,-17.80493 16.35549,-17.26269 -3.10511,-3.10512 -3.10511,-3.10511 -16.5706,17.44297 -16.570609,17.44297 2.85305,2.92484 c 1.56919,1.60867 3.063289,2.92483 3.320239,2.92483 0.25699,0 7.82714,-7.7682 16.82265,-17.26269 z m 18.14647,-25.12865 c -0.85418,-0.90921 -2.33774,-1.65314 -3.29686,-1.65314 -1.6725,0 -1.61833,0.12823 1.3243,3.13525 2.76726,2.82782 3.09055,2.98991 3.29686,1.65316 0.13032,-0.84462 -0.43927,-2.19319 -1.3243,-3.13527 z m -82.52015,4.19653 v -2.40869 h 27.871911 27.871889 v 2.40869 2.40867 H 82.040291 54.16838 Z m 0,-12.73162 v -2.06458 h 27.871911 27.871889 v 2.06458 2.06459 H 82.040291 54.16838 Z m 0,-13.07569 v -2.06459 h 27.871911 27.871889 v 2.06459 2.06458 H 82.040291 54.16838 Z"
         id="path2" /><path
         d="m 139.74468,270.53706 c -253.91141,-196.945121 0,0 0,0 z"
         style="fill:#999999;fill-opacity:1;stroke:#b3b3b3;stroke-width:5.88388;stroke-linejoin:round;stroke-dasharray:none;stroke-opacity:1"
         id="path1-4"
         sodipodi:nodetypes="cc" /></g></g></svg>
