<?xml version="1.0" encoding="UTF-8" standalone="no"?>
<!-- Created with Inkscape (http://www.inkscape.org/) -->

<svg
   width="135.786mm"
   height="83.920364mm"
   viewBox="0 0 135.786 83.920364"
   version="1.1"
   id="svg1"
   inkscape:version="1.4.2 (f4327f4, 2025-05-13)"
   sodipodi:docname="redengine.svg"
   xmlns:inkscape="http://www.inkscape.org/namespaces/inkscape"
   xmlns:sodipodi="http://sodipodi.sourceforge.net/DTD/sodipodi-0.dtd"
   xmlns="http://www.w3.org/2000/svg"
   xmlns:svg="http://www.w3.org/2000/svg">
  <sodipodi:namedview
     id="namedview1"
     pagecolor="#ffffff"
     bordercolor="#000000"
     borderopacity="0.25"
     inkscape:showpageshadow="2"
     inkscape:pageopacity="0.0"
     inkscape:pagecheckerboard="0"
     inkscape:deskcolor="#d1d1d1"
     inkscape:document-units="mm"
     inkscape:zoom="1.2611162"
     inkscape:cx="230.74796"
     inkscape:cy="165.32973"
     inkscape:window-width="2400"
     inkscape:window-height="1261"
     inkscape:window-x="4791"
     inkscape:window-y="-9"
     inkscape:window-maximized="1"
     inkscape:current-layer="layer1" />
  <defs
     id="defs1" />
  <g
     inkscape:label="Layer 1"
     inkscape:groupmode="layer"
     id="layer1"
     transform="translate(126.73542,-150.28334)">
    <rect
       style="fill:#1a1a1a;stroke-width:0.264999"
       id="rect29"
       width="135.786"
       height="83.920364"
       x="-126.73542"
       y="150.28334"
       ry="41.960182" />
    <g
       id="g83"
       transform="matrix(1.1477307,0,0,1.1477307,-162.85756,130.13948)"
       style="fill:#ff0000">
      <rect
         style="fill:#ff0000;stroke-width:0.264999"
         id="rect30"
         width="31.005493"
         height="3.8571427"
         x="72.220749"
         y="26.828136" />
      <rect
         style="fill:#ff0000;stroke-width:0.264999"
         id="rect31"
         width="13.203297"
         height="3.4120877"
         x="81.715248"
         y="30.314396" />
      <rect
         style="fill:#ff0000;stroke-width:0.284943"
         id="rect32"
         width="35.938187"
         height="4.6730766"
         x="69.810028"
         y="33.225796"
         rx="0"
         ry="2.3365383" />
      <rect
         style="fill:#ff0000;stroke-width:0.278098"
         id="rect33"
         width="34.232143"
         height="4.6730766"
         x="76.856728"
         y="73.280739"
         rx="0"
         ry="2.3365383" />
      <rect
         style="fill:#ff0000;stroke-width:0.263874"
         id="rect34"
         width="30.820055"
         height="4.6730766"
         x="37.991573"
         y="-66.750275"
         rx="0"
         ry="2.3365383"
         transform="rotate(90)" />
      <rect
         style="fill:#ff0000;stroke-width:0.264999"
         id="rect35"
         width="12.535714"
         height="4.8214288"
         x="62.207005"
         y="63.999493"
         ry="2.1494751" />
      <rect
         style="fill:#ff0000;stroke-width:0.264999"
         id="rect36"
         width="12.535714"
         height="4.8214288"
         x="62.098652"
         y="38.006176"
         ry="2.1494751" />
      <rect
         style="fill:#ff0000;stroke-width:0.237208"
         id="rect37"
         width="10.044329"
         height="4.8214288"
         x="101.04295"
         y="38.032406"
         ry="2.1494751" />
      <rect
         style="fill:#ff0000;stroke-width:0.22448"
         id="rect38"
         width="8.9953241"
         height="4.8214288"
         x="33.480297"
         y="-105.85332"
         ry="2.1494751"
         transform="rotate(90)" />
      <rect
         style="fill:#ff0000;stroke-width:0.22509"
         id="rect39"
         width="8.9953241"
         height="4.8476539"
         x="33.545856"
         y="-74.632324"
         ry="2.1611667"
         transform="rotate(90)" />
      <rect
         style="fill:#ff0000;stroke-width:0.237208"
         id="rect40"
         width="10.044329"
         height="4.8214288"
         x="109.20229"
         y="47.304386"
         ry="2.1494751" />
      <rect
         style="fill:#ff0000;stroke-width:0.237208"
         id="rect41"
         width="10.044329"
         height="4.8214288"
         x="109.35064"
         y="64.068123"
         ry="2.1494751" />
      <rect
         style="fill:#ff0000;stroke-width:0.264999"
         id="rect42"
         width="4.5247254"
         height="26.035715"
         x="55.382824"
         y="40.402309"
         ry="0" />
      <rect
         style="fill:#ff0000;stroke-width:0.264999"
         id="rect43"
         width="4.0054946"
         height="4.6730771"
         x="59.239971"
         y="51.157787" />
      <rect
         style="fill:#ff0000;stroke-width:0.228245"
         id="rect44"
         width="9.834527"
         height="4.5591774"
         x="117.79511"
         y="73.351814"
         ry="2.0325592" />
      <rect
         style="fill:#ff0000;stroke-width:0.229781"
         id="rect45"
         width="3.919179"
         height="13.263712"
         x="16.654369"
         y="96.576942"
         transform="matrix(0.79513136,-0.60643723,0.59965127,0.80026143,0,0)" />
      <rect
         style="fill:#ff0000;stroke-width:0.216603"
         id="rect46"
         width="3.6895154"
         height="12.519608"
         x="16.058456"
         y="95.731377"
         transform="matrix(0.79153219,-0.61112748,0.59689197,0.80232162,0,0)" />
      <rect
         style="fill:#ff0000;stroke-width:0.209593"
         id="rect47"
         width="3.6721876"
         height="11.777733"
         x="92.192635"
         y="66.921951"
         transform="matrix(0.96576502,-0.25941845,0.27482246,0.96149499,0,0)" />
      <rect
         style="fill:#ff0000;stroke-width:0.208178"
         id="rect48"
         width="3.6688492"
         height="11.629792"
         x="90.930092"
         y="65.572388"
         transform="matrix(0.96664376,-0.25612467,0.27831843,0.96048886,0,0)" />
      <rect
         style="fill:#ff0000;stroke-width:0.209593"
         id="rect49"
         width="3.6721876"
         height="11.777733"
         x="90.807625"
         y="96.338226"
         transform="matrix(0.95961499,-0.28131666,0.29661957,0.95499572,0,0)" />
      <rect
         style="fill:#ff0000;stroke-width:0.208178"
         id="rect50"
         width="3.6688492"
         height="11.629792"
         x="89.960785"
         y="94.527992"
         transform="matrix(0.96161899,-0.27438826,0.29646146,0.95504482,0,0)" />
      <rect
         style="fill:#ff0000;stroke-width:0.203537"
         id="rect51"
         width="3.6557062"
         height="11.157025"
         x="-127.81751"
         y="-42.647369"
         transform="matrix(-0.96083133,-0.27713384,0.2779755,-0.96058816,0,0)" />
      <rect
         style="fill:#ff0000;stroke-width:0.203537"
         id="rect52"
         width="3.6557062"
         height="11.157025"
         x="-127.01397"
         y="-43.805824"
         transform="matrix(-0.96083133,-0.27713384,0.2779755,-0.96058816,0,0)" />
      <rect
         style="fill:#ff0000;stroke-width:0.203537"
         id="rect53"
         width="3.6557062"
         height="11.157025"
         x="-128.50696"
         y="-15.635652"
         transform="matrix(-0.96083133,-0.27713384,0.2779755,-0.96058816,0,0)" />
      <rect
         style="fill:#ff0000;stroke-width:0.203537"
         id="rect54"
         width="3.6557062"
         height="11.157025"
         x="-128.12985"
         y="-10.30943"
         transform="matrix(-0.94698632,-0.3212739,0.32210341,-0.94670449,0,0)" />
      <rect
         style="fill:#ff0000;stroke-width:0.225224"
         id="rect81"
         width="9.4550352"
         height="4.6174455"
         x="117.91021"
         y="38.129238"
         ry="2.0585356" />
      <path
         id="path82"
         style="fill:#ff0000;fill-opacity:1;stroke-width:0.171681"
         d="m 126.09419,38.399346 a 4.2804873,19.619506 0 0 0 -1.38712,1.10363 4.2804873,19.619506 0 0 1 2.75246,18.2974 4.2804873,19.619506 0 0 1 -2.89318,18.51638 4.2804873,19.619506 0 0 0 1.52784,1.32162 4.2804873,19.619506 0 0 0 4.28067,-19.61951 4.2804873,19.619506 0 0 0 -4.28067,-19.61952 z" />
      <path
         id="path83"
         style="fill:#ff0000;fill-opacity:1;stroke-width:0.171681"
         d="m 123.64639,38.547696 a 4.2804873,19.619506 0 0 0 -1.38712,1.10363 4.2804873,19.619506 0 0 1 2.75246,18.2974 4.2804873,19.619506 0 0 1 -2.89318,18.51638 4.2804873,19.619506 0 0 0 1.52784,1.32162 4.2804873,19.619506 0 0 0 4.28067,-19.61951 4.2804873,19.619506 0 0 0 -4.28067,-19.61952 z" />
    </g>
  </g>
</svg>
