<?xml version="1.0" encoding="UTF-8" standalone="no"?>
<!-- Created with Inkscape (http://www.inkscape.org/) -->

<svg
   width="61.365025mm"
   height="66.273811mm"
   viewBox="0 0 61.365025 66.273811"
   version="1.1"
   id="svg1"
   xml:space="preserve"
   inkscape:version="1.4.2 (f4327f4, 2025-05-13)"
   sodipodi:docname="tires.svg"
   xmlns:inkscape="http://www.inkscape.org/namespaces/inkscape"
   xmlns:sodipodi="http://sodipodi.sourceforge.net/DTD/sodipodi-0.dtd"
   xmlns="http://www.w3.org/2000/svg"
   xmlns:svg="http://www.w3.org/2000/svg"><sodipodi:namedview
     id="namedview1"
     pagecolor="#ffffff"
     bordercolor="#000000"
     borderopacity="0.25"
     inkscape:showpageshadow="2"
     inkscape:pageopacity="0.0"
     inkscape:pagecheckerboard="0"
     inkscape:deskcolor="#d1d1d1"
     inkscape:document-units="mm"
     inkscape:zoom="1.0721378"
     inkscape:cx="85.343507"
     inkscape:cy="-46.169438"
     inkscape:window-width="1920"
     inkscape:window-height="1111"
     inkscape:window-x="2391"
     inkscape:window-y="-9"
     inkscape:window-maximized="1"
     inkscape:current-layer="layer1"
     showguides="false" /><defs
     id="defs1" /><g
     inkscape:label="Layer 1"
     inkscape:groupmode="layer"
     id="layer1"
     transform="translate(-70.273271,-113.25405)"><path
       style="fill:#666666;stroke-width:1.36424"
       d="m 92.391677,178.62231 c 0.35937,-0.57543 0.57647,-0.62223 1.35662,-0.29239 1.66739,0.70496 1.64371,0.97748 -0.085,0.97748 -1.57871,0 -1.66911,-0.0486 -1.27168,-0.68509 z m 4.30842,0.11392 c -6.04784,-1.62636 -11.48142,-7.30124 -14.54499,-15.19094 -8.25277,-21.25351 0.74767,-48.28161 16.67294,-50.06849 l 1.985243,-0.22275 -1.443823,0.48028 c -8.20558,2.72954 -13.96067,10.93414 -16.62606,23.7026 -0.88355,4.23257 -0.89573,13.44522 -0.0235,17.68667 2.47549,12.03635 8.18745,20.52147 15.7471,23.39231 2.349113,0.8921 1.24366,1.02993 -1.767,0.22032 z m 8.361253,0.32109 c 0.3512,-0.0915 0.83849,-0.0856 1.08285,0.0136 0.2444,0.0989 -0.043,0.17375 -0.63852,0.1664 -0.59556,-0.006 -0.79552,-0.0882 -0.44433,-0.17976 z m -3.60953,-0.36096 c 0.3512,-0.0915 0.83849,-0.0856 1.08287,0.0136 0.24437,0.0989 -0.043,0.17374 -0.63855,0.16639 -0.59556,-0.006 -0.79551,-0.0882 -0.44432,-0.17978 z m 7.33647,-0.12102 c -7.71935,-1.33813 -14.518803,-9.91914 -17.278653,-21.80597 -0.62419,-2.68838 -0.76313,-4.48984 -0.78113,-10.12811 -0.0239,-7.46556 0.28418,-9.7649 2.03079,-15.16002 1.91323,-5.90973 5.443,-11.42427 9.094233,-14.20792 2.50118,-1.90687 3.83981,-2.54007 6.58309,-3.11404 9.43666,-1.97442 18.21116,6.13916 22.04177,20.38151 0.77411,2.87817 0.95407,4.48442 1.10585,9.87018 0.1971,6.99453 -0.10683,9.9591 -1.54574,15.08044 -3.62023,12.88461 -12.25884,20.64256 -21.25021,19.08393 z m 9.34426,-6.97896 c 3.19179,-1.46125 6.49804,-5.03263 8.58084,-9.26899 0.9231,-1.87755 2.03283,-4.79439 2.46606,-6.48184 0.99208,-3.86424 1.32827,-11.30816 0.70367,-15.58032 -1.31397,-8.98727 -5.97644,-16.56962 -11.92459,-19.39236 -2.8452,-1.35022 -6.898,-1.31945 -9.79046,0.0744 -7.31521,3.52495 -12.227643,13.70248 -12.227643,25.3331 0,12.57653 5.736483,23.3886 13.807753,26.0247 2.28456,0.74614 5.86833,0.44326 8.38437,-0.70862 z m -8.0437,-2.22257 c -2.55986,-0.70734 -3.15203,-1.05627 -5.39912,-3.18148 -7.678393,-7.26191 -9.528933,-23.05723 -4.0287,-34.38734 1.70583,-3.51394 5.56805,-7.37382 8.2737,-8.26872 3.09979,-1.02527 5.65384,-0.87398 8.44529,0.50025 9.89971,4.87362 13.68864,23.37254 7.43922,36.32093 -3.35622,6.95393 -9.2154,10.54026 -14.73039,9.01636 z m 1.2933,-6.56497 0.10124,-4.40671 -1.12739,-0.58301 c -0.62007,-0.32065 -1.19813,-0.51224 -1.28462,-0.42578 -0.54917,0.54917 -3.02427,6.2428 -3.02427,6.95692 0,1.19396 2.90926,3.08561 4.51191,2.93372 0.6726,-0.0637 0.72883,-0.36945 0.82314,-4.47514 z m 5.90458,3.62272 c 1.02617,-0.55852 1.85365,-1.28944 1.96584,-1.7365 0.1165,-0.4643 -0.32183,-1.90344 -1.09984,-3.61066 -1.73998,-3.81813 -1.8232,-3.90447 -3.11813,-3.23484 l -1.04654,0.54119 v 4.50264 c 0,4.34341 0.027,4.50265 0.76328,4.50265 0.41982,0 1.56074,-0.43402 2.53539,-0.96448 z m -11.945,-7.55384 c 0.785,-1.70724 1.42728,-3.42081 1.42728,-3.80795 0,-0.56619 -0.83597,-2.62086 -1.27272,-3.12809 -0.16512,-0.1918 -4.66475,2.1653 -4.95731,2.59684 -0.15085,0.22255 -0.18644,0.81072 -0.0789,1.30703 0.30163,1.39402 2.69487,6.1362 3.09676,6.1362 0.19677,0 1.00005,-1.39683 1.78505,-3.10403 z m 18.20364,0.31619 c 0.56037,-1.14442 1.09139,-2.73145 1.18004,-3.52671 l 0.16117,-1.44593 -2.388,-1.17311 c -1.3134,-0.6452 -2.47527,-1.17309 -2.58195,-1.17309 -0.10667,0 -0.51977,0.73662 -0.91803,1.63695 l -0.72409,1.63693 1.18007,2.60426 c 1.64799,3.63686 2.11145,4.31863 2.63834,3.88132 0.23848,-0.1979 0.89205,-1.29617 1.45245,-2.44062 z m -8.97398,-2.95606 c 4.77731,-2.16946 6.46239,-11.70015 3.02653,-17.11794 -2.36682,-3.73207 -6.09628,-4.31548 -8.75741,-1.36995 -1.88022,2.08119 -2.79341,4.8698 -2.79341,8.53033 0,5.82508 2.84613,10.34623 6.67762,10.60764 0.19854,0.0136 1.02952,-0.27899 1.84667,-0.65008 z m -3.3341,-0.90264 c -2.55121,-1.12891 -4.10733,-4.62523 -4.10733,-9.22846 0,-3.23923 0.67188,-5.48005 2.19839,-7.33198 2.49273,-3.02411 5.97212,-2.209 7.96661,1.86633 0.68765,1.40511 0.81882,2.27128 0.83036,5.48305 0.0123,3.54322 -0.0633,3.96402 -1.06917,5.92071 -1.62504,3.16102 -3.59445,4.27464 -5.81886,3.29035 z m -8.78943,-5.63105 c 1.18549,-0.59844 2.1715,-1.20754 2.19111,-1.35358 0.19441,-1.44705 0.16281,-3.62253 -0.0591,-4.06474 -0.15193,-0.30286 -1.2664,-1.02388 -2.47659,-1.6023 -1.66107,-0.79391 -2.302283,-0.94969 -2.616353,-0.63562 -0.47227,0.47228 -0.6195,7.57111 -0.17203,8.29514 0.39776,0.64358 0.724253,0.57699 3.132913,-0.6389 z m 23.72319,-3.06722 c 0.05,-2.18139 -0.0676,-4.20981 -0.26178,-4.50759 -0.30157,-0.46276 -0.70815,-0.35788 -2.79822,0.72189 l -2.44537,1.26333 v 2.16572 2.16572 l 2.16571,1.16777 c 3.19273,1.72152 3.23258,1.686 3.33966,-2.97684 z m -19.94832,-7.25882 c 0.30047,-0.71908 0.54628,-1.5963 0.54628,-1.94939 0,-0.84615 -2.8064,-6.84988 -3.20193,-6.84988 -0.38203,0 -2.33755,3.6851 -2.91505,5.49323 -0.2794,0.87484 -0.30975,1.55483 -0.0872,1.95264 0.342,0.61112 3.82512,2.57567 4.66522,2.63128 0.24548,0.0162 0.69216,-0.55881 0.9926,-1.27788 z m 15.96901,0.31479 c 2.37805,-1.13295 2.61173,-1.36733 2.61936,-2.62709 0.005,-1.00623 -2.21359,-5.89333 -2.85747,-6.29127 -0.25783,-0.15935 -1.00013,1.00504 -2.03959,3.1993 l -1.63419,3.44985 0.72142,1.63092 c 0.3968,0.89699 0.80817,1.63091 0.91421,1.63091 0.10604,0 1.13035,-0.44667 2.27626,-0.99262 z m -11.78428,-4.97805 1.07592,-0.55637 -0.10124,-4.40672 -0.10124,-4.40673 -1.11542,0.0469 c -1.57196,0.0661 -4.11839,1.82134 -4.11839,2.83867 0,0.79471 2.7531,7.04058 3.10339,7.04058 0.0996,0 0.66521,-0.25036 1.25697,-0.55637 z m 7.49966,-2.70761 c 0.82238,-1.7952 1.49522,-3.4724 1.49522,-3.7271 0,-0.99782 -3.17737,-3.11559 -4.67446,-3.11559 -0.70625,0 -0.73982,0.2043 -0.73982,4.50038 v 4.5004 l 0.99261,0.5385 c 0.54594,0.29618 1.0913,0.54501 1.21193,0.55295 0.1206,0.009 0.89215,-1.45433 1.71452,-3.24954 z m -31.351463,46.2173 c -0.29777,-0.19245 -0.37899,-0.3499 -0.18047,-0.3499 0.19852,0 0.60459,0.15745 0.90238,0.3499 0.2978,0.19243 0.37901,0.3499 0.18048,0.3499 -0.19852,0 -0.6046,-0.15747 -0.90239,-0.3499 z m 1.66914,-0.11487 c -0.96443,-0.41186 -0.99354,-0.48019 -0.41081,-0.96381 0.34496,-0.2863 0.73464,-0.81097 0.86596,-1.16597 0.21361,-0.57744 0.36513,-0.53003 1.43817,0.45006 0.9833,0.8981 1.12016,1.19098 0.75953,1.62554 -0.52698,0.63496 -1.25792,0.64988 -2.65285,0.0541 z m 11.61843,0.22927 c 0.260563,-0.10423 0.571893,-0.0914 0.691833,0.0285 0.11992,0.11991 -0.0933,0.20524 -0.47375,0.18957 -0.420493,-0.0173 -0.506033,-0.10283 -0.218083,-0.21808 z m 2.172343,-0.12278 c -2.548933,-0.43013 -5.447093,-1.33717 -6.255613,-1.9578 -0.6532,-0.50142 -0.5772,-0.50492 0.79834,-0.0368 0.83615,0.28457 2.54165,0.71636 3.790023,0.95955 1.24835,0.24319 2.75702,0.65229 3.35259,0.90914 1.2034,0.51895 0.81551,0.54792 -1.68534,0.12591 z M 83.383877,176.6801 c -1.08513,-0.7584 -1.48639,-1.35886 -0.88893,-1.3302 0.45192,0.0216 2.42158,1.74646 2.22214,1.94589 -0.1023,0.1023 -0.70228,-0.17472 -1.33321,-0.61569 z m 1.14499,-0.68845 c -0.57272,-0.43398 -1.10212,-0.8332 -1.17646,-0.88714 -0.0744,-0.0539 0.29113,-0.60467 0.81214,-1.22387 0.52102,-0.61919 0.9473,-1.38215 0.9473,-1.69547 0,-0.50015 0.0841,-0.49359 0.68894,0.0538 0.37889,0.3429 0.88549,1.09804 1.12576,1.6781 0.36452,0.88005 0.33874,1.20436 -0.15583,1.95915 -0.72374,1.10459 -0.92298,1.11485 -2.24185,0.11541 z m 13.57727,-0.0642 c -3.15254,-0.94869 -5.31396,-2.00792 -6.28235,-3.07873 -0.84683,-0.93634 -0.57772,-0.95691 1.15316,-0.0881 0.73655,0.36973 2.44592,1.0361 3.79859,1.4809 1.35268,0.4448 2.89575,1.19297 3.429053,1.66261 1.17133,1.03151 1.24874,1.03065 -2.098453,0.0234 z m -18.49881,-2.40831 c -0.98184,-1.0705 -1.26459,-1.79168 -0.70248,-1.79168 0.4951,0 2.62446,2.37936 2.36319,2.64062 -0.40051,0.40052 -0.61562,0.29055 -1.66071,-0.84894 z m 1.25226,-0.96983 -1.13966,-1.43893 0.89027,-0.83638 c 0.48965,-0.45999 1.08332,-1.37024 1.31928,-2.02276 l 0.42901,-1.18639 0.62537,1.02834 c 1.07608,1.76948 1.02138,3.56295 -0.15022,4.92501 l -0.8344,0.97005 z m 13.97468,0.11746 c -3.39779,-1.41245 -5.43213,-2.89989 -6.3322,-4.62992 l -0.51167,-0.98346 1.61558,1.09033 c 0.88856,0.59968 2.6371,1.55353 3.88563,2.11965 2.09594,0.95034 3.01804,1.65664 3.67855,2.81767 0.35139,0.61767 -0.005,0.55432 -2.33589,-0.41427 z m -18.53014,-3.54427 c -0.65657,-1.10102 -0.78896,-1.5955 -0.47858,-1.78732 0.4518,-0.27923 2.47291,2.53604 2.18154,3.03871 -0.33422,0.57666 -0.83018,0.21219 -1.70296,-1.25139 z m 1.49026,-1.07391 -0.91124,-1.54302 1.0395,-1.18393 c 0.57174,-0.65115 1.3051,-1.69753 1.62974,-2.32528 l 0.59022,-1.14137 0.49938,1.18767 c 0.27466,0.65323 0.49938,1.63077 0.49938,2.17233 0,1.08071 -1.42574,4.03995 -2.04603,4.24671 -0.21433,0.0715 -0.79976,-0.56445 -1.30095,-1.41311 z m 15.36403,0.9815 c -1.38307,-0.60141 -5.19232,-3.15059 -5.79743,-3.87974 -0.23592,-0.28425 -0.69211,-1.14668 -1.01375,-1.91648 l -0.5848,-1.39965 1.20876,0.97648 c 0.66482,0.53707 1.93967,1.40646 2.83305,1.93201 0.89334,0.52552 1.98765,1.17746 2.43178,1.44874 0.63036,0.38504 2.59768,3.41699 2.17769,3.35617 -0.0537,-0.009 -0.61856,-0.24066 -1.2553,-0.51753 z m -19.25656,-4.66434 c -0.71118,-1.60774 -0.73066,-3.0287 -0.0356,-2.59914 0.17048,0.10529 0.59639,0.94158 0.94648,1.85827 0.46037,1.20547 0.52738,1.77587 0.24208,2.06115 -0.28527,0.28528 -0.60433,-0.0801 -1.15292,-1.32028 z m 1.68314,-0.97774 c -0.84346,-2.02639 -0.8027,-2.22071 0.96565,-4.60431 0.9367,-1.26262 1.71929,-2.56205 1.73909,-2.88762 0.0709,-1.16722 0.61432,1.234 0.642,2.83709 0.0314,1.815 -0.90113,4.1589 -2.06723,5.19627 -0.76484,0.6804 -0.77223,0.67728 -1.27951,-0.54143 z m 14.21925,-0.0123 c -3.28333,-2.2429 -4.84474,-4.09148 -5.34808,-6.33169 l -0.3227,-1.43624 1.56782,1.56781 c 0.86229,0.86229 2.32595,2.0486 3.25254,2.63624 1.35711,0.86066 1.80895,1.42117 2.32353,2.88235 0.35134,0.99768 0.52908,1.80882 0.39498,1.80254 -0.1341,-0.006 -0.97475,-0.51073 -1.86809,-1.12101 z m -17.49094,-3.62712 c -0.77402,-2.29181 -0.94572,-3.66301 -0.49431,-3.94736 0.34825,-0.21939 0.59464,0.0657 0.90248,1.04434 0.2329,0.74035 0.43594,1.70198 0.45119,2.13695 0.0317,0.90254 -0.61776,1.48146 -0.85936,0.76607 z m 1.27507,-3.02101 -0.44882,-2.00552 1.61611,-1.72775 c 0.88885,-0.95025 1.91772,-2.28116 2.28637,-2.95756 l 0.67028,-1.22985 0.10819,2.0731 c 0.0768,1.47233 -0.0996,2.54275 -0.60871,3.69375 -0.75581,1.70861 -2.47272,4.15936 -2.91392,4.15936 -0.14339,0 -0.46264,-0.90249 -0.7095,-2.00553 z m 14.55586,0.814 c -1.59924,-1.26811 -3.43685,-3.27753 -4.02668,-4.40324 -0.20805,-0.39705 -0.49654,-1.53406 -0.64111,-2.52668 l -0.26283,-1.80476 1.4543,1.80476 c 0.79989,0.99262 2.11414,2.29205 2.92059,2.88763 1.23189,0.90977 1.5312,1.39034 1.87254,3.00648 0.22344,1.058 0.34623,1.98367 0.27282,2.05706 -0.0734,0.0734 -0.78871,-0.38618 -1.58963,-1.02125 z m -17.23568,-4.28508 c -0.39661,-1.48108 -0.25238,-3.80521 0.26268,-4.23266 0.41119,-0.34126 0.52865,-0.0202 0.6772,1.85081 0.12114,1.52575 0.0339,2.41987 -0.26761,2.74282 -0.36643,0.39249 -0.488,0.32722 -0.67227,-0.36097 z m 1.8074,-2.8251 -0.23832,-2.28021 1.90554,-2.01834 c 1.04805,-1.11009 2.27612,-2.50562 2.72899,-3.1012 l 0.82343,-1.08286 -0.14629,1.86798 c -0.17391,2.22057 -1.53494,5.10123 -3.45064,7.30345 l -1.38439,1.5914 z m 13.61141,-0.18283 c -2.17684,-2.30196 -3.11593,-4.43192 -2.954,-6.70006 l 0.11419,-1.59972 0.60507,1.10374 c 0.33277,0.60706 1.42444,1.97649 2.42589,3.04317 1.63338,1.73978 1.84528,2.15565 2.05846,4.03984 0.1307,1.15522 0.1008,2.10041 -0.0663,2.10041 -0.16718,0 -1.14967,-0.89431 -2.1833,-1.98738 z m -15.9466,-5.20523 c 0.10273,-1.42005 0.37813,-2.43201 0.76798,-2.82187 0.56983,-0.56983 0.60785,-0.45704 0.60785,1.803 0,2.08964 -0.1023,2.4656 -0.76799,2.82185 -0.7514,0.40214 -0.76453,0.36321 -0.60784,-1.80298 z m 2.20312,-1.42365 0.19503,-2.29958 3.05303,-2.93422 3.05304,-2.93423 -0.45513,1.92263 c -0.51243,2.16471 -2.29268,4.95262 -4.53451,7.10117 l -1.50648,1.44382 z m 14.20658,0.32971 c -2.3487,-2.60439 -3.08379,-4.81066 -2.52828,-7.58824 l 0.23321,-1.16598 0.44047,1.0476 c 0.24227,0.5762 1.209,1.99112 2.14829,3.14433 l 1.70781,2.09672 -0.30601,2.00316 -0.30601,2.00314 z m -15.68875,-5.70038 c 0.18284,-1.19077 0.57143,-2.26622 0.91163,-2.52295 0.32611,-0.2461 0.63104,-0.40853 0.6776,-0.36094 0.20091,0.20527 -0.6718,4.09865 -1.01051,4.50817 -0.72976,0.8823 -0.89317,0.42361 -0.57872,-1.62428 z m 16.78174,-0.4404 c -2.2339,-2.65485 -2.83447,-4.82351 -1.99925,-7.21941 l 0.4114,-1.18012 0.48065,1.14317 c 0.26437,0.62873 1.03964,1.82588 1.72284,2.66032 l 1.24216,1.51714 -0.42823,2.13446 -0.42821,2.13447 z m -14.49366,-0.82293 c 0.33857,-2.05415 0.3896,-2.12499 2.87871,-3.9974 1.19115,-0.89604 2.68751,-2.05539 3.32528,-2.57634 l 1.15957,-0.94717 -0.78901,1.91056 c -0.54333,1.3157 -1.6091,2.72537 -3.42291,4.52748 -1.44865,1.4393 -2.8073,2.61691 -3.0192,2.61691 -0.2523,0 -0.29801,-0.52947 -0.13247,-1.53404 z m -1.27223,-3.45599 c 0,-1.38237 1.43783,-4.00898 2.20512,-4.02827 0.45891,-0.0109 -1.00893,3.69236 -1.59277,4.01909 -0.36802,0.20595 -0.61235,0.20962 -0.61235,0.01 z m 2.69717,-1.92732 c 0.65844,-2.32439 1.07098,-2.84129 3.38426,-4.24022 1.32052,-0.7986 2.9473,-1.80984 3.61508,-2.24721 l 1.21413,-0.79523 -0.56346,1.05404 c -0.3099,0.57973 -0.93747,1.48304 -1.39462,2.00735 -0.94565,1.08465 -4.59143,4.04604 -5.73365,4.65734 -0.69187,0.37028 -0.73899,0.3309 -0.52174,-0.43607 z m 13.89869,-0.91381 c -1.15811,-1.82613 -1.39064,-3.71429 -0.65602,-5.32663 0.45596,-1.00074 1.02492,-1.22589 1.02492,-0.40558 0,0.28258 0.57272,1.26408 1.27271,2.18111 l 1.27272,1.66734 -0.63554,1.78935 c -0.34954,0.98416 -0.7634,1.78938 -0.9197,1.78938 -0.1563,0 -0.76788,-0.76273 -1.35909,-1.69497 z m -13.9124,-4.39453 c 0.48999,-0.96695 1.2003,-1.83899 1.5785,-1.93788 0.62688,-0.16394 0.6064,-0.0327 -0.23173,1.48735 -0.50562,0.91694 -1.0914,1.7865 -1.3017,1.93235 -0.87343,0.60577 -0.88643,0.17852 -0.045,-1.48182 z m 2.43976,-0.81823 c 0.7993,-1.3784 1.40762,-1.8221 4.88073,-3.55992 3.74182,-1.87224 3.92442,-1.92675 3.20828,-0.9578 -0.744,1.00661 -5.32724,4.23272 -7.76836,5.46806 l -1.23374,0.62436 z m 14.26643,0.43829 c -1.40533,-1.67016 -1.60295,-3.31033 -0.5953,-4.94074 0.81193,-1.31373 0.82596,-1.3196 1.13828,-0.4753 0.17392,0.47016 0.71947,1.38353 1.21234,2.02971 l 0.89612,1.17487 -0.84955,1.67163 -0.84953,1.67163 z m -14.45812,-3.40019 c 0.82864,-1.44062 1.64689,-2.33983 2.27978,-2.50534 0.6583,-0.17214 0.63319,-0.0582 -0.26407,1.19785 -0.8911,1.24748 -2.62995,2.37538 -2.01571,1.30749 z m 2.64846,-0.90984 c 0,-0.92915 2.54003,-2.48831 6.05226,-3.71511 3.16559,-1.10572 3.70894,-1.21677 2.97156,-0.60728 -1.57752,1.30392 -9.02382,4.87066 -9.02382,4.32239 z m 14.4643,-0.63923 c -0.41146,-0.52307 -0.7481,-1.34298 -0.7481,-1.822 0,-1.01321 1.87951,-2.98616 2.11166,-2.21661 0.0793,0.26278 0.55279,0.91658 1.05227,1.45292 l 0.90816,0.97516 -1.04343,1.25474 c -0.57389,0.6901 -1.15345,1.26646 -1.28794,1.28079 -0.13451,0.0143 -0.58115,-0.40191 -0.99262,-0.925 z m -14.10334,-2.42889 c 0,-0.28807 2.91335,-2.12893 3.08987,-1.95239 0.27295,0.27293 -1.96574,2.08376 -2.57615,2.08376 -0.28254,0 -0.51372,-0.0591 -0.51372,-0.13137 z m 2.88761,-0.6788 c 0,-0.0753 0.47681,-0.48943 1.05959,-0.9203 0.98026,-0.72476 7.81748,-2.50708 8.18968,-2.13487 0.0875,0.0875 -1.5925,0.72982 -3.73306,1.42767 -5.16435,1.68365 -5.51621,1.78745 -5.51621,1.6275 z m 14.63906,-0.71394 c -0.80835,-1.1541 -0.70121,-1.63388 0.50402,-2.25715 1.01328,-0.52397 1.11039,-0.50676 1.965523,0.34837 l 0.89957,0.89957 -1.187433,0.90571 c -1.4452,1.10233 -1.48089,1.10402 -2.18168,0.10358 z m -13.5562,-1.53472 c 0,-0.26908 2.0776,-1.27428 2.59898,-1.25748 0.25802,0.009 -0.0994,0.32638 -0.79421,0.70678 -1.28051,0.70105 -1.80477,0.86103 -1.80477,0.5507 z m 4.15096,-1.0731 c 0.59558,-0.25951 2.21986,-0.56637 3.60953,-0.68191 l 2.52667,-0.2101 -2.52667,0.51017 c -1.38967,0.28059 -3.01395,0.58745 -3.60953,0.68191 l -1.08286,0.17173 z m 13.201443,0.0136 c -0.4685,-0.56451 -0.29805,-0.72686 1.11774,-1.06477 1.0179,-0.24294 2.10417,0.0123 2.10417,0.49451 0,0.26271 -1.91914,1.07956 -2.53634,1.07956 -0.1446,0 -0.45311,-0.22919 -0.68557,-0.5093 z"
       id="path1" /><g
       id="g184"
       transform="translate(1.9251721,0.69800226)"
       style="fill:#333333"><path
         style="fill:#333333;stroke-width:1.36424"
         d="m 70.164747,133.05216 c 0,-1.38237 1.437832,-4.00898 2.205126,-4.02827 0.458912,-0.0109 -1.008928,3.69236 -1.592769,4.01909 -0.368024,0.20595 -0.612357,0.20962 -0.612357,0.01 z"
         id="path169" /><path
         style="fill:#333333;stroke-width:1.36424"
         d="m 69.148897,137.77148 c 0.182844,-1.19077 0.571435,-2.26622 0.911638,-2.52295 0.326111,-0.2461 0.631035,-0.40853 0.6776,-0.36094 0.200904,0.20527 -0.671808,4.09865 -1.010517,4.50817 -0.729754,0.8823 -0.893172,0.42361 -0.578721,-1.62428 z"
         id="path166" /><path
         style="fill:#333333;stroke-width:1.36424"
         d="m 70.631074,143.14215 0.195026,-2.29958 3.053035,-2.93422 3.053035,-2.93423 -0.455126,1.92263 c -0.512432,2.16471 -2.292685,4.95262 -4.534508,7.10117 l -1.506488,1.44382 z"
         id="path164" /><path
         style="fill:#333333;stroke-width:1.36424"
         d="m 68.427954,144.5658 c 0.10273,-1.42005 0.378126,-2.43201 0.767976,-2.82187 0.569836,-0.56983 0.607855,-0.45704 0.607855,1.803 0,2.08964 -0.102303,2.4656 -0.767998,2.82185 -0.751399,0.40214 -0.76453,0.36321 -0.607833,-1.80298 z"
         id="path163" /><path
         style="fill:#333333;stroke-width:1.36424"
         d="m 70.76314,149.95386 -0.238316,-2.28021 1.905534,-2.01834 c 1.048057,-1.11009 2.276119,-2.50562 2.728994,-3.1012 l 0.823427,-1.08286 -0.146286,1.86798 c -0.173915,2.22057 -1.534939,5.10123 -3.45064,7.30345 l -1.384387,1.5914 z"
         id="path161" /><path
         style="fill:#333333;stroke-width:1.36424"
         d="m 68.955737,152.77896 c -0.396603,-1.48108 -0.252376,-3.80521 0.262681,-4.23266 0.411196,-0.34126 0.528658,-0.0202 0.677205,1.85081 0.121142,1.52575 0.03392,2.41987 -0.267609,2.74282 -0.366435,0.39249 -0.488003,0.32722 -0.672277,-0.36097 z"
         id="path160" /><path
         style="fill:#333333;stroke-width:1.36424"
         d="m 70.360488,159.27105 c -0.774014,-2.29181 -0.945721,-3.66301 -0.494308,-3.94736 0.348247,-0.21939 0.594638,0.0657 0.902486,1.04434 0.232896,0.74035 0.435934,1.70198 0.451189,2.13695 0.03168,0.90254 -0.617765,1.48146 -0.859367,0.76607 z"
         id="path157" /><path
         style="fill:#333333;stroke-width:1.36424"
         d="m 103.10853,178.57978 c 0.3512,-0.0915 0.83849,-0.0856 1.08285,0.0136 0.2444,0.0989 -0.043,0.17375 -0.63852,0.1664 -0.59556,-0.006 -0.79552,-0.0882 -0.44433,-0.17976 z"
         id="path124" /><g
         id="g183"
         style="fill:#333333"><path
           style="fill:#333333;stroke-width:1.36424"
           d="m 99.428576,114.07146 c -0.468503,-0.56451 -0.298055,-0.72686 1.117734,-1.06477 1.0179,-0.24294 2.10417,0.0123 2.10417,0.49451 0,0.26271 -1.91914,1.07956 -2.53634,1.07956 -0.144596,0 -0.453105,-0.22919 -0.685564,-0.5093 z"
           id="path183" /><path
           style="fill:#333333;stroke-width:1.36424"
           d="m 86.227127,114.05786 c 0.595587,-0.25951 2.219868,-0.56637 3.609535,-0.68191 l 2.526671,-0.2101 -2.526671,0.51017 c -1.389667,0.28059 -3.013948,0.58745 -3.609535,0.68191 l -1.082854,0.17173 z"
           id="path182" /><path
           style="fill:#333333;stroke-width:1.36424"
           d="m 82.076175,115.13096 c 0,-0.26908 2.077594,-1.27428 2.598976,-1.25748 0.258019,0.009 -0.09942,0.32638 -0.794208,0.70678 -1.280516,0.70105 -1.804768,0.86103 -1.804768,0.5507 z"
           id="path181" /><path
           style="fill:#333333;stroke-width:1.36424"
           d="m 95.632367,116.66567 c -0.808343,-1.15409 -0.701208,-1.63387 0.504026,-2.25714 1.013279,-0.52397 1.110387,-0.50676 1.965519,0.34837 l 0.899573,0.89957 -1.18743,0.9057 c -1.445203,1.10233 -1.480897,1.10402 -2.181688,0.10358 z"
           id="path180" /><path
           style="fill:#333333;stroke-width:1.36424"
           d="m 80.99331,117.37961 c 0,-0.0753 0.476813,-0.48943 1.059588,-0.9203 0.980264,-0.72475 7.817485,-2.50707 8.18968,-2.13486 0.08747,0.0875 -1.592492,0.72982 -3.733056,1.42767 -5.164349,1.68364 -5.516212,1.78744 -5.516212,1.62749 z"
           id="path179" /><path
           style="fill:#333333;stroke-width:1.36424"
           d="m 78.105699,118.05841 c 0,-0.28807 2.913353,-2.12893 3.089871,-1.95239 0.272953,0.27293 -1.965743,2.08376 -2.576148,2.08376 -0.282544,0 -0.513723,-0.0591 -0.513723,-0.13137 z"
           id="path178" /><path
           style="fill:#333333;stroke-width:1.36424"
           d="m 92.209046,120.4873 c -0.411463,-0.52307 -0.748102,-1.34298 -0.748102,-1.822 0,-1.01321 1.879505,-2.98615 2.111655,-2.21661 0.07926,0.26278 0.552788,0.91658 1.05227,1.45292 l 0.90816,0.97516 -1.043426,1.25474 c -0.573889,0.6901 -1.153453,1.26646 -1.28794,1.28079 -0.134509,0.0143 -0.581154,-0.40191 -0.992617,-0.925 z"
           id="path177" /><path
           style="fill:#333333;stroke-width:1.36424"
           d="m 77.744737,121.12653 c 0,-0.92915 2.540037,-2.48831 6.052262,-3.71511 3.165589,-1.10572 3.708947,-1.21677 2.971566,-0.60728 -1.577525,1.30392 -9.023828,4.87066 -9.023828,4.32239 z"
           id="path176" /><path
           style="fill:#333333;stroke-width:1.36424"
           d="m 75.096285,122.03637 c 0.828633,-1.44062 1.646886,-2.33983 2.279777,-2.50534 0.658303,-0.17214 0.633191,-0.0582 -0.264067,1.19785 -0.891103,1.24748 -2.629955,2.37538 -2.01571,1.30749 z"
           id="path175" /><path
           style="fill:#333333;stroke-width:1.36424"
           d="m 89.554406,125.43656 c -1.405338,-1.67016 -1.602956,-3.31033 -0.595309,-4.94074 0.811938,-1.31373 0.825966,-1.3196 1.138283,-0.4753 0.173926,0.47016 0.719471,1.38353 1.212339,2.02971 l 0.896127,1.17487 -0.849552,1.67163 -0.849531,1.67163 z"
           id="path174" /><path
           style="fill:#333333;stroke-width:1.36424"
           d="m 75.287972,124.99827 c 0.799297,-1.3784 1.407621,-1.8221 4.880727,-3.55992 3.741825,-1.87224 3.924424,-1.92675 3.208282,-0.9578 -0.743996,1.00661 -5.327244,4.23272 -7.76836,5.46806 l -1.233738,0.62436 z"
           id="path173" /><path
           style="fill:#333333;stroke-width:1.36424"
           d="m 72.848211,125.8165 c 0.489988,-0.96695 1.200305,-1.83899 1.578496,-1.93788 0.626886,-0.16394 0.606404,-0.0327 -0.231723,1.48735 -0.505627,0.91694 -1.091399,1.7865 -1.301702,1.93235 -0.873426,0.60577 -0.88643,0.17852 -0.04502,-1.48182 z"
           id="path172" /><path
           style="fill:#333333;stroke-width:1.36424"
           d="m 86.760607,130.21103 c -1.158104,-1.82613 -1.390638,-3.71429 -0.65602,-5.32663 0.455969,-1.00074 1.024929,-1.22589 1.024929,-0.40558 0,0.28258 0.572716,1.26408 1.272707,2.18111 l 1.272717,1.66734 -0.635537,1.78935 c -0.349537,0.98416 -0.7634,1.78938 -0.919703,1.78938 -0.156302,0 -0.76788,-0.76273 -1.359093,-1.69497 z"
           id="path171" /><path
           style="fill:#333333;stroke-width:1.36424"
           d="m 72.861919,131.12484 c 0.658441,-2.32439 1.070981,-2.84129 3.384266,-4.24022 1.320519,-0.7986 2.947297,-1.80984 3.615072,-2.24721 l 1.214131,-0.79523 -0.563456,1.05404 c -0.309896,0.57973 -0.937475,1.48304 -1.394617,2.00735 -0.945657,1.08465 -4.591431,4.04604 -5.733651,4.65734 -0.691873,0.37028 -0.738992,0.3309 -0.521745,-0.43607 z"
           id="path170" /><path
           style="fill:#333333;stroke-width:1.36424"
           d="m 71.436985,136.50815 c 0.33857,-2.05415 0.389594,-2.12499 2.878703,-3.9974 1.191153,-0.89604 2.687518,-2.05539 3.325285,-2.57634 l 1.159565,-0.94717 -0.789002,1.91056 c -0.543337,1.3157 -1.609101,2.72537 -3.422915,4.52748 -1.448649,1.4393 -2.807295,2.61691 -3.019197,2.61691 -0.252301,0 -0.298012,-0.52947 -0.132471,-1.53404 z"
           id="path168" /><path
           style="fill:#333333;stroke-width:1.36424"
           d="m 85.93064,137.33108 c -2.233896,-2.65485 -2.834464,-4.82351 -1.99925,-7.21941 l 0.411399,-1.18012 0.480654,1.14317 c 0.264366,0.62873 1.039639,1.82588 1.72284,2.66032 l 1.242154,1.51714 -0.428222,2.13446 -0.428211,2.13447 z"
           id="path167" /><path
           style="fill:#333333;stroke-width:1.36424"
           d="m 84.837652,143.47186 c -2.348702,-2.60439 -3.08379,-4.81066 -2.528281,-7.58824 l 0.233206,-1.16598 0.440479,1.0476 c 0.242262,0.5762 1.208999,1.99112 2.148288,3.14433 l 1.707809,2.09672 -0.306013,2.00316 -0.306013,2.00314 z"
           id="path165" /><path
           style="fill:#333333;stroke-width:1.36424"
           d="m 84.374547,149.77103 c -2.176835,-2.30196 -3.115921,-4.43192 -2.953996,-6.70006 l 0.114187,-1.59972 0.60507,1.10374 c 0.332778,0.60706 1.424444,1.97649 2.425893,3.04317 1.633381,1.73978 1.845283,2.15565 2.058456,4.03984 0.1307,1.15522 0.100809,2.10041 -0.06635,2.10041 -0.167174,0 -1.149666,-0.89431 -2.1833,-1.98738 z"
           id="path162" /><path
           style="fill:#333333;stroke-width:1.36424"
           d="m 86.191422,157.06404 c -1.599244,-1.26811 -3.436847,-3.27753 -4.026684,-4.40324 -0.208051,-0.39705 -0.496537,-1.53406 -0.641105,-2.52668 l -0.262831,-1.80476 1.454303,1.80476 c 0.799883,0.99262 2.114141,2.29205 2.920585,2.88763 1.231892,0.90977 1.531206,1.39034 1.872539,3.00648 0.223445,1.058 0.34623,1.98367 0.272826,2.05706 -0.07339,0.0734 -0.788714,-0.38618 -1.589633,-1.02125 z"
           id="path159" /><path
           style="fill:#333333;stroke-width:1.36424"
           d="m 71.635563,156.25004 -0.448821,-2.00552 1.61611,-1.72775 c 0.888852,-0.95025 1.917717,-2.28116 2.286371,-2.95756 l 0.670282,-1.22985 0.108191,2.0731 c 0.07681,1.47233 -0.09964,2.54275 -0.608719,3.69375 -0.755804,1.70861 -2.472713,4.15936 -2.913917,4.15936 -0.143385,0 -0.462636,-0.90249 -0.709497,-2.00553 z"
           id="path158" /><path
           style="fill:#333333;stroke-width:1.36424"
           d="m 87.85143,162.89817 c -3.283329,-2.2429 -4.844735,-4.09148 -5.348078,-6.33169 l -0.322697,-1.43624 1.567817,1.56781 c 0.862289,0.86229 2.325947,2.0486 3.252541,2.63624 1.35711,0.86066 1.80895,1.42117 2.323526,2.88235 0.35134,0.99768 0.529085,1.80882 0.394982,1.80254 -0.134104,-0.006 -0.974748,-0.51073 -1.868091,-1.12101 z"
           id="path156" /><path
           style="fill:#333333;stroke-width:1.36424"
           d="m 73.632178,162.91047 c -0.84346,-2.02639 -0.802699,-2.22071 0.965649,-4.60431 0.936707,-1.26262 1.719298,-2.56205 1.739097,-2.88762 0.07094,-1.16722 0.61432,1.234 0.642002,2.83709 0.03136,1.815 -0.90113,4.1589 -2.067235,5.19627 -0.76484,0.6804 -0.772233,0.67728 -1.279513,-0.54143 z"
           id="path155" /><path
           style="fill:#333333;stroke-width:1.36424"
           d="m 71.949044,163.88821 c -0.711182,-1.60774 -0.730661,-3.0287 -0.03563,-2.59914 0.17048,0.10529 0.596387,0.94158 0.946478,1.85827 0.460374,1.20547 0.527378,1.77587 0.242082,2.06115 -0.285275,0.28528 -0.604335,-0.0801 -1.15292,-1.32028 z"
           id="path154" /><path
           style="fill:#333333;stroke-width:1.36424"
           d="m 91.205602,168.55255 c -1.383074,-0.60141 -5.192319,-3.15059 -5.797432,-3.87974 -0.235916,-0.28425 -0.692108,-1.14668 -1.013749,-1.91648 l -0.584802,-1.39965 1.208765,0.97648 c 0.66482,0.53707 1.939671,1.40646 2.833046,1.93201 0.893343,0.52552 1.987654,1.17746 2.431781,1.44874 0.630364,0.38504 2.597685,3.41699 2.177688,3.35617 -0.05366,-0.009 -0.618554,-0.24066 -1.255297,-0.51753 z"
           id="path153" /><path
           style="fill:#333333;stroke-width:1.36424"
           d="m 75.841571,167.57105 -0.911243,-1.54302 1.0395,-1.18393 c 0.571745,-0.65115 1.305105,-1.69753 1.629744,-2.32528 l 0.590221,-1.14137 0.499375,1.18767 c 0.27466,0.65323 0.499385,1.63077 0.499385,2.17233 0,1.08071 -1.425745,4.03995 -2.046027,4.24671 -0.214335,0.0715 -0.799766,-0.56445 -1.300955,-1.41311 z"
           id="path152" /><path
           style="fill:#333333;stroke-width:1.36424"
           d="m 74.351308,168.64496 c -0.656564,-1.10102 -0.78896,-1.5955 -0.478573,-1.78732 0.451797,-0.27923 2.472905,2.53604 2.181539,3.03871 -0.334218,0.57666 -0.83018,0.21219 -1.702966,-1.25139 z"
           id="path151" /><path
           style="fill:#333333;stroke-width:1.36424"
           d="m 92.881451,172.18923 c -3.397793,-1.41245 -5.432129,-2.89989 -6.332203,-4.62992 l -0.511664,-0.98346 1.615576,1.09033 c 0.888564,0.59968 2.637102,1.55353 3.885636,2.11965 2.095931,0.95034 3.018034,1.65664 3.678545,2.81767 0.351393,0.61767 -0.0053,0.55432 -2.33589,-0.41427 z"
           id="path150" /><path
           style="fill:#333333;stroke-width:1.36424"
           d="m 78.906767,172.07177 -1.13966,-1.43893 0.890271,-0.83638 c 0.489657,-0.45999 1.083324,-1.37024 1.319282,-2.02276 l 0.429011,-1.18639 0.625371,1.02834 c 1.07608,1.76948 1.021376,3.56295 -0.150222,4.92501 l -0.834394,0.97005 z"
           id="path149" /><path
           style="fill:#333333;stroke-width:1.36424"
           d="m 77.65451,173.0416 c -0.981842,-1.0705 -1.264589,-1.79168 -0.702477,-1.79168 0.495097,0 2.624461,2.37936 2.363188,2.64062 -0.400507,0.40052 -0.61562,0.29055 -1.660711,-0.84894 z"
           id="path148" /><path
           style="fill:#333333;stroke-width:1.36424"
           d="m 96.153322,175.44991 c -3.152542,-0.94869 -5.313962,-2.00792 -6.282352,-3.07873 -0.846832,-0.93634 -0.577719,-0.95691 1.153164,-0.0881 0.73655,0.36973 2.445917,1.0361 3.798588,1.4809 1.352683,0.4448 2.895751,1.19297 3.429049,1.66261 1.171332,1.03151 1.248737,1.03065 -2.098449,0.0234 z"
           id="path147" /><path
           style="fill:#333333;stroke-width:1.36424"
           d="m 82.576052,175.51411 c -0.572716,-0.43398 -1.10212,-0.8332 -1.176463,-0.88714 -0.07435,-0.0539 0.291131,-0.60467 0.81214,-1.22387 0.52102,-0.61919 0.947301,-1.38215 0.947301,-1.69547 0,-0.50015 0.08406,-0.49359 0.688939,0.0538 0.378895,0.3429 0.885492,1.09804 1.12576,1.6781 0.364525,0.88005 0.338741,1.20436 -0.155823,1.95915 -0.723748,1.10459 -0.922988,1.11485 -2.241854,0.11541 z"
           id="path146" /><path
           style="fill:#333333;stroke-width:1.36424"
           d="m 81.431058,176.20256 c -1.085126,-0.7584 -1.48639,-1.35886 -0.888926,-1.3302 0.451915,0.0216 2.421583,1.74646 2.22214,1.94589 -0.102303,0.1023 -0.702285,-0.17472 -1.333214,-0.61569 z"
           id="path145" /><path
           style="fill:#333333;stroke-width:1.36424"
           d="m 100.06275,177.73863 c -2.548926,-0.43013 -5.447087,-1.33717 -6.255612,-1.9578 -0.653192,-0.50142 -0.577195,-0.50492 0.798348,-0.0368 0.836143,0.28457 2.541648,0.71636 3.790011,0.95955 1.248352,0.24319 2.757023,0.65229 3.352593,0.90914 1.2034,0.51895 0.81551,0.54792 -1.68534,0.12591 z"
           id="path144" /><path
           style="fill:#333333;stroke-width:1.36424"
           d="m 97.890414,177.86141 c 0.260558,-0.10423 0.571884,-0.0914 0.691831,0.0285 0.119915,0.11991 -0.09334,0.20524 -0.473751,0.18957 -0.420488,-0.0173 -0.506032,-0.10283 -0.21808,-0.21808 z"
           id="path143" /><path
           style="fill:#333333;stroke-width:1.36424"
           d="m 86.271985,177.63214 c -0.964433,-0.41186 -0.993545,-0.48019 -0.410812,-0.96381 0.34496,-0.2863 0.73464,-0.81097 0.865959,-1.16597 0.213609,-0.57744 0.365133,-0.53003 1.438173,0.45006 0.983292,0.8981 1.120159,1.19098 0.759527,1.62554 -0.526983,0.63496 -1.257921,0.64988 -2.652847,0.0541 z"
           id="path142" /><path
           style="fill:#333333;stroke-width:1.36424"
           d="m 84.602846,177.74701 c -0.297778,-0.19245 -0.378991,-0.3499 -0.180476,-0.3499 0.198525,0 0.60459,0.15745 0.902379,0.3499 0.297798,0.19243 0.379011,0.3499 0.180486,0.3499 -0.198525,0 -0.604601,-0.15747 -0.902389,-0.3499 z"
           id="path141" /><path
           style="fill:#333333;stroke-width:1.36424"
           d="m 99.499004,178.21882 c 0.351201,-0.0915 0.838486,-0.0856 1.082866,0.0136 0.24437,0.0989 -0.043,0.17374 -0.638547,0.16639 -0.595566,-0.006 -0.79551,-0.0882 -0.444319,-0.17978 z"
           id="path125" /><path
           style="fill:#333333;stroke-width:1.36424"
           d="m 94.74728,178.25869 c -6.047834,-1.62636 -11.481414,-7.30124 -14.544988,-15.19094 -8.252768,-21.25351 0.747665,-48.2816 16.672944,-50.06848 l 1.985233,-0.22275 -1.443817,0.48028 c -8.205585,2.72953 -13.960666,10.93413 -16.626059,23.70259 -0.88355,4.23257 -0.895733,13.44522 -0.02347,17.68667 2.475487,12.03635 8.18745,20.52147 15.747097,23.39231 2.349107,0.8921 1.243658,1.02993 -1.766994,0.22032 z"
           id="path123" /><path
           style="fill:#333333;stroke-width:1.36424"
           d="m 90.438863,178.14477 c 0.359373,-0.57543 0.576471,-0.62223 1.356619,-0.29239 1.667389,0.70496 1.643707,0.97748 -0.08502,0.97748 -1.578709,0 -1.669107,-0.0486 -1.271683,-0.68509 z"
           id="path122" /></g></g></g></svg>
