<?xml version="1.0" encoding="UTF-8" standalone="no"?>
<!-- Created with Inkscape (http://www.inkscape.org/) -->

<svg
   width="111.79439mm"
   height="104.48676mm"
   viewBox="0 0 111.79439 104.48676"
   version="1.1"
   id="svg1"
   xml:space="preserve"
   inkscape:version="1.4.2 (f4327f4, 2025-05-13)"
   sodipodi:docname="tires.svg"
   xmlns:inkscape="http://www.inkscape.org/namespaces/inkscape"
   xmlns:sodipodi="http://sodipodi.sourceforge.net/DTD/sodipodi-0.dtd"
   xmlns="http://www.w3.org/2000/svg"
   xmlns:svg="http://www.w3.org/2000/svg"><sodipodi:namedview
     id="namedview1"
     pagecolor="#ffffff"
     bordercolor="#000000"
     borderopacity="0.25"
     inkscape:showpageshadow="2"
     inkscape:pageopacity="0.0"
     inkscape:pagecheckerboard="0"
     inkscape:deskcolor="#d1d1d1"
     inkscape:document-units="mm"
     inkscape:zoom="1.0721378"
     inkscape:cx="75.083635"
     inkscape:cy="196.33671"
     inkscape:window-width="2400"
     inkscape:window-height="1261"
     inkscape:window-x="4791"
     inkscape:window-y="-9"
     inkscape:window-maximized="1"
     inkscape:current-layer="layer1" /><defs
     id="defs1" /><g
     inkscape:label="Layer 1"
     inkscape:groupmode="layer"
     id="layer1"
     transform="translate(-62.042685,-113.33433)"><path
       style="fill:#1a1a1a;stroke:none;stroke-width:1.92762"
       d="m 64.958887,166.86752 c -6.106508,3.56746 5.103024,11.52323 6.357884,15.81048 0.825522,2.82046 -0.986401,5.65284 2.365902,7.56091 3.491804,1.98748 6.230083,2.20998 9.031144,5.69951 1.744129,2.17283 1.080006,5.10225 3.688171,6.75416 2.75582,1.74544 6.483662,0.904 9.658026,2.9381 2.577939,1.65193 2.690917,5.12357 5.622386,6.24926 2.80389,1.07673 5.67971,-0.72206 8.65805,0.33019 2.9459,1.04077 3.70259,4.36376 7.15006,4.79046 2.85877,0.35381 5.32366,-1.86183 8.1402,-1.58437 3.86337,0.38059 5.23863,3.41493 9.71036,2.05777 11.62753,-3.52893 17.38524,-10.18112 24.91288,-18.91781 1.36132,-1.57997 3.26885,-2.37525 4.42367,-4.17024 1.49687,-2.32666 1.4811,-5.20508 2.80667,-7.48221 1.58348,-2.7202 4.54639,-4.28791 5.89468,-7.28582 1.80142,-4.00544 -2.25616,-4.77234 -2.77084,-8.16813 -0.76123,-5.02247 6.52382,-12.65501 -3.13604,-12.74251 -0.85665,-4.80565 -0.16038,-14.35002 -7.14023,-12.7504 -1.33405,-2.67814 -2.92163,-7.50218 -4.75266,-9.62183 -1.63389,-1.89142 -3.99551,-1.47444 -5.9557,-2.71222 -2.30947,-1.4583 -3.14225,-3.96742 -5.16982,-5.62433 -2.43611,-1.99076 -5.38681,-2.08578 -8.08274,-3.42137 -1.97558,-0.97871 -2.46764,-2.98395 -4.16316,-4.20093 -3.41975,-2.45459 -8.21622,-1.96018 -12.16719,-1.96018 -1.33605,-6.56181 -10.76022,-3.99233 -15.30047,-2.55006 -0.93678,-3.08591 -3.92616,-2.74707 -6.630199,-2.09124 -5.470293,1.32676 -12.374812,3.7754 -16.320513,7.70178 -4.530077,4.50791 -10.826008,11.4062 -13.255694,17.34213 -1.070773,2.61599 -0.217436,5.49593 -1.407258,8.14884 -1.274349,2.84135 -4.577806,3.80221 -5.03208,7.14967 -0.439946,3.24187 2.050019,9.3685 2.864511,12.75039 m 39.781233,-48.45151 -3.5701,0.51003 v 0.51001 l 6.14025,-1.49464 7.63017,1.49464 v -0.51001 h -1.53005 l 0.51001,-2.55008 h -0.51001 l -0.51002,2.04005 -6.6302,-1.53005 v -0.51 c 2.21173,-0.28099 6.0198,-1.83691 7.65023,0 3.0404,-0.88866 4.51859,-0.0208 5.10016,3.06009 l -13.2604,0.51001 v 0.51003 l 12.75039,-0.51003 v 0.51003 h -1.53005 v 0.51001 l 2.55008,-1.53005 4.08012,1.02004 v -0.51003 h -1.02002 v -0.51001 l 5.10015,0.51001 -0.51001,1.53005 c 2.74532,-1.40643 4.9679,-0.5387 5.61016,2.55008 l -7.14021,-2.55008 -0.51002,1.02003 v 0.51001 l 7.14022,1.53005 -0.51001,1.02004 h 0.51001 c 3.09411,-1.74899 12.81954,2.54272 12.24039,6.6302 5.36304,1.4907 13.68785,11.03644 15.30049,16.32051 3.26013,-4.30794 5.43224,0.58596 4.08011,4.08013 h -0.51 l 0.51,-1.02003 -1.53004,0.51 c 5.39712,6.5856 5.71992,17.04187 4.08013,24.99077 h 0.51001 l 2.04008,-3.5701 v -0.51001 c -2.41886,-0.48378 -0.41107,-7.25438 -0.51003,-7.65024 l 3.06009,-1.02004 -2.55006,2.04006 v 7.65024 c 3.58953,1.58462 4.95791,4.93781 0,5.10017 v 0.51001 h 2.55006 l -4.59014,5.10015 0.51003,-6.6302 -1.53005,-1.02004 -1.53005,4.08014 h 0.51001 l 1.53005,-1.53005 c -3.1e-4,2.8159 0.20512,5.1589 -2.04006,7.14023 l -2.55008,-1.53005 c 1.93147,1.45894 3.00305,4.00289 1.53005,6.12019 1.24418,2.36748 -0.9956,3.76232 -3.0601,4.59014 l 1.02004,-4.08013 -3.0601,-4.08014 3.57011,-1.53004 v -0.51001 l -1.53005,0.51001 1.02004,-1.53005 -6.63022,3.57012 v 0.51001 l 3.0601,-1.02004 0.51002,4.08014 v 0.51001 c 3.49441,0.74882 0.13629,5.01123 -1.02003,6.63022 l -4.59017,-0.51003 v 0.51003 c 7.28677,0.0862 2.10348,5.81805 -1.0204,8.5762 -2.97254,2.62453 -5.7887,3.06528 -9.1799,4.57794 -4.59974,2.05172 -7.86851,5.93668 -13.26042,3.67638 V 214.809 l 2.55008,-0.51001 v -0.51003 c -2.47959,0.30653 -5.04228,-0.34926 -7.4338,0.0335 -3.91191,0.62601 -7.83953,3.90333 -10.41676,-1.05348 l 2.55009,-0.51003 v -0.51001 l -8.16027,-2.04006 2.55009,-2.04007 c -2.19616,1.20451 -5.00533,3.38958 -7.64827,3.18878 -6.328818,-0.48082 -1.03255,-4.693 1.52808,-5.73885 v -0.51003 c -3.08292,1.20467 -4.57944,1.82654 -7.650238,0.085 -0.994381,-0.56394 -4.468413,-2.17607 -3.060094,-3.1451 v -0.51001 c -1.507552,0.29236 -11.897688,1.17068 -7.842672,-3.26435 1.213263,-1.32695 4.615414,-1.69223 6.312624,-2.34583 v -0.51001 c -5.828425,2.24452 -9.27973,0.72027 -12.750388,-4.59014 l 4.590142,-0.51001 v -0.51003 c -2.843566,0.35937 -6.390673,1.18196 -9.157866,0.0544 -1.552659,-0.63272 -3.824068,-3.7483 -1.389949,-4.82707 1.700796,-0.75374 5.077348,-0.28945 6.977691,-0.3274 v -0.51001 c -4.998797,0 -7.227953,0.0991 -9.827251,-4.59015 -0.795509,-1.43515 -2.167781,-3.23959 -0.883081,-4.59014 v -0.51003 c -3.568157,-0.29419 -8.606145,-3.96254 -3.570104,-6.6302 l -1.020038,-7.1402 2.040076,1.02001 c -1.675544,-1.71586 -3.706853,-3.58018 -3.948694,-6.12018 -0.186401,-1.95773 1.601394,-5.37781 3.438666,-3.0601 l 2.040076,-0.51001 c -1.613109,-3.07097 -0.0096,-5.62874 1.020018,-8.67027 -3.013697,-0.51312 1.217947,-6.05317 3.060095,-6.6302 l -0.510009,2.03994 h 0.510009 c 1.58325,-5.53186 4.944208,-15.67102 11.73037,-16.83052 1.049338,-3.4546 10.756209,-5.81451 14.280436,-6.6302 l -0.510009,2.04005 c 2.69766,-3.62556 4.81004,-2.29654 6.12019,1.53005 m -6.12019,-1.02002 0.510009,2.04006 H 88.929636 l 2.550066,2.04006 -4.080113,3.57012 -2.040076,-3.57012 h -0.51001 l 2.550086,4.08013 c -4.705318,1.35862 -11.487066,5.52662 -13.260418,10.20032 h 0.51001 l 0.510028,-1.53005 h 0.51001 c 1.047526,1.94605 2.448345,2.35559 4.590142,2.55007 L 69.03902,151.56705 v 0.51 l 12.240379,-14.28043 0.510009,6.12019 -4.590142,2.04006 v -3.0601 h -0.510009 l -4.590142,13.26042 -4.080133,-4.08014 h -0.51001 c 0.983761,2.51828 6.657938,9.04672 0,9.18029 v 0.51003 h 2.550066 c 0.08925,1.71548 1.422949,7.09003 4.173392,4.69913 2.64741,-2.30133 3.1931,-7.47379 5.516922,-10.30931 l 1.530047,3.06009 h 0.510009 c -1.630804,-3.83571 -1.46526,-5.08831 1.530048,-8.16024 1.117093,3.28065 3.313114,7.40277 -1.530048,8.67025 l -2.550085,12.75039 h -0.510009 c -0.917239,-6.08777 -7.294495,-4.47454 -12.24038,-5.10015 v 0.51001 c 2.606276,0.50544 7.422566,-0.0351 9.580902,1.07985 5.959869,3.07856 -3.777362,5.54888 -6.010798,5.55037 v 0.51001 c 3.067671,0 6.509588,0.51644 8.160266,-2.55009 h 0.51001 c -0.912073,4.84091 -1.806044,9.53568 4.590142,9.69031 l 3.570104,-13.77042 c 1.311706,1.31286 3.289867,2.77486 3.900286,4.59014 1.646186,4.89542 -3.743031,11.47157 -2.763376,16.82264 0.36804,2.01023 3.636028,4.79084 5.272133,2.32931 1.23358,-1.85591 1.272633,-5.25908 1.815759,-7.4216 0.512188,-2.03932 1.159425,-4.03987 1.465511,-6.12019 1.854157,1.06665 4.599047,2.55463 5.450397,4.63581 1.80971,4.42396 -1.98656,10.47537 -0.6391,15.24694 0.52568,1.86148 3.66575,4.38805 5.37484,2.24982 1.20461,-1.50707 0.87851,-5.45279 1.1137,-7.34211 0.25597,-2.05617 0.77592,-4.05164 0.94054,-6.12018 10.14745,3.69273 3.9789,9.70461 7.00879,17.33108 0.66477,1.67333 4.12419,4.36303 5.43386,1.82638 0.997,-1.93103 0.23482,-5.30324 0.32781,-7.42709 0.0825,-1.88315 0.45094,-3.72019 0.48994,-5.61019 l 5.10017,1.02004 v -0.51003 l -4.59014,-1.02001 1.53005,-4.59015 6.12019,1.53005 -2.04008,4.59014 v 0.51001 c 5.5307,3.04977 -0.76517,15.35622 9.18029,14.28044 l -5.61017,4.08013 v 0.51001 c 5.61886,-1.66519 8.24166,-8.08892 14.28045,-8.16025 l -2.55009,5.61018 4.08013,-5.61018 c 7.18322,1.93163 5.11585,-4.77891 4.27847,-9.18028 -0.3808,-2.00152 0.68561,-5.09288 -1.72838,-5.61018 v -0.51001 l 4.59014,-1.02004 v -0.51001 c -5.58738,0.82207 -10.55167,2.3917 -16.32051,1.99441 -19.3452,-1.33221 -37.97822,-14.06026 -48.887928,-29.53526 -8.420938,-11.94476 -11.200737,-26.51648 0.436413,-36.78647 3.832742,-3.38243 6.105925,-4.52425 11.220365,-4.52481 v -0.51001 h -1.530052 l -1.020038,-2.04006 m 2.04006,3.57011 v 0.51001 l 3.57012,-0.51001 h -3.57012 m 22.95071,-0.51001 v 0.51001 l 2.04007,0.51001 v -0.51001 l -2.04007,-0.51001 m -4.08012,0.51001 v 0.51001 l 3.57011,0.51003 -3.57011,-1.02004 m -21.420659,1.02004 v 0.51 l 2.040059,-0.51 h -2.040059 m 25.500779,0 v 0.51 h 1.53005 l -1.53005,-0.51 m -26.520818,0.51 -3.060094,2.55009 3.570104,-2.04008 -0.51001,-0.51001 m -4.080132,2.55009 -3.570105,4.59014 3.570105,-4.59014 m 39.78123,0.51001 v 0.51001 l 3.57013,1.53005 v -0.51001 l -3.57013,-1.53005 m -47.431467,1.53005 c -1.172089,2.16456 -2.047247,3.37381 -4.590143,3.5701 l 4.590143,-3.5701 m 53.041657,0 1.02004,2.55008 c 9.07125,6.17068 15.87068,13.53971 21.42066,22.95071 h 0.51003 c -3.10944,-7.42917 -10.27783,-17.19434 -17.85058,-20.40064 l 1.02004,-1.02002 -6.12019,-4.08013 m -1.53005,0.51001 v 0.51002 l 2.04006,1.02002 v -0.51001 l -2.04006,-1.02003 m 3.57011,1.53004 1.53004,1.53005 -2.04005,-1.02002 0.51001,-0.51003 m -32.64102,0.77408 c -13.587433,2.898 -14.977497,17.49302 -8.637212,27.78682 8.265942,13.42015 26.441532,25.15407 42.808272,21.30024 14.09805,-3.31965 14.29493,-17.98077 7.92375,-28.44047 -8.0187,-13.16448 -26.29664,-24.01609 -42.09481,-20.64659 m -18.870574,0.24596 -0.510029,1.53005 h 0.510029 v -1.53005 m 61.711914,40.80125 0.51001,1.53005 -9.18225,5.29812 -10.19835,0.82207 v -0.51001 l 6.63021,-0.51001 v -0.51003 c -14.24534,1.80034 -33.37235,-5.78012 -37.74118,-20.91063 -4.223628,1.40787 -3.319652,-12.94051 -4.080117,-12.75039 l 3.060095,-7.14023 -2.040076,3.0601 c -1.053887,-7.27129 11.967738,-9.23586 16.830518,-9.17832 13.97956,0.16539 28.68263,10.04281 35.48232,21.9287 1.91147,3.34126 7.19864,17.50084 0.72882,18.87058 M 99.639968,136.26657 c 4.437452,-2.6811 8.427342,-4.90251 13.770422,-5.03444 19.69539,-0.48628 42.34802,19.562 37.74117,39.7155 4.29367,-5.77007 0.704,-15.1521 -2.81492,-20.40062 -7.16689,-10.6895 -18.65882,-17.77606 -31.35614,-19.59508 -5.99407,-0.85871 -13.50494,0.15209 -17.340532,5.31464 m 43.351342,-5.61018 0.51001,1.02004 -0.51001,-1.02004 m -60.691892,0.51003 -0.51001,5.10015 c -6.754742,-0.14457 -5.678244,-4.97175 0.51001,-5.10015 m 5.61018,1.02002 -1.020038,5.10017 h 0.510029 l 0.510009,-5.10017 m 9.690294,10.71033 h 0.510029 c 5.029739,-8.69568 15.433439,-8.68011 23.970729,-5.94468 15.40781,4.93682 33.52268,21.85586 23.46075,38.58569 6.58025,-3.99561 4.01987,-14.43696 1.13139,-19.8906 -6.12125,-11.55741 -19.9898,-20.88934 -33.2624,-20.91066 -6.23056,-0.01 -13.523031,1.43153 -15.810498,8.16025 m 57.121788,-2.55007 h -0.51001 l -3.57012,-4.08013 c 2.97832,-0.78421 5.3831,0.99712 4.08013,4.08013 m -55.081712,15.81049 h 0.510012 c -0.377527,-2.80355 -1.608119,-5.83587 -0.757942,-8.67028 2.745202,-9.1522 14.915622,-7.15455 21.668592,-5.61016 0.40883,2.14752 2.0383,2.68994 4.08012,3.0601 l -1.02002,-1.53005 c 5.37813,2.23968 10.89106,5.90748 14.28044,10.71033 l -3.57011,-2.04008 c 1.29415,1.77713 2.33481,2.86946 4.59015,2.55009 3.18053,6.72477 9.43785,17.824 -1.02004,21.93067 2.37573,0.64959 4.81062,-1.3352 6.28153,-3.1077 4.11144,-4.95439 2.87475,-11.96868 0.21094,-17.29292 -4.8975,-9.78872 -15.6676,-17.25069 -26.38309,-19.14409 -13.81079,-2.44035 -21.957529,5.63969 -18.870582,19.14409 m 43.861352,17.34053 c 6.68217,-17.92715 -17.46171,-34.92171 -33.66105,-33.61343 -3.72381,0.30074 -6.47254,2.43892 -9.69029,4.03252 9.66641,-16.67494 35.76973,-0.89825 42.8134,10.20032 3.43912,5.41896 6.30538,14.42331 0.53794,19.38059 m -71.402205,-35.19109 -2.040077,4.59014 h 0.510029 l 1.530048,-4.59014 m 14.280436,0 v 3.06009 h 0.510009 l -0.510009,-3.06009 m 10.710331,1.53005 -0.510009,0.51002 0.510009,-0.51002 m 26.010808,2.55008 -0.51001,0.51001 0.51001,-0.51001 m -36.21113,0.51001 v 2.55009 h 0.510029 l -0.510029,-2.55009 m 37.23117,0 -0.51003,0.51003 0.51003,-0.51003 m -1.02004,0.51003 -0.51001,0.51001 0.51001,-0.51001 m -41.821291,1.53005 1.530047,5.61016 H 80.76937 v 0.51003 l 1.020038,0.51001 -8.160246,15.30047 c -5.818016,-3.02499 -1.188994,-14.55722 3.060095,-17.34053 0.983394,1.7842 2.102473,1.9761 4.080113,2.04006 -4.821726,-1.59954 -4.272779,-5.09859 0.510029,-6.6302 m 53.551661,13.26039 h -0.51003 c -4.82751,6.14674 -13.66425,0.90265 -16.78486,-4.59014 -1.63628,-2.88009 -0.90501,-6.34892 2.50639,-7.38814 1.44161,-0.43915 3.0995,-0.26192 4.58818,-0.26209 v 1.02003 l -3.0601,2.04006 h 0.51001 l 1.53005,-1.53005 v 5.61018 h -0.51001 l -1.02004,-3.5701 h -0.51001 c 0.36342,3.26276 2.22509,5.35163 5.61018,5.10015 v 0.51001 l -1.02004,0.51003 4.08014,0.51001 v -0.51001 h -3.0601 v -0.51003 l 4.08011,-2.04006 h 0.51003 l -1.02003,2.55009 1.53004,-4.08013 1.53005,2.04005 c 1.19603,-8.71368 -18.19231,-12.37572 -19.16494,-2.54968 -0.89376,9.0291 17.9166,18.37381 20.18498,7.13982 M 87.399589,145.95687 v 1.53004 h 0.510009 l -0.510009,-1.53004 m 18.678141,1.05427 c -2.00324,1.51395 1.70862,4.29271 3.44497,2.92709 1.97131,-1.55044 -1.83741,-4.14199 -3.44497,-2.92709 m 19.57304,-0.54425 3.57011,2.55007 1.53005,-1.02002 -0.51001,2.04006 -4.59015,-3.57011 m 2.55007,0 0.51003,1.02002 h -1.02004 l 0.51001,-1.02002 m -18.36057,1.53005 c -0.88726,2.6468 -3.34091,1.77125 -4.08011,-0.51003 l 4.08011,0.51003 m 9.18029,-0.51003 v 0.51003 l 2.04007,0.51001 -0.51003,-1.53005 -1.53004,0.51001 m 1.02003,0.17002 c 0.39443,0 0.0817,0.25392 -0.17001,0.17001 l 0.17001,-0.17001 m -31.960995,0.68002 0.170016,0.34002 -0.170016,-0.34002 m 72.252265,0.17002 1.53005,3.57012 h 0.51001 l -2.04006,-3.57012 m -44.3714,0.51003 c 0.20238,8.60745 9.53263,14.20545 17.34055,11.73037 v 0.51001 c -7.07928,3.9655 -21.17788,-3.09558 -17.34055,-12.24038 m 13.77043,2.04007 h -4.08012 l 3.0601,0.51001 -0.51003,1.53005 h 2.55009 c -1.78868,1.81923 -3.36653,1.32599 -5.61018,0.51001 l 0.51002,1.02004 -2.04007,-1.02004 v -0.51001 l 1.53005,0.51001 -2.04006,-4.08011 2.04006,1.53004 1.53004,-0.51002 -0.51001,-1.53005 3.57011,2.04007 m -41.311283,-1.53004 c 2.612907,11.00038 13.537913,22.59913 23.460743,27.54083 v -0.51001 c -6.3443,-4.55724 -12.345071,-9.42573 -16.960388,-15.81048 -2.54303,-3.51798 -3.93481,-7.83045 -6.500355,-11.22034 m 42.331323,2.04005 0.51,1.02004 h -1.02001 l 0.51001,-1.02004 m 30.60097,1.53005 2.55006,9.6903 h 0.51003 c -0.1436,-3.29517 -0.958,-7.08585 -3.06009,-9.6903 m -23.97077,0.51001 -0.51001,0.51003 0.51001,-0.51003 m -3.0601,0.51003 0.51003,3.5701 h 0.51001 l -1.02004,-3.5701 m 4.59015,0 -0.51001,0.51001 0.51001,-0.51001 m -6.63021,1.53005 0.51001,2.04005 h 0.51003 v -2.04005 h -1.02004 m -10.20032,0.51001 v 1.53004 h 1.53005 v -1.53004 h -1.53005 m 1.02004,0.51001 -0.51001,0.51002 0.51001,-0.51002 m -36.721139,1.02003 3.060094,5.10016 -2.040056,1.02003 0.510009,2.04006 h 0.510009 l 1.020038,-2.04006 c 2.699091,1.36669 4.447807,3.59509 3.570105,6.6302 h 0.510028 l 0.51001,-1.53005 5.100151,4.08014 v 0.51001 c -2.816868,3.28352 -3.964745,8.07978 -4.883718,12.24038 -0.370392,1.67699 -0.373823,4.97559 -1.715003,6.1981 -1.92278,1.75271 -3.92681,-1.54553 -4.036048,-3.13997 -0.321797,-4.697 2.045435,-9.74071 2.984532,-14.27847 l 5.61018,1.53004 v -0.51003 c -3.949209,0.64294 -8.69942,-5.14001 -9.690293,-8.67025 H 86.88956 L 82.809446,181.658 c -8.435799,-0.9427 -1.626833,-14.04316 -0.510028,-18.87057 h 0.510028 c 1.354461,1.76249 2.370528,2.28548 4.590143,2.04005 v -0.51001 c -5.48662,0.60672 -4.220175,-4.26586 -1.020038,-6.6302 m 81.092539,7.14021 -1.02004,-5.10015 c 4.95043,0.0447 6.66226,4.20082 1.02004,5.10015 m -3.0601,-1.53005 v 5.61018 h 0.51001 l -0.51001,-5.61018 m -27.03086,0.51003 c -0.47011,2.89511 1.34644,4.28311 4.08013,4.59015 -0.30269,-2.70871 -1.46666,-3.90172 -4.08013,-4.59015 m 3.57012,4.08012 -3.57012,-3.0601 0.51003,-0.51001 3.06009,3.57011 m -53.381665,-1.70005 0.170016,0.34002 -0.170016,-0.34002 m 30.940965,1.19004 c 0.25537,7.84186 8.21956,0.26749 0,0 m 4.08013,3.06009 c -2.26183,0.504 -3.21003,-0.29246 -3.57012,-2.55008 1.95564,0.22275 2.85696,0.68473 3.57012,2.55008 m 41.31128,-1.02004 -0.51,3.57013 h 0.51 v -3.57013 m -71.40222,1.02004 -0.510009,2.04006 h 0.510009 v -2.04006 m 70.38221,3.0601 -7.14023,8.67027 v 0.51001 c 2.90779,-1.50848 7.74132,-5.50227 7.14023,-9.18028 m -58.65184,5.10015 6.12019,3.06009 -3.57012,3.57013 v 0.51001 l 2.55008,-1.02004 c -1.17673,3.68011 -1.94379,7.38309 -2.40447,11.22036 -0.15209,1.26737 0.24787,3.71203 -0.96337,4.55354 -1.93858,1.34684 -3.8743,-1.43346 -4.16591,-3.02546 -0.75031,-4.09605 0.42712,-9.76437 1.41356,-13.76846 l 2.55009,1.02002 v -0.51001 c -1.73455,-1.06355 -1.97533,-2.08981 -2.04008,-4.08013 h -0.51001 l -0.51001,2.04007 c -3.946604,-2.27039 -5.795325,-3.8795 -3.570121,-8.16026 l 5.100171,4.59014 m 8.16025,-1.53005 v 0.51003 l 7.14022,3.5701 v -0.51001 l -7.14022,-3.57012 m -8.67028,1.53005 v 1.53005 h 0.51003 l -0.51003,-1.53005 m 63.75201,0 v 0.51003 h 1.53005 l -1.53005,-0.51003 m -47.4315,2.55008 0.51001,0.51001 -0.51001,-0.51001 m 43.86137,0 -2.55006,3.57011 2.55006,-3.57011 m -42.84133,0.51001 v 0.51003 l 6.6302,2.04006 v -0.51001 l -6.6302,-2.04008 m -40.29126,1.53005 v 0.51003 c 3.470042,-0.2329 7.426055,1.85364 3.570124,5.10015 2.764244,0.59858 3.247305,-3.2245 1.705171,-4.93802 -1.407277,-1.56366 -3.472142,-1.0055 -5.275295,-0.67216 m 42.33132,4.59014 c -1.7375,6.16834 -7.19889,3.77307 -6.12019,-2.04005 h -0.51001 l -1.02004,4.08013 -6.12019,-3.0601 c 1.73765,-7.20268 9.14661,-0.3115 13.77043,1.02002 m 31.62099,-5.10015 -1.02002,0.51001 v 0.51003 l 1.02002,-1.02004 m -2.04008,1.02004 0.51003,0.51001 -0.51003,-0.51001 m -24.48076,0.51001 v 0.51001 h 1.53005 l -1.53005,-0.51001 m 23.29073,0.17002 0.34001,0.17001 -0.34001,-0.17001 m -45.3914,0.51 0.34001,0.17002 -0.34001,-0.17002 m 24.14075,-0.17001 v 0.51003 h 1.53004 l -1.53004,-0.51003 m 16.83052,0.51003 v 0.51001 l 3.57011,-0.51001 h -3.57011 m -14.79047,0 v 0.51001 h 2.55009 l -2.55009,-0.51001 m 3.0601,0.51001 v 0.51001 h 10.71034 l -10.71034,-0.51001 m 29.58093,1.53004 -0.51001,0.51001 0.51001,-0.51001 m 1.02004,0.51001 -1.02004,1.53005 1.02004,-1.53005 m -34.68111,2.55009 5.61019,1.53005 c -0.79252,2.48001 -1.92165,4.16942 -4.59015,4.59014 v 0.51001 l 3.57011,-2.04006 h 0.51003 l 0.51001,13.77043 c -4.8209,0 -5.11134,-2.88827 -5.65267,-7.14023 -0.24373,-1.9144 -1.39336,-4.57389 1.06252,-5.10015 v -0.51001 c -2.48059,-0.87529 -1.93702,-3.56681 -1.02004,-5.61018 m -8.67025,0.51001 c -0.95816,3.40828 -1.52868,6.65564 -1.53005,10.20032 -5.6e-4,1.4286 0.48597,4.10801 -0.52419,5.28197 -1.51207,1.75727 -3.94154,-0.77859 -4.3548,-2.23132 -1.07413,-3.77582 -0.22118,-8.82504 -0.22118,-12.74094 2.71692,0.7167 4.10197,0.87354 6.63022,-0.51003 m 21.93068,0.51003 0.51001,4.59014 h -8.16025 c 0.4443,-5.04674 3.37906,-4.59014 7.65024,-4.59014 m 6.12019,0 -0.51001,5.10015 h 0.51001 v -1.53005 h 0.51001 c 0.095,2.18102 3.03359,14.20539 -3.0601,9.69029 h -0.51001 l -5.10015,0.889 -5.10017,3.70115 -0.51001,-12.75039 h 8.16025 l 1.02004,6.12019 h 0.51 l -1.02001,-5.10015 h 4.08011 v -0.51003 c -3.62101,-0.0432 -4.30821,-1.6534 -4.59014,-5.10015 l 5.61018,-0.51001 m -58.14181,3.06009 v 0.51001 c 1.498358,-0.38521 3.350915,-1.9765 4.875835,-1.83897 6.117435,0.55176 -1.533479,6.667 -3.345787,7.44915 6.171522,1.68647 8.654252,-9.31508 2.550085,-8.2366 -1.430621,0.25275 -2.827874,1.42284 -4.080133,2.11641 m 68.85216,-2.04007 v 0.51002 l 2.04006,-0.51002 h -2.04006 m -8.6703,2.04007 v 0.51001 l 5.6102,-2.04006 -5.6102,1.53005 m -3.06009,2.04006 0.51003,0.51001 -0.51003,-0.51001 m -40.29125,3.06009 -4.59014,5.10015 6.12019,-4.59014 -1.53005,-0.51001 m 2.04006,0 v 0.51001 c 4.14419,2.4832 1.63024,4.57237 -0.51001,7.65024 3.62554,-2.04364 5.69659,-6.68706 0.51001,-8.16025 m 35.19109,3.0601 0.51003,2.04005 h 0.51001 l -1.02004,-2.04005 m -30.09092,8.67027 v 0.51001 c 4.34549,-0.99715 6.17073,-5.65488 10.05471,-6.84782 1.5223,-0.46757 3.43904,1.19267 3.02939,2.77557 -0.54388,2.10157 -3.29675,3.85256 -4.92385,5.09229 4.40703,0.22235 9.08768,-8.25185 2.5497,-8.77928 -3.62102,-0.29211 -7.44379,5.69509 -10.70995,7.24923 z"
       id="path1" /></g></svg>
