<?xml version="1.0" encoding="UTF-8" standalone="no"?>
<!-- Created with Inkscape (http://www.inkscape.org/) -->

<svg
   width="135.786mm"
   height="83.920364mm"
   viewBox="0 0 135.786 83.920364"
   version="1.1"
   id="svg1"
   xml:space="preserve"
   inkscape:version="1.4.2 (f4327f4, 2025-05-13)"
   sodipodi:docname="tires.svg"
   xmlns:inkscape="http://www.inkscape.org/namespaces/inkscape"
   xmlns:sodipodi="http://sodipodi.sourceforge.net/DTD/sodipodi-0.dtd"
   xmlns="http://www.w3.org/2000/svg"
   xmlns:svg="http://www.w3.org/2000/svg"><sodipodi:namedview
     id="namedview1"
     pagecolor="#ffffff"
     bordercolor="#000000"
     borderopacity="0.25"
     inkscape:showpageshadow="2"
     inkscape:pageopacity="0.0"
     inkscape:pagecheckerboard="0"
     inkscape:deskcolor="#d1d1d1"
     inkscape:document-units="mm"
     inkscape:zoom="1.0721378"
     inkscape:cx="213.59195"
     inkscape:cy="242.9725"
     inkscape:window-width="1920"
     inkscape:window-height="1111"
     inkscape:window-x="2391"
     inkscape:window-y="-9"
     inkscape:window-maximized="1"
     inkscape:current-layer="layer1"
     showguides="false" /><defs
     id="defs1" /><g
     inkscape:label="Layer 1"
     inkscape:groupmode="layer"
     id="layer1"
     transform="translate(-36.142017,-96.056129)"><rect
       style="fill:#999999;stroke-width:0.264999"
       id="rect1"
       width="135.786"
       height="83.920364"
       x="36.142017"
       y="96.056129"
       ry="41.960182" /><path
       style="fill:#333333;stroke-width:1.70404"
       d="m 103.1175,170.67157 c -0.42997,-0.5181 -1.47505,-0.65986 -4.451083,-0.6038 -3.175724,0.0599 -4.344076,-0.11979 -6.368903,-0.97886 -1.363849,-0.57867 -2.885499,-1.49695 -3.381443,-2.04062 -1.371236,-1.50318 -3.636315,-2.91343 -4.679417,-2.91343 -1.238485,0 -6.366629,-5.03025 -6.366629,-6.24508 0,-1.03337 -1.962112,-4.14887 -2.968242,-4.71307 -1.171179,-0.65675 -3.650865,-7.56716 -3.058995,-8.52484 0.545299,-0.8823 0.163877,-4.44762 -0.60064,-5.6144 -0.624704,-0.95342 -0.651408,-1.5823 -0.202099,-4.75947 0.284744,-2.01347 0.807977,-3.98162 1.16274,-4.37363 0.901918,-0.9966 1.664102,-3.10131 1.876692,-5.18231 0.220607,-2.15947 3.177792,-7.04433 4.713115,-7.78542 1.331071,-0.64249 3.502751,-2.84559 4.216776,-4.27777 0.65662,-1.31705 6.533757,-4.95777 7.505397,-4.64939 0.883635,0.28045 4.383347,-0.89934 5.401767,-1.821 0.403266,-0.36496 2.402601,-0.88822 4.442964,-1.1628 3.23373,-0.43519 3.81227,-0.40648 4.50872,0.22381 0.61575,0.55723 1.66989,0.70658 4.5966,0.65119 3.07886,-0.0583 4.26696,0.1273 6.27736,0.98037 1.36386,0.57874 2.8855,1.49706 3.38144,2.04074 1.37125,1.50318 3.63631,2.91343 4.67942,2.91343 1.23848,0 6.36663,5.03025 6.36663,6.24508 0,1.03336 1.96211,4.14887 2.96824,4.71307 1.16892,0.65547 3.61879,7.61906 3.02084,8.58654 -0.51076,0.82645 -0.091,4.90302 0.57326,5.56729 0.76535,0.76533 0.77881,1.15983 0.18082,5.29741 -0.249,1.72285 -0.73199,3.44738 -1.07333,3.83231 -0.97409,1.09852 -2.00724,3.91971 -1.96606,5.3686 0.052,1.82597 -3.60882,7.7299 -4.79294,7.7299 -0.6618,0 -3.87028,3.24184 -3.87028,3.9105 0,1.06431 -6.68895,5.27974 -7.73862,4.87696 -0.78161,-0.29992 -4.33978,0.90588 -5.33749,1.8088 -0.39724,0.3595 -2.13184,0.85735 -3.85468,1.10635 -4.15174,0.60002 -4.5043,0.58593 -5.16193,-0.20646 z m 7.90749,-10.72162 c 5.27378,-1.72743 9.89677,-5.42421 13.0151,-10.40755 3.06363,-4.89595 3.87853,-13.04179 1.87761,-18.76889 -3.40965,-9.75917 -11.75788,-15.78228 -21.87476,-15.78228 -6.11762,0 -10.844654,1.78914 -15.459496,5.85128 -8.152307,7.17595 -10.02501,20.0811 -4.240123,29.21948 2.943007,4.64906 7.331526,8.11902 12.462787,9.85418 4.162662,1.40766 9.982272,1.42148 14.218882,0.0337 z m -10.83744,0.14979 c -7.793082,-1.27053 -14.371577,-6.83439 -17.351637,-14.67545 -1.473197,-3.87622 -1.471243,-11.01186 0.0041,-14.87835 2.58616,-6.77776 6.916174,-11.10718 13.7525,-13.75064 3.862767,-1.49363 10.991937,-1.49363 14.854717,0 6.70826,2.59394 11.26097,7.14787 13.74697,13.75064 1.4558,3.86661 1.45501,11.01573 -0.002,14.87835 -3.23892,8.58861 -10.65916,14.24796 -19.43797,14.82517 -1.822,0.11979 -4.32715,0.0525 -5.567,-0.14979 z m 7.94912,-1.57359 c 8.53885,-1.80991 15.09095,-8.63903 16.64803,-17.35192 2.40088,-13.43447 -10.51949,-26.35483 -23.95396,-23.95397 -11.463033,2.04855 -19.52518,13.04564 -17.572871,23.9701 1.512718,8.46465 7.880541,15.27926 16.150888,17.28406 3.356083,0.81355 5.085413,0.8238 8.727913,0.0518 z m -10.209308,-1.48949 c -5.484198,-1.95639 -9.665861,-5.7104 -12.069761,-10.83538 -1.211955,-2.58383 -1.44727,-3.66352 -1.594163,-7.31443 -0.141537,-3.51755 0.0024,-4.80032 0.805027,-7.17637 2.073114,-6.13687 7.099836,-11.06615 13.102881,-12.84886 3.090384,-0.91774 8.617094,-0.91463 11.719224,0.007 5.14717,1.52855 9.85508,5.70426 12.32221,10.92928 1.33337,2.8239 1.41788,3.31159 1.41863,8.18763 7.9e-4,5.06205 -0.0387,5.2655 -1.66329,8.58845 -2.0667,4.22701 -5.46056,7.56933 -9.71626,9.56866 -2.68062,1.25938 -3.58944,1.44775 -7.55573,1.56613 -3.45187,0.10309 -5.038319,-0.0543 -6.768768,-0.67172 z m 4.743658,-1.02419 c 0.26748,-0.49979 0.42678,-2.37649 0.354,-4.17043 -0.13203,-3.25428 -0.13605,-3.26355 -1.76351,-4.05942 -0.89716,-0.43873 -1.942923,-0.67808 -2.323925,-0.53188 -0.566715,0.21747 -3.347547,3.83567 -4.522613,5.88446 -0.510542,0.89015 0.797696,2.03028 3.310584,2.88518 3.236424,1.10105 4.352914,1.09928 4.945464,-0.009 z m 7.58099,-0.0369 c 3.60392,-1.21706 4.00337,-1.94324 2.40067,-4.36414 -2.27622,-3.43826 -3.62261,-4.68403 -4.71163,-4.35951 -2.7025,0.80534 -3.01949,1.33873 -3.01949,5.08098 0,4.95758 0.47519,5.28231 5.33045,3.64267 z m -15.561731,-6.89536 c 1.163707,-1.58487 2.108528,-3.15725 2.099612,-3.49416 -0.0089,-0.3369 -0.505747,-1.2115 -1.104052,-1.94357 l -1.087844,-1.331 -2.390101,0.61234 c -4.124723,1.05676 -5.320688,1.71377 -5.320688,2.92291 0,0.99394 2.621065,4.98383 3.79047,5.77004 1.122921,0.75495 2.005435,0.19707 4.012603,-2.53656 z m 23.600471,1.41632 c 3.32068,-3.54418 3.7237,-5.37635 1.39645,-6.34836 -0.80592,-0.3366 -2.54085,-0.88756 -3.85539,-1.22435 l -2.39012,-0.61234 -1.08783,1.331 c -0.59832,0.73207 -1.09514,1.60667 -1.10406,1.94357 -0.0262,0.99015 4.14809,6.37577 4.94175,6.37577 0.39947,0 1.34412,-0.65938 2.0992,-1.46529 z M 107.68438,146.363 c 4.32998,-1.82091 6.58799,-7.59215 4.7116,-12.04234 -0.77485,-1.83768 -3.17478,-4.21944 -4.91132,-4.87415 -1.63121,-0.61498 -5.29842,-0.61498 -6.92962,0 -1.721427,0.64902 -4.171178,3.03653 -4.929842,4.80461 -0.804695,1.87537 -0.796533,5.46448 0.01687,7.3986 0.740582,1.76103 2.89825,3.94894 4.668772,4.7342 1.70526,0.7563 5.55135,0.74539 7.37358,-0.021 z m -6.9115,-0.87622 c -6.435245,-2.85619 -6.414321,-12.26624 0.0333,-14.9777 8.08299,-3.39917 15.0034,6.51184 9.10249,13.03607 -2.1406,2.3667 -6.22314,3.23437 -9.13579,1.94163 z m 2.03092,-1.85969 c 0.0488,-0.24456 -0.26615,-0.51304 -0.7001,-0.59663 -0.49352,-0.0951 -0.78901,0.1261 -0.78901,0.59047 0,0.7844 1.33242,0.78991 1.48911,0.007 z m 3.9212,-0.007 c 0,-0.37573 -0.40076,-0.67629 -0.90172,-0.67629 -0.89822,0 -1.17273,0.4804 -0.60114,1.052 0.54911,0.54912 1.50286,0.31068 1.50286,-0.37571 z m -6.762885,-2.28091 c 0,-0.66274 -0.962531,-0.88943 -1.498952,-0.35302 -0.407725,0.40772 0.602719,1.5566 1.099176,1.24977 0.219879,-0.13581 0.399776,-0.53943 0.399776,-0.89675 z m 9.661895,-0.24991 c -0.38418,-0.62161 -1.54643,-0.47026 -1.54643,0.20139 0,0.33061 0.13349,0.73464 0.29666,0.8978 0.40772,0.40772 1.55661,-0.60272 1.24977,-1.09919 z m -10.764766,-2.69335 c 0.464627,-0.75176 -0.580348,-1.61385 -1.202313,-0.99188 -0.520249,0.52024 -0.194639,1.48204 0.50175,1.48204 0.218698,0 0.533962,-0.22058 0.700563,-0.49016 z m 11.722336,0 c 0.46462,-0.75176 -0.58035,-1.61385 -1.20232,-0.99188 -0.52025,0.52024 -0.19464,1.48204 0.50175,1.48204 0.2187,0 0.53396,-0.22058 0.70057,-0.49016 z m -10.619465,-3.71787 c 0,-0.33064 -0.133492,-0.73465 -0.296657,-0.8978 -0.407725,-0.40773 -1.556609,0.60271 -1.249774,1.09916 0.384181,0.62163 1.546431,0.47028 1.546431,-0.20136 z m 9.614405,0.30449 c 0.40774,-0.40774 -0.60271,-1.55662 -1.09917,-1.24977 -0.62161,0.38417 -0.47027,1.54643 0.20137,1.54643 0.33063,0 0.73465,-0.13343 0.8978,-0.29666 z m -6.77272,-2.62776 c 0.0488,-0.24457 -0.26615,-0.51306 -0.7001,-0.59663 -0.49352,-0.0951 -0.78901,0.1261 -0.78901,0.59046 0,0.7844 1.33242,0.78993 1.48911,0.007 z m 3.9212,-0.0392 c 0,-0.41986 -0.30675,-0.64987 -0.75164,-0.56358 -1.13111,0.21936 -1.28641,1.27292 -0.18765,1.27292 0.55381,0 0.93929,-0.29112 0.93929,-0.70934 z m -16.421279,9.09107 c 3.470964,-1.20814 4.347099,-2.35369 3.544837,-4.63491 -0.354637,-1.00841 -1.015298,-1.40367 -3.923094,-2.34714 -3.288968,-1.06714 -3.542093,-1.08907 -4.26199,-0.36917 -0.966785,0.96679 -1.088426,6.60503 -0.166467,7.71592 0.783996,0.94465 1.117719,0.91933 4.80671,-0.3647 z m 32.238969,0.3647 c 0.92194,-1.11089 0.80032,-6.74913 -0.16649,-7.71592 -0.7199,-0.7199 -0.97301,-0.69797 -4.26199,0.36917 -2.9078,0.94347 -3.56846,1.33873 -3.9231,2.34714 -0.78639,2.23609 0.0861,3.43332 3.35448,4.60345 3.55603,1.27311 4.22524,1.32615 4.99708,0.39616 z m -26.723092,-9.62989 c 0.542576,-0.73387 0.98651,-1.56746 0.98651,-1.85242 0,-0.28495 -0.952122,-1.81482 -2.115829,-3.39971 -2.708517,-3.6888 -3.418737,-3.72655 -5.945564,-0.31594 -2.682904,3.62128 -2.485205,4.50695 1.298504,5.81718 3.924658,1.35904 4.609253,1.32951 5.776379,-0.24911 z m 21.976342,0.28045 c 2.46421,-0.82941 3.16202,-1.26308 3.27613,-2.0361 0.25396,-1.71993 -3.2592,-6.37806 -4.81032,-6.37806 -0.79902,0 -5.02816,5.28315 -5.02816,6.28129 0,0.89792 1.94074,3.18675 2.70212,3.18675 0.40101,0 2.13811,-0.47426 3.86023,-1.05388 z m -15.69224,-4.63922 c 0.91159,-0.57487 1.01443,-0.99869 1.01443,-4.181 0,-4.17102 -0.45092,-4.82291 -3.00459,-4.34383 -2.555527,0.47943 -5.091523,1.61699 -5.561203,2.4946 -0.325273,0.60778 0.0018,1.40886 1.405638,3.43993 2.772093,4.01142 3.443526,4.29441 6.145725,2.5903 z m 7.14335,0.83945 c 0.27125,-0.18218 1.43506,-1.61781 2.58625,-3.1903 1.64361,-2.24513 2.00041,-3.0322 1.66155,-3.66538 -0.49271,-0.92064 -3.23953,-2.12471 -5.77019,-2.52938 -2.46151,-0.39361 -2.87154,0.30465 -2.71012,4.61521 l 0.13246,3.53689 1.57801,0.7883 c 1.78218,0.89031 1.84265,0.90096 2.52204,0.44466 z"
       id="path1" /></g></svg>
