<?xml version="1.0" encoding="UTF-8" standalone="no"?>
<!-- Created with Inkscape (http://www.inkscape.org/) -->

<svg
   width="169.86234mm"
   height="211.66667mm"
   viewBox="0 0 169.86234 211.66667"
   version="1.1"
   id="svg1"
   xml:space="preserve"
   inkscape:version="1.4.2 (f4327f4, 2025-05-13)"
   sodipodi:docname="warrenty.svg"
   xmlns:inkscape="http://www.inkscape.org/namespaces/inkscape"
   xmlns:sodipodi="http://sodipodi.sourceforge.net/DTD/sodipodi-0.dtd"
   xmlns="http://www.w3.org/2000/svg"
   xmlns:svg="http://www.w3.org/2000/svg"><sodipodi:namedview
     id="namedview1"
     pagecolor="#ffffff"
     bordercolor="#000000"
     borderopacity="0.25"
     inkscape:showpageshadow="2"
     inkscape:pageopacity="0.0"
     inkscape:pagecheckerboard="0"
     inkscape:deskcolor="#d1d1d1"
     inkscape:document-units="mm"
     inkscape:zoom="0.37905794"
     inkscape:cx="724.1637"
     inkscape:cy="325.80771"
     inkscape:window-width="2400"
     inkscape:window-height="1261"
     inkscape:window-x="4791"
     inkscape:window-y="-9"
     inkscape:window-maximized="1"
     inkscape:current-layer="layer1" /><defs
     id="defs1" /><g
     inkscape:label="Layer 1"
     inkscape:groupmode="layer"
     id="layer1"
     transform="translate(-16.581,-39.131227)"><path
       style="fill:#000000"
       d="M 16.581,168.90936 V 87.02081 H 67.9255 119.27 l 11.75862,11.424587 11.75863,11.424583 v 70.46396 70.46396 H 79.68412 16.581 Z m 115.09375,8.73125 v -62.30938 h -8.99584 -8.99583 v -8.73125 -8.731253 H 70.556 27.42891 v 71.040633 71.04062 h 52.12292 52.12292 z m -88.4545,43.14265 c -1.27606,-0.45766 -2.00846,-1.10795 -2.46639,-2.18988 -0.8294,-1.95956 -0.0864,-4.63121 1.56854,-5.64029 0.83177,-0.50715 1.57243,-0.5178 36.03881,-0.5178 34.82229,0 35.19871,0.006 36.06486,0.53365 1.04641,0.63798 1.89063,2.34634 1.89268,3.83 0.002,1.37242 -0.92463,2.99505 -2.10665,3.68942 -0.92011,0.54052 -1.14159,0.54427 -35.45402,0.60047 -28.6579,0.0469 -34.69979,-0.005 -35.53783,-0.30557 z m 0.32123,-20.06303 c -2.44243,-1.63165 -2.42778,-5.59524 0.0269,-7.27077 l 0.87214,-0.59531 35.2166,9.9e-4 c 34.12272,9.6e-4 35.24219,0.0166 36.04038,0.50331 0.97944,0.59725 1.95666,2.47613 1.94854,3.74642 -0.009,1.35236 -0.89311,3.06824 -1.89704,3.68032 -0.86613,0.52807 -1.24338,0.53366 -36.09188,0.53464 l -35.2166,9.9e-4 z m 0.2916,-20.52491 c -2.03606,-1.08424 -2.7426,-4.08597 -1.47206,-6.254 1.26959,-2.16638 -1.76147,-2.01099 37.63447,-1.92939 34.85242,0.0722 34.97428,0.0743 35.7024,0.61794 1.42174,1.06154 1.82165,1.87114 1.82165,3.68782 0,1.81668 -0.39991,2.62628 -1.82165,3.68782 -0.72822,0.54372 -0.84577,0.54574 -35.83469,0.61423 -33.81382,0.0662 -35.13811,0.0506 -36.03012,-0.42442 z m 0.10484,-19.20478 c -1.42012,-0.61819 -2.08921,-1.86781 -2.08921,-3.90189 0,-1.90965 0.38012,-2.69704 1.82163,-3.77336 0.72811,-0.54366 0.84934,-0.54576 35.57247,-0.61547 l 34.84187,-0.07 1.18826,0.59912 c 1.37275,0.69213 2.37889,2.35044 2.37889,3.92086 0,1.34866 -1.0163,3.13653 -2.11913,3.72799 -0.87858,0.47118 -2.31751,0.49048 -35.84445,0.48053 -28.73825,-0.009 -35.07468,-0.0737 -35.75033,-0.36783 z m -0.0232,-20.77233 c -2.96941,-1.35367 -2.91499,-6.59929 0.0815,-7.85129 0.73373,-0.30657 6.6191,-0.36694 35.77259,-0.36694 h 34.89437 l 0.87469,0.59531 c 1.29298,0.87999 1.84227,1.76898 2.00498,3.2449 0.17118,1.5528 -0.59251,3.31278 -1.82858,4.21409 -0.74405,0.54254 -0.88279,0.5449 -35.71875,0.60706 -33.93509,0.0606 -35.00467,0.0474 -36.08075,-0.44313 z m 104.42876,80.02031 v -5.42395 h 2.38125 2.38125 V 152.50519 90.19581 h -8.99222 -8.99222 l -0.0698,-8.665105 -0.0698,-8.665104 -43.06094,-0.06694 -43.06094,-0.06694 v 4.101836 4.101837 H 43.4361 38.01214 v -9.525001 -9.525 l 51.26303,0.0063 51.26302,0.0063 11.69737,11.304685 11.69736,11.304686 0.0104,70.577606 0.0104,70.5776 h -7.80521 -7.8052 z m 22.48958,-22.75416 v -5.42396 h 2.3818 2.3818 l -0.0667,-62.37552 -0.0667,-62.375529 -9.06198,-0.06962 -9.06198,-0.06962 v -8.596279 -8.59628 l -43.06094,0.06694 -43.06094,0.06694 -0.0731,4.040352 -0.0731,4.040352 -5.35089,-0.0716 -5.35089,-0.0716 -0.0695,-9.458855 -0.0695,-9.458854 51.39866,0.0082 51.39865,0.0082 11.6922,11.302781 11.69219,11.302781 0.0156,70.577601 0.0156,70.57761 h -7.80521 -7.80521 z"
       id="path1" /></g></svg>
