<?xml version="1.0" encoding="UTF-8" standalone="no"?>
<!-- Created with Inkscape (http://www.inkscape.org/) -->

<svg
   width="135.786mm"
   height="83.920364mm"
   viewBox="0 0 135.786 83.920364"
   version="1.1"
   id="svg1"
   inkscape:version="1.4.2 (f4327f4, 2025-05-13)"
   sodipodi:docname="yellowoil.svg"
   xmlns:inkscape="http://www.inkscape.org/namespaces/inkscape"
   xmlns:sodipodi="http://sodipodi.sourceforge.net/DTD/sodipodi-0.dtd"
   xmlns="http://www.w3.org/2000/svg"
   xmlns:svg="http://www.w3.org/2000/svg">
  <sodipodi:namedview
     id="namedview1"
     pagecolor="#ffffff"
     bordercolor="#000000"
     borderopacity="0.25"
     inkscape:showpageshadow="2"
     inkscape:pageopacity="0.0"
     inkscape:pagecheckerboard="0"
     inkscape:deskcolor="#d1d1d1"
     inkscape:document-units="mm"
     inkscape:zoom="0.89174383"
     inkscape:cx="-0.56069914"
     inkscape:cy="230.44735"
     inkscape:window-width="2400"
     inkscape:window-height="1261"
     inkscape:window-x="4791"
     inkscape:window-y="-9"
     inkscape:window-maximized="1"
     inkscape:current-layer="layer1" />
  <defs
     id="defs1" />
  <g
     inkscape:label="Layer 1"
     inkscape:groupmode="layer"
     id="layer1"
     transform="translate(-105.03958,-87.57708)">
    <rect
       style="fill:#1a1a1a;stroke-width:0.264999"
       id="rect17"
       width="135.786"
       height="83.920364"
       x="105.03958"
       y="87.57708"
       ry="41.960182" />
    <g
       id="g32"
       transform="translate(60.1136,59.736437)"
       style="fill:#ffff00">
      <rect
         style="fill:#ffff00;stroke-width:0.264999"
         id="rect18"
         width="22.104395"
         height="5.7857141"
         x="89.416458"
         y="50.60239"
         transform="rotate(-0.16552)" />
      <rect
         style="fill:#ffff00;stroke-width:0.264999"
         id="rect19"
         width="6.9725275"
         height="4.5989013"
         x="97.056564"
         y="55.794712"
         transform="rotate(-0.16552)" />
      <rect
         style="fill:#ffff00;stroke-width:0.283296"
         id="rect20"
         width="35.381866"
         height="5.3406596"
         x="81.702164"
         y="60.17107"
         ry="2.6703298"
         transform="rotate(-0.16552)" />
      <rect
         style="fill:#ffff00;stroke-width:0.248691"
         id="rect21"
         width="11.562177"
         height="4.4793386"
         x="124.47111"
         y="-38.181755"
         ry="2.2396693"
         transform="matrix(0.71417191,0.69997034,-0.69247309,0.7214437,0,0)" />
      <rect
         style="fill:#ffff00;stroke-width:0.252576"
         id="rect22"
         width="11.827572"
         height="4.5166864"
         x="122.90683"
         y="-37.309647"
         ry="2.2583432"
         transform="matrix(0.71107204,0.70311916,-0.70859763,0.70561278,0,0)" />
      <rect
         style="fill:#ffff00;stroke-width:0.241909"
         id="rect23"
         width="45.692303"
         height="5.5631866"
         x="80.366989"
         y="81.237"
         ry="0"
         transform="rotate(-0.16552)" />
      <rect
         style="fill:#ffff00;stroke-width:0.196876"
         id="rect24"
         width="26.703291"
         height="6.304945"
         x="60.28236"
         y="-86.709068"
         ry="0"
         transform="rotate(89.834487)" />
      <rect
         style="fill:#ffff00;stroke-width:0.264999"
         id="rect25"
         width="6.0842266"
         height="22.553596"
         x="-37.843693"
         y="80.096321"
         transform="rotate(-68.32351)" />
      <rect
         style="fill:#ffff00;stroke-width:0.236649"
         id="rect26"
         width="5.2189021"
         height="20.968266"
         x="-37.803013"
         y="75.683647"
         transform="matrix(0.23992448,-0.97079156,0.96861294,0.24857386,0,0)" />
      <rect
         style="fill:#ffff00;stroke-width:0.198881"
         id="rect27"
         width="5.1702728"
         height="14.948676"
         x="-83.540268"
         y="-40.100204"
         transform="matrix(-0.93964039,-0.34216362,0.32825497,-0.94458916,0,0)" />
      <rect
         style="fill:#ffff00;stroke-width:0.278386"
         id="rect28"
         width="6.7272792"
         height="42.676918"
         x="-105.00714"
         y="94.896477"
         transform="matrix(-0.27076816,-0.96264459,0.94858327,-0.3165277,0,0)"
         ry="2.0511808" />
      <rect
         style="fill:#ffff00;stroke-width:0.284336"
         id="rect29"
         width="6.5053549"
         height="39.433769"
         x="-152.36563"
         y="12.502096"
         ry="2.4732068"
         transform="matrix(-0.77359369,-0.63368195,0.67999048,-0.73322094,0,0)" />
      <rect
         style="fill:#ffff00;stroke-width:0.264999"
         id="rect30"
         width="5.2187977"
         height="6.6087289"
         x="-85.772026"
         y="-62.241169"
         ry="0"
         transform="scale(-1)" />
      <rect
         style="fill:#ffff00;stroke-width:0.222054"
         id="rect31"
         width="6.1199307"
         height="9.3346262"
         x="-78.960045"
         y="-150.38303"
         ry="0"
         transform="matrix(-0.76795789,0.64050033,-0.68480337,-0.72872789,0,0)" />
      <rect
         style="fill:#ffff00;stroke-width:0.264999"
         id="rect32"
         width="0.052450225"
         height="0.31470135"
         x="-163.45082"
         y="-58.963017"
         transform="scale(-1)" />
      <path
         id="path32"
         style="fill:#ffff00;stroke-width:0.300667"
         d="m 165.48846,76.019074 c 0,2.30745 -1.85973,4.178 -4.15384,4.178 -2.29412,0 -4.15385,-1.87055 -4.15385,-4.178 0,-2.30745 2.05116,-9.75671 4.34527,-9.75671 2.29411,0 3.96242,7.44926 3.96242,9.75671 z"
         sodipodi:nodetypes="sssss" />
    </g>
  </g>
</svg>
