<?xml version="1.0" encoding="UTF-8" standalone="no"?>
<!-- Created with Inkscape (http://www.inkscape.org/) -->

<svg
   width="57.354542mm"
   height="57.246437mm"
   viewBox="0 0 57.354542 57.246437"
   version="1.1"
   id="svg1"
   xml:space="preserve"
   inkscape:version="1.4.2 (f4327f4, 2025-05-13)"
   sodipodi:docname="pencil.svg"
   xmlns:inkscape="http://www.inkscape.org/namespaces/inkscape"
   xmlns:sodipodi="http://sodipodi.sourceforge.net/DTD/sodipodi-0.dtd"
   xmlns="http://www.w3.org/2000/svg"
   xmlns:svg="http://www.w3.org/2000/svg"><sodipodi:namedview
     id="namedview1"
     pagecolor="#ffffff"
     bordercolor="#000000"
     borderopacity="0.25"
     inkscape:showpageshadow="2"
     inkscape:pageopacity="0.0"
     inkscape:pagecheckerboard="0"
     inkscape:deskcolor="#d1d1d1"
     inkscape:document-units="mm"
     inkscape:zoom="0.53606888"
     inkscape:cx="125.91665"
     inkscape:cy="109.12777"
     inkscape:window-width="2400"
     inkscape:window-height="1261"
     inkscape:window-x="4791"
     inkscape:window-y="-9"
     inkscape:window-maximized="1"
     inkscape:current-layer="layer1" /><defs
     id="defs1" /><g
     inkscape:label="Layer 1"
     inkscape:groupmode="layer"
     id="layer1"
     transform="translate(-38.065091,-62.508272)"><path
       style="fill:#000000;stroke-width:403.624"
       d="M 38.21779,119.09889 C 38.076904,118.73 38.023313,107.68035 38.1004,94.542356 l 0.140886,-23.886499 15.26104,-0.142558 c 15.592031,-0.145902 17.03297,0.02816 15.50727,1.856673 -0.444043,0.524738 -3.794085,0.686216 -14.465907,0.686216 h -13.89681 l 0.140887,21.872431 0.140886,21.872411 21.872404,0.14089 21.872431,0.14088 v -12.30652 c 0,-6.768788 0.145902,-12.689958 0.325684,-13.158166 0.179254,-0.484258 0.766823,-0.847694 1.33197,-0.847694 0.968755,0 1.008997,0.645825 1.008997,14.49416 v 14.49013 H 62.900662 c -19.055116,0 -24.495971,-0.14758 -24.697787,-0.68622 z M 50.988477,107.5633 c -0.968755,-0.33536 -0.847695,-1.9374 0.726607,-7.652733 L 53.087473,94.812794 69.018537,78.837326 C 77.78123,70.050415 85.40167,62.720601 85.954629,62.543002 c 0.766823,-0.23927 2.05849,0.726431 5.235016,3.874806 2.341011,2.300655 4.229988,4.573053 4.229988,5.025112 0,0.444043 -7.313675,8.129004 -16.249937,17.065257 l -16.249929,16.241853 -5.622493,1.53371 c -3.107904,0.84769 -5.925219,1.41263 -6.292509,1.29155 z m 7.382288,-4.64169 c 2.825383,-0.8073 3.632624,-1.5337 18.243854,-16.144989 L 91.907954,71.463107 89.082579,68.637732 86.257205,65.812358 70.943691,81.105693 c -14.61929,14.603142 -15.349849,15.42654 -16.14499,18.243845 -0.444043,1.614532 -0.968755,3.390452 -1.089824,3.955522 -0.215157,0.76682 -0.05192,0.92833 0.726608,0.72661 0.56513,-0.15427 2.300672,-0.64574 3.955528,-1.08983 z"
       id="path3" /></g></svg>
